<svg xmlns="http://www.w3.org/2000/svg" width="56.25" height="56.25" viewBox="0 0 56.25 56.25">
  <path id="abcgo-ar21" d="M60,1.875a28.126,28.126,0,1,0,19.886,8.237A28.121,28.121,0,0,0,60,1.875ZM51.28,17.063h3.938v5.655A8.72,8.72,0,1,1,51.281,30Zm-9.562,4.22A8.72,8.72,0,0,1,50.438,30v8.72H46.5V37.284a8.72,8.72,0,1,1-4.781-16Zm36.563,0a8.72,8.72,0,0,1,8.483,6.75h-4.13a4.78,4.78,0,1,0,0,3.936h4.134a8.715,8.715,0,1,1-8.485-10.688ZM41.72,25.22A4.781,4.781,0,1,0,46.5,30,4.782,4.782,0,0,0,41.72,25.22Zm18.28,0A4.781,4.781,0,1,0,64.781,30,4.782,4.782,0,0,0,60,25.22Z" transform="translate(-31.875 -1.875)" fill="#888789"/>
</svg>
