<svg xmlns="http://www.w3.org/2000/svg" width="64" height="64" viewBox="0 0 64 64">
    <g fill="none" fill-rule="nonzero">
        <path fill="#E7EBF2" d="M47.86 21.15a5.145 5.145 0 0 1-1.132-3.483 5.144 5.144 0 0 0-3.794-5.222 5.144 5.144 0 0 1-2.964-2.153 5.145 5.145 0 0 0-6.139-1.995c-1.18.45-2.483.45-3.663 0a5.145 5.145 0 0 0-6.139 1.995 5.144 5.144 0 0 1-2.963 2.153 5.144 5.144 0 0 0-3.794 5.222c.063 1.26-.34 2.5-1.132 3.483a5.144 5.144 0 0 0 0 6.455 5.145 5.145 0 0 1 1.132 3.484 5.144 5.144 0 0 0 3.794 5.222 5.143 5.143 0 0 1 2.963 2.153 5.145 5.145 0 0 0 6.14 1.995 5.144 5.144 0 0 1 3.662 0 5.145 5.145 0 0 0 6.14-1.995 5.144 5.144 0 0 1 2.963-2.153 5.144 5.144 0 0 0 3.794-5.222c-.063-1.26.34-2.5 1.132-3.484a5.144 5.144 0 0 0 0-6.454zm-4.31 5.578a3.746 3.746 0 0 0-.825 2.537 3.746 3.746 0 0 1-2.763 3.803 3.748 3.748 0 0 0-2.158 1.568 3.746 3.746 0 0 1-4.47 1.452 3.747 3.747 0 0 0-2.668 0 3.746 3.746 0 0 1-4.47-1.452 3.746 3.746 0 0 0-2.158-1.568 3.746 3.746 0 0 1-2.763-3.803 3.746 3.746 0 0 0-.824-2.537 3.746 3.746 0 0 1 0-4.7c.576-.716.87-1.619.824-2.537a3.746 3.746 0 0 1 2.763-3.803 3.748 3.748 0 0 0 2.158-1.567 3.746 3.746 0 0 1 4.47-1.453 3.747 3.747 0 0 0 2.668 0 3.746 3.746 0 0 1 4.47 1.453 3.745 3.745 0 0 0 2.158 1.567c1.7.46 2.851 2.044 2.763 3.803a3.746 3.746 0 0 0 .824 2.537 3.746 3.746 0 0 1 0 4.7zM23.113 51.171v4.995L32 48.99l8.887 7.178v-4.995l-8.573-6.925a.5.5 0 0 0-.628 0l-8.573 6.924z"/>
        <path fill="#3A4E6F" d="M48.346 20.758a4.514 4.514 0 0 1-.994-3.06 5.803 5.803 0 0 0-4.255-5.857 4.514 4.514 0 0 1-2.603-1.891 5.803 5.803 0 0 0-6.885-2.237 4.517 4.517 0 0 1-3.218 0 5.803 5.803 0 0 0-6.885 2.237 4.513 4.513 0 0 1-2.604 1.891 5.803 5.803 0 0 0-4.255 5.857 4.514 4.514 0 0 1-.994 3.06 5.803 5.803 0 0 0 0 7.24 4.514 4.514 0 0 1 .995 3.06 5.803 5.803 0 0 0 4.255 5.856c.58.157 1.118.427 1.585.788v18.465a.625.625 0 0 0 1.017.486L32 49.793l8.494 6.86a.625.625 0 0 0 1.018-.486V37.702a4.52 4.52 0 0 1 1.585-.788 5.803 5.803 0 0 0 4.255-5.856 4.514 4.514 0 0 1 .994-3.06 5.803 5.803 0 0 0 0-7.24zm-8.084 34.1l-7.87-6.355a.624.624 0 0 0-.785 0l-7.869 6.356V39.135l.006.008.027.034.01.013.026.034.011.014.026.033.012.014.027.033.008.01.031.037.003.003c.074.088.15.173.23.256l.003.003.035.036.007.007.03.031.012.012.031.031a.401.401 0 0 0 .01.01l.03.028.016.015.026.026.016.015.028.026.016.014.026.025.018.016.026.024.018.015.026.024.02.016.024.021.021.018.026.022.018.015.027.022.02.016.026.021.022.018.024.019.024.019.023.018.03.023.016.012.146.106.005.004.044.03.007.005.042.029.01.007.039.026.014.008.036.024.014.01a2.838 2.838 0 0 0 .087.054l.013.008.04.024.01.006.042.025.008.005a3.9 3.9 0 0 0 .044.025l.008.005a4.247 4.247 0 0 0 .1.056l.003.002a5.813 5.813 0 0 0 4.232.531l.058-.015.005-.001.054-.015.007-.002.051-.015a.115.115 0 0 1 .009-.003l.049-.014.011-.004.044-.013.018-.006.035-.011.024-.008.033-.011.025-.009.031-.01a.938.938 0 0 0 .028-.01l.02-.008a4.52 4.52 0 0 1 3.412.002l.015.005.04.014.02.007.038.013.02.007.04.013.017.005.044.014a.194.194 0 0 0 .011.004l.047.014.011.003a5.71 5.71 0 0 0 1.629.237c1.239 0 2.457-.399 3.455-1.134l.008-.006c.043-.031.086-.064.128-.097l.014-.01a6.457 6.457 0 0 0 .138-.113l.063-.054.017-.014.035-.031.02-.018.055-.049.023-.021.032-.03.025-.024a3.885 3.885 0 0 0 .073-.07l.029-.03.03-.03.04-.04.028-.03.026-.027.044-.048.023-.025.03-.033.023-.026a4.354 4.354 0 0 0 .099-.115l.017-.02.044-.055.02-.024.038-.048.016-.021.029-.038v15.725zm5.842-23.738a4.546 4.546 0 0 1-3.333 4.588 5.76 5.76 0 0 0-2.911 1.859l-.005.006a6.269 6.269 0 0 0-.115.141l-.013.016-.052.068-.009.012-.043.058-.016.022a16.02 16.02 0 0 0-.048.068l-.007.01-.043.062-.014.02a4.139 4.139 0 0 1-.16.235 4.553 4.553 0 0 1-4.862 1.726 4.486 4.486 0 0 1-.42-.136 5.772 5.772 0 0 0-4.107 0 4.55 4.55 0 0 1-5.443-1.828l-.01-.013-.05-.074a4.904 4.904 0 0 0-.053-.074l-.01-.014a6.262 6.262 0 0 0-.11-.144l-.007-.01a5.763 5.763 0 0 0-3.033-2.01 4.546 4.546 0 0 1-3.334-4.588 5.763 5.763 0 0 0-1.27-3.907 4.546 4.546 0 0 1 0-5.67 5.763 5.763 0 0 0 1.27-3.907 4.546 4.546 0 0 1 3.333-4.588 5.764 5.764 0 0 0 3.324-2.415 4.546 4.546 0 0 1 5.393-1.752 5.759 5.759 0 0 0 4.108 0 4.546 4.546 0 0 1 5.393 1.752 5.763 5.763 0 0 0 3.323 2.415 4.546 4.546 0 0 1 3.334 4.588 5.763 5.763 0 0 0 1.27 3.906 4.546 4.546 0 0 1 0 5.671 5.761 5.761 0 0 0-1.27 3.907z"/>
        <path fill="#F5A623" d="M31.078 14.65l-7.605 15.14a1.05 1.05 0 0 0 .936 1.52l15.155.027c.78.002 1.288-.818.94-1.516l-7.55-15.169a1.05 1.05 0 0 0-1.877-.003zm.912 14.43a1.18 1.18 0 1 1 .005-2.361 1.18 1.18 0 0 1-.005 2.361zm.007-3.651a1.18 1.18 0 0 1-1.179-1.182l.008-4.032a1.18 1.18 0 0 1 2.36.004l-.007 4.032a1.18 1.18 0 0 1-1.182 1.178z"/>
    </g>
</svg>
