<svg xmlns="http://www.w3.org/2000/svg" width="30" height="30" viewBox="0 0 30 30">
    <path fill="#6882AB" fill-rule="nonzero" d="M13.804 4.067a10.986 10.986 0 0 1 2.476.006c.82.096 1.422.813 1.373 1.634v.128c.022.465.309.884.738 1.064.432.18 1.052.04 1.366-.308a1.556 1.556 0 0 1 2.128-.171c.642.514 1.229 1.107 1.744 1.76.505.64.43 1.562-.17 2.111l-.096.099c-.3.344-.386.836-.214 1.258.186.454.632.75 1.146.75.772 0 1.544.559 1.636 1.38l.039.418c.051.697.037 1.396-.044 2.086-.098.821-.831 1.436-1.604 1.372l-.098-.003c-.482 0-.94.303-1.124.742-.197.47-.073 1.02.31 1.367l.108.108c.51.56.544 1.419.06 2.02a10.97 10.97 0 0 1-1.786 1.764 1.56 1.56 0 0 1-2.106-.181c-.315-.347-.928-.487-1.358-.312-.463.19-.766.663-.748 1.174l-.001.142a1.556 1.556 0 0 1-1.383 1.458 10.922 10.922 0 0 1-2.474-.006 1.555 1.555 0 0 1-1.375-1.635v-.127a1.217 1.217 0 0 0-.742-1.064c-.429-.18-1.048-.04-1.365.31a1.556 1.556 0 0 1-2.129.168 10.926 10.926 0 0 1-1.74-1.76 1.556 1.556 0 0 1 .17-2.11l.096-.1c.3-.344.387-.835.214-1.256a1.202 1.202 0 0 0-1.133-.75l-.136-.006c-.728-.06-1.427-.596-1.513-1.375a11.024 11.024 0 0 1 .005-2.505 1.534 1.534 0 0 1 1.57-1.371c.587 0 1.07-.3 1.254-.739a1.217 1.217 0 0 0-.31-1.369l-.107-.108a1.556 1.556 0 0 1-.06-2.017 10.94 10.94 0 0 1 1.784-1.762c.64-.5 1.56-.424 2.109.18.313.344.93.484 1.357.31.463-.19.767-.663.749-1.175l.001-.142a1.556 1.556 0 0 1 1.383-1.457zm1.02 1.935l-.419.019a3.223 3.223 0 0 1-1.977 2.671c-1.076.44-2.393.213-3.287-.524-.325.278-.63.579-.91.899.771.912.982 2.193.511 3.314-.455 1.085-1.493 1.809-2.717 1.942a9.027 9.027 0 0 0-.004 1.29 3.205 3.205 0 0 1 2.68 1.98 3.222 3.222 0 0 1-.516 3.284c.273.318.568.617.884.894.901-.745 2.228-.969 3.31-.515a3.217 3.217 0 0 1 1.96 2.72 8.964 8.964 0 0 0 1.255.003 3.222 3.222 0 0 1 1.977-2.67c1.08-.442 2.395-.215 3.287.523.324-.277.629-.578.91-.899a3.214 3.214 0 0 1-.512-3.313 3.243 3.243 0 0 1 2.72-1.957c.031-.425.032-.853.002-1.28l-.208-.027a3.21 3.21 0 0 1-2.472-1.95 3.226 3.226 0 0 1 .517-3.283 8.905 8.905 0 0 0-.884-.894c-.9.744-2.227.968-3.313.515a3.22 3.22 0 0 1-1.957-2.72 8.98 8.98 0 0 0-1.256-.003zM15 10c2.758 0 5 2.242 5 5s-2.242 5-5 5-5-2.242-5-5 2.242-5 5-5zm0 2c-1.653 0-3 1.347-3 3s1.347 3 3 3 3-1.347 3-3-1.347-3-3-3z" opacity=".496"/>
</svg>
