<svg xmlns="http://www.w3.org/2000/svg" xmlns:xlink="http://www.w3.org/1999/xlink" width="82" height="92" viewBox="0 0 82 92">
    <defs>
        <path id="3x0nycnxoa" d="M0.25 0.41L79.788 0.41 79.788 78.961 0.25 78.961z"/>
    </defs>
    <g fill="none" fill-rule="evenodd">
        <g transform="translate(1 13)">
            <mask id="26v35ei0db" fill="#fff">
                <use xlink:href="#3x0nycnxoa"/>
            </mask>
            <path fill="#E7EBF2" d="M5.775 48.344c.153-.088.295-.187.428-.294.093-.138.215-.253.358-.338.679-.744 1-1.775.813-2.804-.149-.826-.267-1.661-.352-2.497-.285.522-.71.97-1.247 1.28-1.961 1.138-4.484.004-4.888-2.235C.6 39.867.41 38.264.318 36.655c-.185 3.162.007 6.336.569 9.454.404 2.239 2.927 3.374 4.888 2.235zm56.563 19.05c-6.577 4.514-14.356 6.922-22.318 6.915-12.568 0-23.783-5.897-31.076-15.074l-4.467 2.593c-.244.144-.533.191-.81.13l-.861 3.236c-.263.985.792 1.797 1.67 1.287l4.467-2.593c7.294 9.177 18.51 15.074 31.077 15.074 7.962.007 15.741-2.401 22.318-6.915 1.76-1.203 1.903-3.657.506-5.076-.155.157-.325.3-.506.423zm16.88-8.411l-3.094-1.796-9.258 2.493c-.607.163-1.234-.198-1.397-.808v-.001l-2.375-8.906c-.588.13-1.044.732-.86 1.418l3.235 12.141c.163.611.788.974 1.396.81l12.078-3.253c.98-.264 1.155-1.588.275-2.098zm-3.647-6.77l1.627.945c1.716-4.526 2.593-9.33 2.589-14.172 0-.781-.021-1.559-.066-2.33-.312 5.415-1.724 10.712-4.15 15.557zM50.147 7.242c12.648 4.085 22.01 15.602 22.964 29.414.054-.767.08-1.542.08-2.323 0-14.835-9.69-27.432-23.044-31.744-.51-.166-.974-.453-1.351-.837-1.28 1.307-1.262 3.407.037 4.692.37.367.82.64 1.314.798zM33.49 6.293V1.64C18.316 4.697 6.847 18.194 6.847 34.333c0 .78.027 1.555.08 2.322C7.97 21.56 19.052 9.2 33.492 6.293h-.001zm-15.902 52.58l2.204-1.28c.879-.51.706-1.833-.275-2.097l-2.82-.76-1.97 1.144c.891 1.055 1.847 2.055 2.86 2.992zM33.49 11.624c0 1.022 1.226 1.532 1.946.81l8.843-8.889c.443-.446.443-1.172 0-1.617L42.769.41l-7.333 7.372c-.72.722-1.946.212-1.946-.81v4.653z" mask="url(#26v35ei0db)"/>
        </g>
        <path fill="#3A4E6F" d="M79.884 68.825c-.007.06-.038.069-.064.073l-12.132 3.278c-.037.01-.096-.022-.106-.062l-3.25-12.229c-.008-.027-.017-.057.03-.093.015-.014.034-.022.052-.022.019 0 .032.01.045.016l5.972 3.475c.505.294 1.15.122 1.442-.386.013-.023.025-.045.036-.068 2.29-4.709 3.475-9.886 3.465-15.13 0-15.103-9.598-28.358-23.88-32.984-.938-.299-1.575-1.176-1.575-2.167-.003-.733.345-1.424.936-1.852.57-.426 1.308-.55 1.983-.33 16.177 5.225 27.049 20.227 27.049 37.333 0 6.146-1.388 12.042-4.123 17.528-.252.505-.07 1.12.415 1.403l3.663 2.13c.022.014.051.03.043.087zm1.013-1.932l-2.807-1.636c2.588-5.492 3.923-11.499 3.91-17.578 0-8.923-2.79-17.424-8.064-24.583-5.097-6.917-12.36-12.166-20.454-14.78-1.317-.431-2.76-.194-3.872.637-1.139.827-1.81 2.158-1.804 3.573-.002 1.917 1.23 3.614 3.042 4.195 13.405 4.34 22.41 16.781 22.41 30.955 0 4.58-.93 9-2.77 13.159l-4.974-2.895c-.771-.45-1.735-.387-2.44.161-.708.546-1.018 1.468-.786 2.334l3.25 12.228c.153.572.516 1.05 1.026 1.346.505.297 1.106.377 1.67.224l12.133-3.278c.858-.23 1.496-.962 1.61-1.851.12-.89-.307-1.766-1.08-2.212v.001zm-18.077 13.2c-6.43 4.424-14.036 6.786-21.82 6.776-11.868 0-22.944-5.386-30.388-14.779-.326-.41-.902-.52-1.353-.258l-4.49 2.612c-.02.014-.049.03-.096-.007-.046-.035-.037-.067-.03-.093l3.251-12.227c.01-.04.068-.072.106-.061l12.132 3.275c.027.007.057.015.065.074.008.058-.021.075-.043.086l-5.088 2.963c-.505.293-.678.943-.388 1.452.032.055.07.109.111.159 6.56 7.79 16.113 12.257 26.21 12.257 6.87.008 13.58-2.073 19.257-5.97.746-.51 1.678-.556 2.432-.117.685.4 1.096 1.086 1.125 1.882.032.786-.344 1.534-.993 1.974v.001zm.925-5.702c-1.463-.851-3.254-.774-4.677.2-5.327 3.657-11.625 5.608-18.069 5.6-9.036 0-17.656-3.827-23.756-10.544l3.968-2.31c.773-.447 1.2-1.32 1.083-2.21-.114-.89-.752-1.623-1.612-1.853L8.548 59.997c-.564-.154-1.166-.075-1.672.222-.506.293-.874.778-1.025 1.346L2.6 73.795c-.232.866.079 1.787.787 2.333.705.547 1.668.61 2.439.161l3.71-2.158C17.374 83.592 28.789 89 40.999 89c8.21.011 16.23-2.481 23.011-7.147 1.25-.852 1.974-2.296 1.913-3.817-.052-1.513-.876-2.892-2.179-3.646h.001zM2.112 47.676c0-19.247 13.669-35.5 32.503-38.652.51-.085.884-.528.884-1.05V2.22c0-.027 0-.06.054-.082.012-.006.026-.01.04-.01.026 0 .042.017.054.028l8.882 8.952c.034.035.034.09 0 .126l-8.882 8.95c-.019.019-.043.041-.094.019-.054-.023-.054-.056-.054-.08V14.75c0-.586-.472-1.064-1.054-1.066-.071 0-.141.008-.211.02C18.236 16.939 6.625 31.223 6.625 47.677c0 2.061.184 4.13.544 6.154.163.936-.275 1.874-1.092 2.348-.641.377-1.426.413-2.096.093-.655-.297-1.12-.902-1.247-1.613-.414-2.304-.622-4.64-.622-6.98v-.002zm2.827 10.938c.76 0 1.517-.198 2.193-.59 1.59-.925 2.436-2.751 2.118-4.572-.341-1.906-.513-3.839-.513-5.776 0-15.003 10.291-28.088 24.647-31.6v4.045c0 .9.534 1.705 1.36 2.05.822.345 1.769.155 2.398-.481l8.882-8.952c.857-.863.857-2.272 0-3.135L37.142.65c-.63-.635-1.576-.826-2.399-.482-.824.342-1.361 1.152-1.359 2.05v4.862C24.267 8.818 15.94 13.679 9.852 20.839 1.84 30.266-1.538 42.824.654 55.039c.245 1.395 1.156 2.58 2.437 3.164.588.276 1.219.41 1.849.41h-.001z"/>
        <path fill="#009CDE" d="M43.508 50.03l-.705-.095.319 7.74c1.185-.258 2.154-.715 2.865-1.496.63-.693 1.09-1.546 1.033-2.921-.087-2.122-1.728-2.97-3.512-3.229zm-4.23-12.664c-1.103.214-2.198.677-2.987 1.503-.634.651-1.048 1.587-1.004 2.668.079 1.914 1.31 2.78 3.05 2.999.414.066.83.132 1.242.156l-.3-7.326zm10.607 21.401c-1.615 1.82-3.92 2.915-6.582 3.32l.156 3.787-3.003.126-.155-3.745c-2.6-.1-5.022-.873-7.116-2.661-1.706-1.43-3.034-3.665-3.185-6.286l5.062-.212c.1 1.412.768 2.636 1.665 3.432.985.874 2.154 1.243 3.393 1.314l-.338-8.24c-.662-.055-1.366-.108-2.029-.206-4.472-.52-7.306-3.279-7.48-7.523-.09-2.205.863-4.08 2.284-5.6 1.538-1.69 3.795-2.91 6.541-3.275l-.158-3.871L41.943 29l.163 3.954c2.315.195 4.408.983 5.99 2.333 1.708 1.47 2.907 3.546 3.083 5.831l-5.06.214c-.083-.998-.705-2.097-1.392-2.776-.602-.6-1.483-.98-2.44-1.19l.314 7.617 1.406.149c4.225.489 7.791 3.007 7.984 7.71.108 2.622-.807 4.453-2.106 5.925z"/>
    </g>
</svg>
