<svg xmlns="http://www.w3.org/2000/svg" xmlns:xlink="http://www.w3.org/1999/xlink" width="95" height="94" viewBox="0 0 95 94">
    <defs>
        <path id="d9xugcfp4a" d="M0.001 0.182L94.662 0.182 94.662 93 0.001 93z"/>
    </defs>
    <g fill="none" fill-rule="evenodd">
        <path fill="#E7EBF2" d="M42.361 80.964L11.036 49.64C4.55 43.157 4.268 32.82 10.186 26c-.147.107-.288.224-.421.358l-3.68 3.68c-6.78 6.78-6.78 17.774 0 24.554L37.41 85.914c6.78 6.781 17.773 6.781 24.555 0l3.68-3.68c.132-.132.25-.271.356-.418-6.822 5.916-17.157 5.632-23.64-.851l.001-.001z"/>
        <path fill="#E7EBF2" d="M65.093 40.699c-7.423 0-13.897-4.037-17.333-10.024-.231-.414-.665-.671-1.14-.675h-.129c-.748 0-1.353.63-1.3 1.372.708 10.331 9.349 18.492 19.902 18.492 10.556 0 19.197-8.16 19.905-18.492.043-.713-.5-1.324-1.216-1.37-.028-.002-.056-.003-.084-.002h-.13c-.474 0-.904.263-1.139.673-3.436 5.99-9.913 10.026-17.336 10.026zM43.997 68.35l.838-.834 18.414 18.338-.936.932c-.434.434-.887.837-1.352 1.214L42.167 69.289c.693-.116 1.334-.443 1.83-.939zM25.572 48.338l-.836.832c-.518.516-.829 1.156-.943 1.823L5 32.28c.38-.464.785-.913 1.221-1.347L7.158 30l18.414 18.336v.002z"/>
        <path fill="#E7EBF2" d="M44.054 49.947c-.725-.714-1.41-1.468-2.054-2.253 11.259 8.95 27.795 8.28 38.258-2.023C90.721 35.367 91.404 19.084 82.313 8c.799.633 1.563 1.308 2.289 2.023 11.197 11.024 11.197 28.898 0 39.924-4.058 4.008-9.25 6.715-14.895 7.768L64.274 69l.946-10.806c-7.632.234-15.342-2.511-21.166-8.246v-.001z"/>
        <mask id="wztfanf22b" fill="#fff">
            <use xlink:href="#d9xugcfp4a"/>
        </mask>
        <path fill="#3A4E6F" d="M86.28 29.655c0 11.631-9.464 21.094-21.094 21.094s-21.091-9.463-21.091-21.093c0-.617.499-1.114 1.113-1.114.615 0 1.113.497 1.113 1.114 0 10.403 8.463 18.868 18.865 18.868 10.403 0 18.867-8.465 18.867-18.868 0-.617.498-1.114 1.114-1.114.614 0 1.113.497 1.113 1.114v-.001zm-1.816 19.299c-3.857 3.87-8.795 6.484-14.162 7.5-.35.067-.646.296-.8.618l-4.37 9.222-4.38-9.244c-.152-.32-.448-.548-.795-.614-5.325-1.034-10.218-3.64-14.048-7.482-10.629-10.632-10.629-27.93 0-38.56C51.223 5.08 58.204 2.42 65.185 2.42s13.962 2.659 19.279 7.975c10.63 10.628 10.63 27.927 0 38.559zM86.039 8.82C80.519 3.27 73.01.16 65.185.182c-7.876 0-15.282 3.068-20.85 8.638-11.499 11.499-11.499 30.208 0 41.706 4.036 4.04 9.091 6.792 14.643 7.982l5.149 10.861c.261.556.925.794 1.48.533.233-.11.421-.298.531-.533l5.138-10.84c5.595-1.17 10.726-3.953 14.763-8.003 11.497-11.498 11.497-30.207 0-41.706zM65.314 82.286l-3.7 3.702c-3.086 3.086-7.19 4.786-11.557 4.786-4.334.012-8.495-1.713-11.553-4.786L7.013 54.493c-3.089-3.088-4.786-7.191-4.786-11.555 0-4.367 1.697-8.47 4.786-11.56l3.699-3.699c.429-.428 1.008-.67 1.614-.668.608 0 1.181.239 1.611.668L27.58 41.323c.888.892.888 2.335 0 3.227l-3.6 3.6c-.847.844-1.322 1.991-1.319 3.188-.003 1.196.472 2.344 1.32 3.187l14.49 14.492c.844.847 1.991 1.323 3.188 1.321 1.196.004 2.343-.474 3.186-1.32l3.6-3.601c.892-.89 2.334-.89 3.226 0L65.314 79.06c.431.431.668 1.003.668 1.613 0 .61-.237 1.18-.668 1.612zM53.246 63.842c-1.763-1.756-4.613-1.756-6.375 0l-3.6 3.6c-.427.43-1.006.67-1.612.67-.61 0-1.181-.238-1.614-.67L25.555 52.95c-.89-.89-.89-2.335 0-3.227l3.601-3.6c1.758-1.76 1.758-4.614 0-6.374L15.512 26.105c-.843-.85-1.992-1.325-3.186-1.322-1.196-.003-2.343.474-3.188 1.322l-3.699 3.7C1.945 33.28-.014 38.007.001 42.935c0 4.96 1.93 9.624 5.438 13.131l31.488 31.495c3.475 3.494 8.203 5.453 13.13 5.44 4.962 0 9.624-1.933 13.132-5.44l3.7-3.7c.848-.844 1.323-1.992 1.32-3.188.003-1.197-.472-2.346-1.32-3.189L53.247 63.842h-.001z" mask="url(#wztfanf22b)"/>
        <path fill="#009CDE" d="M54.212 36.952c1.202-.653 2.477-1.16 3.799-1.514-.649-2.257-.988-4.591-1.01-6.938H51c.109 3.096 1.239 6.067 3.212 8.452zm.96 1.048c.093.091.187.184.281.274l.255.227c.097.086.194.173.293.257l.264.213c.1.08.2.161.307.24.09.068.181.133.273.2.196.142.397.278.6.41.31.2.629.388.956.561.1.05.2.105.3.154.213.11.433.213.653.31.12.052.239.1.36.15.223.091.45.177.677.256.105.036.208.073.314.107.125.04.25.078.379.115.105.031.208.062.313.09.04.011.083.02.122.03-1.481-1.441-2.58-3.23-3.198-5.203-1.187.313-2.338.756-3.428 1.321l.042.047c.076.082.156.16.237.241zm6.344-23.594l-.123.03c-.105.027-.209.059-.314.09-.127.037-.251.073-.377.114-.106.035-.21.07-.317.108-.12.043-.245.086-.365.132-.105.04-.208.082-.313.124l-.355.15c-.542.242-1.07.517-1.58.823-.415.247-.815.517-1.2.809-.103.077-.2.158-.302.238-.09.07-.181.14-.268.216-.1.081-.195.168-.292.253-.084.076-.17.151-.255.23-.095.089-.187.181-.28.273-.08.08-.163.158-.242.24l-.044.047c1.092.566 2.242 1.01 3.43 1.322.617-1.972 1.715-3.759 3.197-5.199zm2.984 7.062c-1.856-.026-3.705-.246-5.513-.66-.629 2.176-.96 4.425-.987 6.69h6.5v-6.03zm0-7.468c-2.141.304-4.02 2.543-5.2 5.85 1.707.385 3.45.59 5.2.614V14zm0 14.501H58c.027 2.264.357 4.515.987 6.69 1.81-.413 3.657-.634 5.513-.659v-6.03zM64.5 42v-6.465c-1.75.025-3.493.23-5.2.613 1.18 3.307 3.059 5.545 5.2 5.85V42zM51 27.498h6c.023-2.347.361-4.68 1.01-6.937-1.321-.353-2.596-.861-3.798-1.514-1.973 2.383-3.103 5.355-3.212 8.45zm24.11-9.213c-.013-.014-.027-.03-.043-.045-.078-.082-.16-.16-.241-.24-.094-.092-.186-.185-.282-.274-.08-.077-.167-.15-.253-.228-.097-.086-.194-.173-.294-.256-.087-.074-.174-.143-.262-.213-.188-.153-.382-.3-.58-.441-.3-.218-.609-.422-.926-.612-.207-.125-.417-.244-.63-.358-.1-.05-.2-.105-.3-.154-.116-.059-.232-.115-.35-.17-.101-.048-.203-.095-.306-.14-.118-.052-.238-.1-.356-.15-.327-.134-.657-.255-.992-.363-.127-.04-.253-.08-.379-.116l-.315-.089-.12-.03c1.48 1.441 2.58 3.23 3.198 5.204 1.189-.314 2.34-.758 3.432-1.323v-.002zm.678.76c-1.204.655-2.478 1.163-3.799 1.516.647 2.257.987 4.59 1.012 6.938H79c-.11-3.096-1.239-6.069-3.212-8.452v-.001zM65.5 34.533c1.856.025 3.704.246 5.514.659.628-2.176.96-4.426.984-6.69H65.5v6.031zM65.5 14v6.464c1.749-.025 3.491-.23 5.198-.613-1.181-3.308-3.058-5.546-5.198-5.851zm0 13.498h6.498c-.025-2.265-.356-4.514-.984-6.69-1.81.414-3.659.634-5.514.659v6.03zM79 28.5h-6c-.024 2.347-.362 4.68-1.01 6.937 1.32.353 2.594.86 3.798 1.514 1.973-2.383 3.102-5.355 3.212-8.45zM68.92 41.474c.127-.038.253-.074.38-.115.104-.035.21-.07.312-.108.124-.042.245-.086.37-.13l.31-.126.355-.15c.323-.145.64-.3.952-.467.424-.228.837-.477 1.237-.745.107-.07.211-.145.316-.219l.275-.2.305-.238c.088-.07.176-.142.263-.216.1-.083.197-.17.294-.255l.253-.228c.096-.09.19-.182.283-.273.081-.081.163-.16.24-.241l.044-.047c-1.09-.565-2.24-1.009-3.428-1.322-.617 1.973-1.717 3.762-3.198 5.204.04-.012.082-.02.12-.03.109-.031.214-.064.318-.094zM65.5 42c2.142-.305 4.018-2.545 5.2-5.852-1.708-.384-3.45-.588-5.2-.613V42z"/>
    </g>
</svg>
