<svg xmlns="http://www.w3.org/2000/svg" xmlns:xlink="http://www.w3.org/1999/xlink" width="91" height="91" viewBox="0 0 91 91">
    <defs>
        <path id="e72ug8uaba" d="M0 0L91 0 91 91 0 91z"/>
    </defs>
    <g fill="none" fill-rule="evenodd">
        <path fill="#009CDE" d="M48.37 46.824l-.637-.104.068 6.922c1.084-.197 1.979-.578 2.647-1.254.592-.601 1.034-1.35 1.022-2.579-.019-1.898-1.487-2.703-3.1-2.985zm-3.482-11.43c-1.01.16-2.018.541-2.76 1.256-.592.564-.997 1.388-.987 2.356.017 1.71 1.11 2.519 2.687 2.764.374.072.75.141 1.124.175l-.064-6.55zm9.028 19.417c-1.518 1.578-3.645 2.49-6.076 2.776l.034 3.386L45.14 61l-.033-3.35c-2.362-.163-4.54-.923-6.392-2.579-1.51-1.326-2.654-3.362-2.716-5.705l4.606-.045c.05 1.264.623 2.375 1.417 3.111.868.81 1.922 1.173 3.045 1.273l-.073-7.368c-.6-.068-1.237-.137-1.837-.243-4.05-.594-6.547-3.138-6.584-6.933-.019-1.972.9-3.619 2.235-4.935 1.446-1.466 3.533-2.49 6.04-2.739l-.035-3.46L47.548 28l.035 3.534c2.099.242 3.98 1.005 5.378 2.256 1.51 1.362 2.54 3.25 2.635 5.297l-4.605.045c-.047-.893-.581-1.893-1.186-2.52-.53-.552-1.32-.917-2.183-1.132l.067 6.81 1.275.174c3.825.559 6.995 2.91 7.036 7.115.024 2.345-.86 3.954-2.084 5.232z"/>
        <mask id="9c5gqri56b" fill="#fff">
            <use xlink:href="#e72ug8uaba"/>
        </mask>
        <path fill="#3A4E6F" d="M45.5 88.156C21.94 88.156 2.843 69.058 2.843 45.5S21.941 2.844 45.5 2.844c23.559 0 42.656 19.098 42.656 42.656S69.059 88.156 45.5 88.156m0 2.844C70.63 91 91 70.63 91 45.5S70.63 0 45.5 0 0 20.371 0 45.5 20.37 91 45.5 91" mask="url(#9c5gqri56b)"/>
        <path fill="#E7EBF2" d="M45 64.754C27.503 64.754 12.845 52.485 8.991 36 8.331 38.827 8 41.72 8 44.624 8 65.266 24.565 82 45 82s37-16.734 37-37.376c0-2.969-.342-5.856-.99-8.624C77.157 52.485 62.497 64.754 45 64.754"/>
        <path fill="#3A4E6F" d="M45 79.154c-18.864 0-34.154-15.291-34.154-34.154 0-18.863 15.29-34.154 34.154-34.154 18.863 0 34.154 15.291 34.154 34.154 0 18.863-15.291 34.154-34.154 34.154M45 8C24.564 8 8 24.565 8 45s16.564 37 37 37c20.428 0 37-16.565 37-37S65.428 8 45 8"/>
    </g>
</svg>
