<svg xmlns="http://www.w3.org/2000/svg" xmlns:xlink="http://www.w3.org/1999/xlink" width="111" height="91" viewBox="0 0 111 91">
    <defs>
        <path id="bxakwkdg5a" d="M0.033 0.261L94.172 0.261 94.172 79 0.033 79z"/>
        <path id="pabge8e94c" d="M0 0.393L107.884 0.393 107.884 62.828 0 62.828z"/>
    </defs>
    <g fill="none" fill-rule="evenodd">
        <path fill="#3A4E6F" d="M44.665 33.15l.898.99c1.237 1.356 2.5 2.687 3.788 3.993v2.734l-.658.672-.8.829c-.888.928-1.763 1.868-2.627 2.82l-.603.663c-.706-.861-1.017-1.429-1.255-2.262l.1-.228.107-.232c.385-.805.887-1.572 1.953-3.029l.44-.6-.599-.818-.303-.422c-.859-1.21-1.27-1.916-1.692-2.848.267-.86.582-1.44 1.25-2.261zm-.31 6.35l-.298.414-.309.435c-.822 1.176-1.22 1.887-1.6 2.803l-.142.344.055.213c.335 1.305.784 2.083 1.92 3.4l.659.753 1.889-2.082.82-.89c.922-.995 1.86-1.977 2.81-2.943l.524-.533v-3.828l-.842-.857-.713-.736c-.88-.912-1.746-1.837-2.6-2.773l-1.888-2.081-.493.56c-1.204 1.376-1.684 2.18-2.081 3.576l-.066.23.097.22c.549 1.259 1.041 2.097 2.259 3.775zm15.498 8.836l-.45-.406c-1.253-1.133-2.482-2.29-3.685-3.474l-.835-.818h-2.73l-.622.613c-1.104 1.078-2.224 2.139-3.363 3.18l-.99.901c.86.708 1.427 1.02 2.26 1.256l.246-.106c.85-.385 1.59-.853 3.043-1.913l.792-.583.61.45c1.472 1.077 2.25 1.569 3.196 2.018l.275.13c.857-.267 1.436-.583 2.252-1.248h.001zm-5.897.62l-.437-.316-.412.3c-1.446 1.038-2.212 1.487-3.232 1.913l-.345.141-.214-.055c-1.3-.336-2.077-.785-3.392-1.923l-.752-.66 2.077-1.892.718-.661c.941-.872 1.87-1.757 2.786-2.656l.856-.843h3.82l1.31 1.286.614.597c1.067 1.035 2.154 2.05 3.262 3.043l1.259 1.12-.769.675c-1.252 1.08-2.044 1.532-3.368 1.91l-.23.065-.552-.245c-.975-.447-1.744-.904-2.998-1.799h-.001zm-6.808-18.292l.672.606.505.462c1 .923 1.986 1.86 2.959 2.812l.833.82h2.728l.625-.614c1.103-1.078 2.225-2.139 3.363-3.18l.988-.902c-.86-.708-1.426-1.02-2.258-1.256l-.26.112c-.807.367-1.519.813-2.841 1.771l-.981.72-.815-.6c-1.476-1.072-2.233-1.53-3.266-1.999-.79.248-1.344.535-2.068 1.1l-.184.148zm5.895-.62l.438.316.41-.298c1.447-1.039 2.215-1.488 3.234-1.915l.344-.14.397.103c1.255.348 2.035.837 3.404 2.042l.56.492-1.764 1.605-.799.732c-1.02.942-2.027 1.9-3.019 2.873l-.858.843h-3.82l-.768-.758-.883-.862c-1.228-1.196-2.482-2.366-3.76-3.509l-1.033-.917.769-.675c1.183-1.021 1.955-1.479 3.152-1.846l.446-.13.218.096c1.143.5 1.938.953 3.332 1.948zm9.294 15.807l-1.262-1.387-.754-.819c-.866-.934-1.746-1.86-2.634-2.775V38.13l.687-.712.767-.804c.733-.774 1.458-1.554 2.175-2.342l1.02-1.124c.707.861 1.02 1.43 1.255 2.263l-.098.227-.108.232c-.385.805-.887 1.572-1.953 3.03l-.44.599.599.818.303.422c.859 1.21 1.272 1.917 1.69 2.85-.265.859-.58 1.438-1.247 2.26zm.307-6.351l.299-.412c1.037-1.45 1.485-2.216 1.91-3.238l.14-.346-.054-.213c-.335-1.304-.784-2.082-1.92-3.4l-.659-.752-1.936 2.135-.875.954c-.875.946-1.761 1.883-2.658 2.808l-.535.553v3.822l.865.896.74.773c.936.985 1.86 1.98 2.773 2.988l1.626 1.794.492-.561c1.206-1.375 1.684-2.18 2.082-3.576l.066-.23-.245-.554c-.496-1.083-1.003-1.915-2.11-3.441z"/>
        <path fill="#009CDE" d="M69.806 53.88l-5.642-5.642 3.385-2.27c.478-.319.346-1.058-.217-1.191l-11.515-2.759c-.357-.084-.714.135-.798.491-.025.1-.025.206-.001.307l2.757 11.517c.134.561.873.694 1.194.214l2.27-3.382 5.64 5.641c.259.259.68.259.937 0l1.99-1.989c.259-.259.259-.678 0-.936"/>
        <g transform="translate(15 12)">
            <mask id="6izpzbsasb" fill="#fff">
                <use xlink:href="#bxakwkdg5a"/>
            </mask>
            <path fill="#E7EBF2" d="M79.614 11.428c-6.883 0-12.65-4.764-14.167-11.167-.26 1.098-.39 2.222-.39 3.35 0 8.017 6.517 14.515 14.557 14.515S94.172 11.628 94.172 3.61c0-1.153-.133-2.274-.388-3.348-1.516 6.4-7.284 11.166-14.169 11.166h-.001zM69.383 79H8.016c-1.17.003-2.12-.943-2.121-2.11-.003-1.166.945-2.113 2.115-2.116h61.373c1.17 0 2.12.944 2.12 2.111C71.507 78.051 70.56 79 69.39 79h-.006zM.033 52.776h77.331v-4.35H.034v4.35z" mask="url(#6izpzbsasb)"/>
        </g>
        <path fill="#3A4E6F" d="M9.217 68c.673 0 1.218-.54 1.218-1.207V15.621c0-.665.546-1.207 1.217-1.207h64.15c.674 0 1.218-.54 1.218-1.207 0-.668-.544-1.207-1.218-1.207h-64.15C9.64 12 8 13.624 8 15.62v51.173C8 67.46 8.545 68 9.217 68m89.348-33.506v32.3c0 .665.546 1.206 1.218 1.206.672 0 1.217-.54 1.217-1.207V34.494c0-.666-.545-1.207-1.217-1.207s-1.218.54-1.218 1.207"/>
        <g transform="translate(0 17)">
            <mask id="ps1k6idgfd" fill="#fff">
                <use xlink:href="#pabge8e94c"/>
            </mask>
            <path fill="#3A4E6F" d="M102.722 60.404H5.159c-1.513-.003-2.739-1.232-2.74-2.748.002-1.514 1.229-2.742 2.74-2.744h97.563c1.513.002 2.74 1.229 2.743 2.744-.002 1.517-1.229 2.745-2.743 2.748m0-7.915H5.159C2.311 52.493.002 54.805 0 57.657c.005 2.855 2.313 5.166 5.16 5.171h97.563c2.848-.003 5.158-2.316 5.162-5.17-.004-2.854-2.314-5.165-5.162-5.17M76.316 1.605c0-.668-.54-1.211-1.21-1.211H15.4c-.668 0-1.21.543-1.21 1.211v46.039c0 .67.542 1.211 1.21 1.211h77.082c.667 0 1.209-.541 1.209-1.211V16.916c0-.669-.542-1.212-1.21-1.212-.668 0-1.209.543-1.209 1.212V46.43H16.61V2.816h58.498c.668 0 1.21-.543 1.21-1.212" mask="url(#ps1k6idgfd)"/>
        </g>
        <path fill="#3A4E6F" d="M95 2.385c7.465 0 13.538 5.883 13.538 13.116 0 7.231-6.073 13.114-13.537 13.114S81.462 22.733 81.462 15.5c0-7.233 6.075-13.116 13.539-13.116h-.002zM95 31c8.823 0 16-6.952 16-15.5C111 6.955 103.823 0 95 0c-8.822 0-16 6.952-16 15.5S86.178 31 95 31z"/>
        <path fill="#3A4E6F" d="M101.693 13.03l-6.703 7.548c-.235.267-.579.42-.94.422h-.004c-.361 0-.702-.15-.94-.414l-3.792-4.208c-.459-.507-.409-1.282.11-1.731.519-.448 1.31-.398 1.769.11l2.846 3.157 5.763-6.492c.454-.511 1.244-.565 1.767-.123.522.446.577 1.22.125 1.73h-.001z"/>
    </g>
</svg>
