<svg xmlns="http://www.w3.org/2000/svg" id="Amazon_logo" width="96.67" height="29.132" viewBox="0 0 96.67 29.132">
    <defs>
        <style>
            .cls-1{fill:#fff;fill-rule:evenodd}
        </style>
    </defs>
    <path id="path8" d="M187.063 196.463c-5.618 4.141-13.76 6.35-20.771 6.35a37.585 37.585 0 0 1-25.374-9.683c-.526-.475-.055-1.124.576-.753a51.069 51.069 0 0 0 25.387 6.733 50.482 50.482 0 0 0 19.365-3.96c.951-.4 1.746.623.816 1.313" class="cls-1" transform="translate(-127.091 -173.681)"/>
    <path id="path10" d="M578.914 184.349c-.715-.917-4.747-.433-6.556-.219-.551.067-.635-.412-.139-.757 3.211-2.26 8.479-1.607 9.093-.85s-.16 6.043-3.177 8.563c-.463.387-.9.181-.7-.332.677-1.692 2.2-5.483 1.477-6.4" class="cls-1" transform="translate(-516.607 -164.239)"/>
    <path id="path12" d="M572.8 7.192V5a.542.542 0 0 1 .555-.555h9.834a.547.547 0 0 1 .568.555v1.877a3.094 3.094 0 0 1-.741 1.38l-5.1 7.276a10.858 10.858 0 0 1 5.609 1.2 1 1 0 0 1 .522.854v2.344c0 .32-.353.694-.724.5a11.328 11.328 0 0 0-10.39.017c-.341.185-.7-.185-.7-.5v-2.227a2.656 2.656 0 0 1 .362-1.511l5.9-8.466h-5.138a.544.544 0 0 1-.568-.551" class="cls-1" transform="translate(-516.919 -4.011)"/>
    <path id="path14" d="M173.988 18.263H171a.565.565 0 0 1-.534-.509V2.4a.562.562 0 0 1 .576-.551h2.79a.563.563 0 0 1 .543.513v2.006h.055a3.949 3.949 0 0 1 3.939-2.845c1.873 0 3.042.9 3.884 2.845a4.419 4.419 0 0 1 7.6-1.166c.947 1.292.753 3.169.753 4.814v9.691a.565.565 0 0 1-.577.555h-2.988a.569.569 0 0 1-.539-.555V9.569a19.216 19.216 0 0 0-.084-2.878 1.558 1.558 0 0 0-1.759-1.321 1.987 1.987 0 0 0-1.788 1.258 9.3 9.3 0 0 0-.278 2.941v8.138a.565.565 0 0 1-.577.555h-2.988a.566.566 0 0 1-.539-.555V9.569c0-1.713.282-4.233-1.843-4.233-2.15 0-2.066 2.457-2.066 4.233v8.138a.565.565 0 0 1-.576.555" class="cls-1" transform="translate(-153.983 -1.376)"/>
    <path id="path16" d="M716.044 1.524c4.439 0 6.842 3.812 6.842 8.66 0 4.683-2.655 8.4-6.842 8.4-4.359 0-6.733-3.812-6.733-8.563 0-4.78 2.4-8.5 6.733-8.5m.025 3.135c-2.2 0-2.344 3-2.344 4.877s-.029 5.883 2.319 5.883c2.319 0 2.428-3.232 2.428-5.2a14.2 14.2 0 0 0-.446-4.073 1.871 1.871 0 0 0-1.957-1.485" class="cls-1" transform="translate(-640.742 -1.376)"/>
    <path id="path18" d="M876.373 18.263h-2.979a.569.569 0 0 1-.539-.555V2.349a.566.566 0 0 1 .577-.5h2.768a.573.573 0 0 1 .534.429v2.347h.055c.837-2.1 2.011-3.1 4.077-3.1a3.925 3.925 0 0 1 3.493 1.809c.783 1.229.783 3.295.783 4.78v9.666a.575.575 0 0 1-.576.484h-3a.567.567 0 0 1-.53-.484V9.439c0-1.679.194-4.136-1.873-4.136a1.956 1.956 0 0 0-1.729 1.229 6.8 6.8 0 0 0-.475 2.908v8.269a.575.575 0 0 1-.585.555" class="cls-1" transform="translate(-788.473 -1.376)"/>
    <path id="path28" d="M414.553 9.552a5.853 5.853 0 0 1-.56 3.173 2.431 2.431 0 0 1-2.07 1.359c-1.149 0-1.822-.875-1.822-2.167 0-2.55 2.285-3.013 4.452-3.013v.648m3.017 7.292a.625.625 0 0 1-.707.072 7.291 7.291 0 0 1-1.717-1.995 5.925 5.925 0 0 1-4.932 2.176c-2.521 0-4.477-1.553-4.477-4.662a5.078 5.078 0 0 1 3.19-4.89 20.731 20.731 0 0 1 5.626-1.039v-.387a3.816 3.816 0 0 0-.366-2.167 1.992 1.992 0 0 0-1.679-.778 2.276 2.276 0 0 0-2.4 1.8.626.626 0 0 1-.522.547l-2.9-.311a.527.527 0 0 1-.446-.627C406.9 1.061 410.084 0 412.928 0a6.783 6.783 0 0 1 4.507 1.49c1.456 1.359 1.317 3.173 1.317 5.146V11.3a4.092 4.092 0 0 0 1.128 2.773.566.566 0 0 1-.013.8c-.61.509-1.7 1.456-2.293 1.986v-.008" class="cls-1" transform="translate(-366.515)"/>
    <path id="path30" d="M8.816 9.552a5.853 5.853 0 0 1-.56 3.173 2.426 2.426 0 0 1-2.07 1.359c-1.149 0-1.818-.875-1.818-2.167 0-2.55 2.285-3.013 4.448-3.013v.648m3.017 7.292a.625.625 0 0 1-.707.072 7.366 7.366 0 0 1-1.717-1.995A5.92 5.92 0 0 1 4.477 17.1C1.961 17.1 0 15.544 0 12.435a5.084 5.084 0 0 1 3.19-4.89 20.731 20.731 0 0 1 5.626-1.039v-.387a3.849 3.849 0 0 0-.362-2.167 2 2 0 0 0-1.679-.778 2.281 2.281 0 0 0-2.407 1.8.626.626 0 0 1-.518.547L.95 5.21a.53.53 0 0 1-.45-.632C1.17 1.061 4.347 0 7.191 0A6.783 6.783 0 0 1 11.7 1.49c1.456 1.359 1.317 3.173 1.317 5.146V11.3a4.092 4.092 0 0 0 1.128 2.773.562.562 0 0 1-.008.8c-.61.509-1.7 1.456-2.293 1.986l-.008-.008" class="cls-1"/>
</svg>
