<svg xmlns="http://www.w3.org/2000/svg" width="111.047" height="37.985" viewBox="0 0 111.047 37.985">
    <defs>
        <style>
            .cls-1{fill:#fff}
        </style>
    </defs>
    <g id="apple-11" transform="translate(.027)">
        <path id="Path_13041" d="M25.8 210.957a8.579 8.579 0 0 1 4.106-7.226 8.874 8.874 0 0 0-6.947-3.767c-2.956-.3-5.769 1.741-7.272 1.741s-3.817-1.7-6.269-1.65a9.3 9.3 0 0 0-7.863 4.761c-3.345 5.8-.852 14.416 2.415 19.131 1.6 2.3 3.5 4.9 6 4.807 2.41-.1 3.318-1.558 6.223-1.558s3.725 1.558 6.269 1.512c2.589-.05 4.229-2.355 5.815-4.669a21.175 21.175 0 0 0 2.626-5.407 8.379 8.379 0 0 1-5.1-7.675" class="cls-1" transform="translate(0 -190.772)"/>
        <path id="Path_13042" d="M341.213 6.067A8.367 8.367 0 0 0 343.193 0a8.507 8.507 0 0 0-5.593 2.882 7.935 7.935 0 0 0-2.012 5.874 7.048 7.048 0 0 0 5.627-2.69m21.535 18.843l-2.2 6.667h-2.827l7.2-21.188h3.3l7.226 21.188h-2.923l-2.264-6.667zm6.947-2.14l-2.071-6.1c-.472-1.384-.784-2.639-1.1-3.867h-.06c-.316 1.256-.66 2.543-1.068 3.835l-2.071 6.126zm7.9-1.443c0-1.947-.06-3.524-.128-4.967h2.484l.128 2.612h.06a5.98 5.98 0 0 1 5.407-2.956c3.68 0 6.443 3.111 6.443 7.735 0 5.471-3.331 8.17-6.915 8.17a5.336 5.336 0 0 1-4.683-2.387h-.06V37.8h-2.736zm2.731 4.055a5.731 5.731 0 0 0 .128 1.132 4.273 4.273 0 0 0 4.151 3.24c2.923 0 4.623-2.387 4.623-5.879 0-3.052-1.6-5.654-4.527-5.654a4.425 4.425 0 0 0-4.184 3.428 4.4 4.4 0 0 0-.188 1.132v2.6zm14.521-4.055c0-1.947-.06-3.524-.128-4.967h2.479l.128 2.612h.06a5.98 5.98 0 0 1 5.407-2.956c3.68 0 6.443 3.111 6.443 7.735 0 5.471-3.331 8.17-6.915 8.17a5.336 5.336 0 0 1-4.683-2.387h-.06V37.8h-2.736zm2.736 4.055a5.734 5.734 0 0 0 .128 1.132 4.273 4.273 0 0 0 4.152 3.24c2.923 0 4.623-2.387 4.623-5.879 0-3.052-1.6-5.654-4.527-5.654a4.425 4.425 0 0 0-4.184 3.428 4.4 4.4 0 0 0-.188 1.132v2.6zM412.1 9.256h2.768v22.316H412.1zm8.331 15.213c.06 3.739 2.452 5.283 5.215 5.283a10 10 0 0 0 4.211-.784l.472 1.98a12.3 12.3 0 0 1-5.059.944c-4.683 0-7.483-3.079-7.483-7.671s2.7-8.207 7.134-8.207c4.967 0 6.287 4.367 6.287 7.167a9.379 9.379 0 0 1-.1 1.288h-10.677zm8.111-1.98c.032-1.76-.724-4.5-3.835-4.5-2.8 0-4.023 2.58-4.243 4.5z" class="cls-1" transform="translate(-320.188)"/>
    </g>
</svg>
