<svg xmlns="http://www.w3.org/2000/svg" width="28" height="28" viewBox="0 0 28 28">
    <g fill="none" fill-rule="nonzero">
        <path fill="#009CDE" d="M25.113 23.226c1.403-1.597 1.984-2.516 2.468-4.21-.678-1.548-1.258-2.564-3.146-5.129 1.888-2.564 2.517-3.58 3.146-5.129-.436-1.693-1.065-2.613-2.468-4.21-1.936 2.13-3.532 3.92-6.774 7.258v4.162c3.242 3.338 4.838 5.129 6.774 7.258z"/>
        <path fill="#293038" d="M4.5 2.661C6.097 1.258 7.016.677 8.71.194c1.548.677 2.564 1.258 5.129 3.145 2.564-1.887 3.58-2.516 5.129-3.145 1.693.435 2.613 1.064 4.21 2.467-2.13 1.936-3.92 3.533-7.259 6.823h-4.16C8.418 6.194 6.628 4.548 4.5 2.66zM23.226 25.113c-1.597 1.403-2.516 1.984-4.21 2.468-1.548-.678-2.564-1.258-5.129-3.146-2.564 1.888-3.58 2.517-5.129 3.146-1.693-.436-2.613-1.065-4.21-2.468 2.13-1.936 3.92-3.532 7.258-6.823h4.162c3.338 3.29 5.129 4.936 7.258 6.823zM2.613 4.548C1.21 6.145.629 7.065.145 8.758c.678 1.548 1.258 2.565 3.145 5.13-1.887 2.564-2.516 3.58-3.145 5.128.436 1.694 1.065 2.613 2.468 4.21 1.935-2.13 3.532-3.92 6.822-7.258v-4.162c-3.29-3.338-4.887-5.129-6.822-7.258z"/>
    </g>
</svg>
