<svg xmlns="http://www.w3.org/2000/svg" width="36" height="36" viewBox="0 0 36 36">
    <g fill="#009CDE" fill-rule="evenodd">
        <circle cx="18" cy="18" r="18" fill-rule="nonzero" opacity=".1"/>
        <path d="M23.023 14.038c3.357 0 3.977 2.209 3.977 5.082v5.851h-3.315v-5.188c0-1.237-.022-2.828-1.723-2.828-1.725 0-1.988 1.348-1.988 2.74v5.276h-3.312V14.303h3.178v1.459h.046c.442-.839 1.524-1.724 3.137-1.724zm-8.441.265v10.668h-3.319V14.303h3.319zM12.924 9a1.923 1.923 0 1 1-.005 3.847A1.923 1.923 0 0 1 12.924 9z"/>
    </g>
</svg>
