<svg xmlns="http://www.w3.org/2000/svg" width="36" height="36" viewBox="0 0 36 36">
    <g fill="#009CDE" fill-rule="nonzero">
        <circle cx="18" cy="18" r="18" opacity=".1"/>
        <path d="M10.35 12c-.177 0-.345.038-.5.101l7.637 6.844c.33.295.681.296 1.012 0l7.65-6.844A1.321 1.321 0 0 0 25.65 12h-15.3zm-1.336 1.19c-.008.063-.014.13-.014.195v9.23C9 23.382 9.602 24 10.35 24h15.3c.748 0 1.35-.618 1.35-1.385v-9.23c0-.066-.006-.132-.014-.195l-7.6 6.8c-.794.71-1.992.71-2.785 0l-7.587-6.8z"/>
    </g>
</svg>
