<?xml version="1.0" encoding="UTF-8"?>
<svg width="28px" height="28px" viewBox="0 0 28 28" version="1.1" xmlns="http://www.w3.org/2000/svg" xmlns:xlink="http://www.w3.org/1999/xlink">
    <!-- Generator: sketchtool 58 (101010) - https://sketch.com -->
    <title>BB422632-ACBD-480D-B1B1-EC057C96A0B9</title>
    <desc>Created with sketchtool.</desc>
    <g id="Dashboard" stroke="none" stroke-width="1" fill="none" fill-rule="evenodd">
        <g id="Xcoins_UI" transform="translate(-233.000000, -403.000000)" fill-rule="nonzero">
            <g id="02-Navigation" transform="translate(100.000000, 69.000000)">
                <g id="btc01" transform="translate(133.000000, 334.000000)">
                    <path d="M27.5813826,17.3865362 C25.7112793,24.8879112 18.1140393,29.4510362 10.6117485,27.5811612 C3.11339559,25.7112862 -1.45159919,18.1145362 0.419379217,10.6149112 C2.28860741,3.11353618 9.8854098,-1.45090132 17.3850753,0.418973682 C24.8864911,2.28884868 29.4510483,9.88647368 27.580945,17.3865362 L27.5813826,17.3865362 Z" id="Path" fill="#F79B00"></path>
                    <g id="bitcoin" transform="translate(6.746988, 4.722892)" fill="#FFFFFF">
                        <path d="M13.3581875,7.1273125 C13.636875,5.2644375 12.2185,4.263 10.2790625,3.5949375 L10.9081875,1.0714375 L9.372125,0.688625 L8.759625,3.145625 C8.35049005,3.04509831 7.94038733,2.94855208 7.529375,2.856 L8.14625,0.3828125 L6.610625,-1.42108547e-14 L5.9815,2.522625 C5.64725,2.4465 5.319125,2.37125 5.000625,2.2920625 L5.002375,2.2841875 L2.884,1.75525 L2.475375,3.395875 C2.475375,3.395875 3.6150625,3.6570625 3.591,3.67325 C4.213125,3.8285625 4.3255625,4.24025 4.30675,4.566625 L3.590125,7.4414375 C3.633,7.452375 3.6885625,7.4685625 3.7498125,7.492625 L3.5875,7.452375 L2.583,11.4795625 C2.506875,11.6685625 2.3139375,11.9520625 1.878625,11.8444375 C1.894375,11.86675 0.7625625,11.56575 0.7625625,11.56575 L-2.20978791e-12,13.3245 L1.9989375,13.82325 C2.3708125,13.916 2.73525,14.0135625 3.094,14.1054375 L2.4583125,16.6578125 L3.992625,17.040625 L4.62175,14.5149375 C5.040875,14.629125 5.44775,14.7336875 5.845875,14.833 L5.2185,17.3464375 L6.754125,17.72925 L7.39025,15.1816875 C10.0095625,15.677375 11.9791875,15.4774375 12.80825,13.1088125 C13.4763125,11.2013125 12.775,10.101 11.396875,9.3830625 C12.4005,9.1511875 13.1565,8.491 13.3581875,7.1273125 L13.3581875,7.1273125 Z M9.848125,12.0483125 C9.3734375,13.9558125 6.16175,12.9250625 5.1205,12.6660625 L5.964,9.284625 C7.00525,9.5449375 10.34425,10.0594375 9.848125,12.0483125 Z M10.32325,7.1001875 C9.890125,8.834875 7.217,7.9533125 6.349875,7.7371875 L7.114625,4.6703125 C7.98175,4.8864375 10.7743125,5.2898125 10.32325,7.09975 L10.32325,7.1001875 Z" id="Shape"></path>
                    </g>
                </g>
            </g>
        </g>
    </g>
</svg>