<svg xmlns="http://www.w3.org/2000/svg" width="113" height="35" viewBox="0 0 113 35">
    <path fill="#282828" fill-rule="evenodd" d="M8.759 35h2.629V21H8.759zm9.636-.21h2.354v-8.833L30.659 35V21.21h-2.348v8.682L18.395 21zm17.639-3.39a7.248 7.248 0 0 0 4.466 1.57c1.606 0 2.733-.551 2.733-1.769 0-1.061-.719-1.477-1.977-1.941l-2.037-.705c-1.878-.665-3.307-1.636-3.307-3.869C35.914 22.3 38.077 21 40.662 21a7.867 7.867 0 0 1 4.156 1.1v2.368a6.677 6.677 0 0 0-4.105-1.459c-1.42 0-2.481.528-2.481 1.63 0 1 .666 1.393 1.839 1.794l2.27.794c2.2.771 3.209 1.967 3.209 3.933 0 2.474-2.183 3.84-5.048 3.84a8.243 8.243 0 0 1-4.468-1.188V31.4zM51.683 35h2.627V21h-2.627zm14.954-2.119c2.962 0 4.545-1.894 4.545-4.885 0-3.012-1.584-4.9-4.545-4.9h-2.929v9.785zM61.316 21h5.409c4.163 0 6.856 2.734 6.856 7s-2.692 7-6.856 7h-5.409zm25.405 0v2.1h-6.36v3.369h5.7v2.073h-5.7v4.343h6.361V35h-8.76V21zm9.327 6.339h2.608c1.544 0 2.414-.844 2.414-2.143s-.87-2.144-2.414-2.144h-2.607v4.288zm0 1.98V35h-2.32V21H98.7c2.835 0 4.669 1.456 4.669 4.2 0 2.344-1.018 3.69-3.187 4.036L105.116 35h-2.64L97.7 29.32h-1.65zM7.841 7.208A3.092 3.092 0 0 0 9.67 4.16C9.67 1.58 7.841.244 4.915.244H0v14.4h5.371c2.926 0 4.755-1.431 4.755-4.127a3.478 3.478 0 0 0-2.285-3.309zm-5.533-.915V2.355h2.585c1.624 0 2.491.586 2.491 1.946s-.868 1.992-2.491 1.992H2.308zm0 2.017h3.017c1.6 0 2.47.8 2.47 2.11 0 1.29-.869 2.111-2.468 2.111H2.309V8.309zm18.542 6.565c3.36 0 5.624-2.017 5.624-5.955V.244H24.1v8.393c0 2.767-1.143 4.058-3.246 4.058S17.6 11.4 17.6 8.637V.244h-2.372V8.9c0 3.963 2.285 5.98 5.623 5.98zm11.221-1.267a7.858 7.858 0 0 0 4.457 1.267c2.858 0 5.029-1.455 5.029-4.08 0-2.087-1-3.353-3.2-4.174L36.1 5.777c-1.166-.421-1.829-.843-1.829-1.9 0-1.172 1.051-1.735 2.468-1.735a6.409 6.409 0 0 1 4.092 1.548V1.181A7.439 7.439 0 0 0 36.689.01c-2.583 0-4.732 1.384-4.732 3.916 0 2.368 1.417 3.4 3.291 4.1l2.035.75c1.257.492 1.966.938 1.966 2.064 0 1.29-1.12 1.876-2.721 1.876a6.974 6.974 0 0 1-4.457-1.665v2.555zM50.052.244h-2.376v14.4h2.376zm6.782 14.378h2.291V5.257l9.641 9.589V.222h-2.284v9.206L56.835 0zM83.622.247V2.4H77.45v3.468h5.535V8H77.45v4.466h6.172v2.179h-8.5V.247zM89.157 13.6a7.855 7.855 0 0 0 4.457 1.267c2.857 0 5.029-1.454 5.029-4.08 0-2.087-1.006-3.352-3.2-4.174l-2.263-.845c-1.166-.422-1.829-.844-1.829-1.9 0-1.173 1.051-1.735 2.468-1.735a6.415 6.415 0 0 1 4.092 1.548V1.172A7.431 7.431 0 0 0 93.774 0c-2.583 0-4.732 1.384-4.732 3.916 0 2.368 1.417 3.4 3.291 4.1l2.035.75c1.257.492 1.966.938 1.966 2.064 0 1.29-1.119 1.876-2.721 1.876a6.963 6.963 0 0 1-4.456-1.665zm14.356 0a7.858 7.858 0 0 0 4.457 1.267c2.858 0 5.029-1.454 5.029-4.08 0-2.087-1.006-3.352-3.2-4.174l-2.263-.843c-1.165-.422-1.829-.844-1.829-1.9 0-1.173 1.052-1.735 2.468-1.735a6.413 6.413 0 0 1 4.092 1.548V1.172A7.424 7.424 0 0 0 108.131 0c-2.584 0-4.732 1.384-4.732 3.916 0 2.368 1.417 3.4 3.291 4.1l2.035.75c1.257.492 1.966.938 1.966 2.064 0 1.29-1.12 1.876-2.721 1.876a6.968 6.968 0 0 1-4.457-1.665V13.6z"/>
</svg>
