<svg xmlns="http://www.w3.org/2000/svg" width="106.461" height="39.644" viewBox="0 0 106.461 39.644">
  <path id="cbs-ar21" d="M26.357,10.18A19.656,19.656,0,0,0,6.769,29.94a19.562,19.562,0,1,0,39.118,0,19.569,19.569,0,0,0-19.53-19.764Zm0,8.388A20.364,20.364,0,0,1,44.551,29.944a20.145,20.145,0,0,1-36.391,0,20.288,20.288,0,0,1,18.2-11.373Zm0,.9a10.467,10.467,0,1,0,7.407,3.066,10.52,10.52,0,0,0-7.407-3.066Zm36.806-1.412A11.734,11.734,0,0,0,51.127,29.99v.08A11.658,11.658,0,0,0,62.984,41.946a11.786,11.786,0,0,0,9.465-4.14l-3.236-3.25c-1.8,1.645-3.45,2.714-6.07,2.714-3.958,0-6.7-3.318-6.7-7.275v-.06c0-3.958,2.813-7.195,6.7-7.195a8.516,8.516,0,0,1,5.908,2.613l3.236-3.738a11.992,11.992,0,0,0-9.122-3.554Zm11.2.4V41.54h11c5.2,0,8.638-2.107,8.638-6.326v-.082c0-3.094-1.645-4.643-4.32-5.665a5.367,5.367,0,0,0,3.035-4.982v-.06a5.318,5.318,0,0,0-1.576-3.94,8.384,8.384,0,0,0-6.028-2.03ZM79.3,22.9h5.025c2.15,0,3.333.864,3.333,2.37v.082c0,1.708-1.426,2.43-3.675,2.43H79.3V22.893Zm0,9.1h5.9c2.6,0,3.744.966,3.744,2.513v.08c0,1.708-1.365,2.5-3.594,2.5l-6.05,0Zm24.648-13.883c-4.7,0-8.075,2.772-8.075,6.97v.062c0,4.582,3.012,5.87,7.654,7.055,3.857,1,4.66,1.645,4.66,2.93v.082c0,1.345-1.267,2.17-3.336,2.17a10.571,10.571,0,0,1-6.892-2.795l-3.013,3.6a14.719,14.719,0,0,0,9.8,3.678v0c4.983,0,8.477-2.574,8.477-7.15v-.06c0-4.038-2.66-5.7-7.334-6.934-3.978-1.025-4.984-1.527-4.984-3.035v-.06c0-1.125,1.025-2.03,2.976-2.03A10.818,10.818,0,0,1,109.9,24.88l2.63-3.843a13.391,13.391,0,0,0-8.578-2.933Z" transform="translate(-6.769 -10.178)" fill="#888789"/>
</svg>
