<svg xmlns="http://www.w3.org/2000/svg" xmlns:xlink="http://www.w3.org/1999/xlink" width="90" height="87" viewBox="0 0 90 87">
    <defs>
        <path id="e5syewwk6a" d="M0 0L90 0 90 87 0 87z"/>
        <path id="pehi7c7zcc" d="M0 87L90 87 90 0 0 0z"/>
    </defs>
    <g fill="none" fill-rule="evenodd">
        <path fill="#E7EBF2" d="M83.187 76.518H6.813C4.155 76.518 2 74.34 2 71.657v9.482C2 83.823 4.153 85.999 6.811 86h76.377C85.846 86 88 83.823 88 81.139v-9.482c0 2.684-2.154 4.86-4.812 4.86zM2 15.408h85.999V10H2v5.409z"/>
        <path fill="#3A4E6F" d="M27.981 37.63l1.681 1.848c2.312 2.536 4.671 5.024 7.08 7.467v5.11l-1.228 1.256-1.497 1.55c-1.66 1.735-3.297 3.492-4.91 5.27l-1.127 1.242c-1.321-1.61-1.905-2.67-2.346-4.229l.185-.425.2-.434c.722-1.504 1.66-2.94 3.652-5.664l.822-1.12-1.118-1.528-.567-.79c-1.606-2.261-2.377-3.584-3.163-5.326.498-1.605 1.088-2.692 2.336-4.229v.002zm-.576 11.87l-.558.771-.577.815c-1.538 2.2-2.284 3.53-2.995 5.239l-.263.645.103.399c.626 2.44 1.464 3.893 3.589 6.356l1.231 1.407 3.532-3.891L33 59.574c1.725-1.858 3.474-3.692 5.253-5.5l.978-.997v-7.154L37.66 44.32l-1.334-1.374c-1.644-1.706-3.264-3.436-4.86-5.186l-3.53-3.891-.921 1.047c-2.254 2.572-3.148 4.077-3.892 6.687l-.123.43.18.411c1.027 2.353 1.947 3.918 4.225 7.056zm28.971 16.518l-.843-.757c-2.34-2.12-4.636-4.285-6.887-6.496l-1.56-1.53h-5.101l-1.167 1.146c-2.063 2.018-4.158 4-6.288 5.946l-1.848 1.685c1.607 1.323 2.666 1.908 4.223 2.35l.46-.201c1.588-.72 2.973-1.595 5.688-3.576l1.482-1.09 1.14.84c2.753 2.015 4.206 2.935 5.975 3.776l.516.24c1.6-.498 2.682-1.088 4.21-2.333zm-11.023 1.16l-.817-.589-.77.558c-2.703 1.94-4.138 2.783-6.044 3.577l-.644.264-.398-.103c-2.435-.627-3.886-1.467-6.345-3.595l-1.406-1.233 3.885-3.538 1.34-1.235c1.76-1.631 3.497-3.286 5.21-4.968l1.6-1.575h7.142l2.449 2.405 1.149 1.116c1.996 1.935 4.029 3.83 6.097 5.69l2.354 2.094-1.437 1.26c-2.342 2.021-3.821 2.863-6.295 3.57l-.431.124-1.034-.459c-1.82-.836-3.259-1.689-5.604-3.363h-.001zM32.625 32.982l1.255 1.133.944.863c1.87 1.724 3.715 3.476 5.532 5.257l1.558 1.53h5.101l1.167-1.146c2.063-2.016 4.158-3.999 6.288-5.944l1.848-1.687c-1.607-1.323-2.666-1.907-4.223-2.349l-.484.211c-1.508.686-2.84 1.518-5.314 3.312l-1.833 1.345-1.524-1.122c-2.759-2.004-4.173-2.861-6.106-3.736-1.477.46-2.513.998-3.865 2.056l-.345.276zm11.02-1.16l.819.59.77-.558c2.703-1.942 4.138-2.781 6.044-3.578l.644-.264.74.194c2.346.65 3.803 1.564 6.363 3.817l1.046.92-3.296 3-1.492 1.368c-1.909 1.762-3.792 3.553-5.646 5.373l-1.602 1.575h-7.141l-1.44-1.417-1.649-1.61c-2.296-2.238-4.64-4.424-7.03-6.561l-1.93-1.715 1.437-1.263c2.212-1.908 3.654-2.764 5.89-3.449l.835-.244.411.18c2.136.935 3.621 1.783 6.229 3.642h-.001zM61.02 61.37l-2.356-2.59-1.411-1.53c-1.622-1.75-3.263-3.48-4.923-5.19v-5.12l1.283-1.331 1.434-1.503c1.369-1.447 2.725-2.907 4.066-4.378l1.908-2.1c1.321 1.608 1.905 2.67 2.346 4.229l-.184.424-.202.434c-.72 1.504-1.659 2.941-3.651 5.664l-.822 1.123 1.118 1.525.567.791c1.606 2.262 2.378 3.583 3.163 5.328-.498 1.605-1.088 2.689-2.336 4.224zm.578-11.868l.556-.772c1.938-2.707 2.777-4.145 3.572-6.055l.263-.645-.103-.399c-.626-2.439-1.464-3.892-3.589-6.355l-1.231-1.408-3.621 3.992-1.635 1.783c-1.636 1.77-3.292 3.521-4.97 5.252l-1 1.033v7.144l1.618 1.674 1.384 1.447c1.75 1.84 3.477 3.703 5.182 5.585l3.042 3.354.92-1.047c2.254-2.572 3.148-4.077 3.892-6.684L66 56.97l-.458-1.036c-.928-2.025-1.876-3.58-3.945-6.431z"/>
        <path fill="#009CDE" d="M76.638 75.969L66.108 65.06l6.316-4.387c.893-.621.645-2.049-.402-2.308l-21.498-5.33c-.663-.165-1.33.259-1.49.946-.045.196-.045.399 0 .596l5.147 22.266c.25 1.085 1.628 1.34 2.228.415l4.236-6.541 10.532 10.907c.482.5 1.266.5 1.748 0l3.713-3.846c.483-.5.483-1.31 0-1.81"/>
        <mask id="jxv3s1bolb" fill="#fff">
            <use xlink:href="#e5syewwk6a"/>
        </mask>
        <path fill="#3A4E6F" d="M7.605 2.522c-2.8 0-5.07 2.258-5.07 5.043v71.87c0 2.785 2.27 5.044 5.07 5.044h74.79c2.8 0 5.07-2.259 5.07-5.044V7.565c0-2.785-2.27-5.043-5.07-5.043H7.604zm0-2.522h74.79C86.594 0 90 3.388 90 7.565v71.87C90 83.612 86.595 87 82.394 87H7.605C3.405 87 0 83.612 0 79.435V7.565C0 3.388 3.406 0 7.605 0z" mask="url(#jxv3s1bolb)"/>
        <mask id="jg1blq6hbd" fill="#fff">
            <use xlink:href="#pehi7c7zcc"/>
        </mask>
        <path fill="#3A4E6F" d="M1 18L88 18 88 15 1 15zM11.8 9.333c-.7 0-1.267-.597-1.267-1.333 0-.737.568-1.333 1.267-1.333.7 0 1.267.596 1.267 1.333 0 .736-.567 1.333-1.267 1.333m0 2.667c2.099 0 3.8-1.792 3.8-4 0-2.21-1.701-4-3.8-4C9.701 4 8 5.79 8 8c0 2.208 1.701 4 3.8 4m58.267-2.667c-.7 0-1.267-.597-1.267-1.333 0-.737.567-1.333 1.267-1.333s1.266.596 1.266 1.333c0 .736-.566 1.333-1.266 1.333m0 2.667c2.099 0 3.8-1.792 3.8-4 0-2.21-1.701-4-3.8-4-2.1 0-3.8 1.79-3.8 4 0 2.208 1.7 4 3.8 4M80.2 9.333c-.7 0-1.267-.597-1.267-1.333 0-.737.568-1.333 1.267-1.333.7 0 1.267.596 1.267 1.333 0 .736-.567 1.333-1.267 1.333m0 2.667c2.099 0 3.8-1.792 3.8-4 0-2.21-1.701-4-3.8-4-2.099 0-3.8 1.79-3.8 4 0 2.208 1.701 4 3.8 4" mask="url(#jg1blq6hbd)"/>
    </g>
</svg>
