<svg xmlns="http://www.w3.org/2000/svg" width="96" height="96" viewBox="0 0 96 96">
    <g fill="none" fill-rule="nonzero">
        <path fill="#E7EBF2" d="M13.648 21.606h68.705v4.277H13.648zM78.509 74.218H17.49a3.844 3.844 0 0 1-3.844-3.843v7.5a3.843 3.843 0 0 0 3.844 3.843H78.51a3.844 3.844 0 0 0 3.844-3.843v-7.5a3.844 3.844 0 0 1-3.844 3.843z"/>
        <path fill="#3A4E6F" d="M78.508 13.344H17.492a4.787 4.787 0 0 0-4.782 4.782v59.748a4.787 4.787 0 0 0 4.781 4.782H78.51a4.787 4.787 0 0 0 4.781-4.782V18.126a4.787 4.787 0 0 0-4.782-4.782zM17.492 15.22h61.017a2.91 2.91 0 0 1 2.906 2.907v6.82h-66.83v-6.82a2.91 2.91 0 0 1 2.906-2.907zm61.016 65.562H17.492a2.91 2.91 0 0 1-2.907-2.907V26.82h66.83v51.054a2.91 2.91 0 0 1-2.907 2.907z"/>
        <path fill="#3A4E6F" d="M20.9 22.908a2.675 2.675 0 0 0 2.671-2.672 2.675 2.675 0 0 0-2.672-2.671 2.675 2.675 0 0 0-2.672 2.671 2.675 2.675 0 0 0 2.672 2.672zm0-3.468a.798.798 0 1 1-.002 1.595.798.798 0 0 1 .001-1.595zM68.12 22.908a2.675 2.675 0 0 0 2.671-2.672 2.675 2.675 0 0 0-2.672-2.671 2.675 2.675 0 0 0-2.672 2.671 2.675 2.675 0 0 0 2.672 2.672zm0-3.468a.798.798 0 1 1-.002 1.595.798.798 0 0 1 .001-1.595zM75.192 22.908a2.675 2.675 0 0 0 2.672-2.672 2.675 2.675 0 0 0-2.672-2.671 2.675 2.675 0 0 0-2.672 2.671 2.675 2.675 0 0 0 2.672 2.672zm0-3.468a.798.798 0 1 1-.002 1.595.798.798 0 0 1 .002-1.595z"/>
        <path fill="#FFF" d="M48.333 63.6c-5.867 0-12.533-7.066-12-12.933.533-5.6 8-10.8 13.533-10 4.867.666 9.2 6.8 8.933 11.667-.265 5.132-5.333 11.267-10.466 11.267z"/>
        <path fill="#009CDE" d="M52.534 66.6c-.4-.134-1-.267-1.334-.4-.4-.2-.867-.2-2.333-.134-1.4.066-2.134 0-3.133-.134C40.4 65 36.134 61.134 34.6 55.8c-.267-1-.333-1.533-.333-3.933 0-2.6-.067-2.8-.4-3.867-1.933-5.267 2-10.8 7.6-10.8 1.133 0 2.533.334 3.333.733.534.267.867.333 2.933.333 1.867 0 2.6.067 3.533.334 4.2 1.067 7.6 3.8 9.4 7.6 1.133 2.333 1.534 4.734 1.267 7.466-.134 1.468-.134 1.6.2 2.467 1.066 3.134.066 6.733-2.534 8.867-.8.667-2.4 1.4-3.4 1.667-1 .2-2.6.2-3.6-.067h-.065zm-1.8-5.134c2.2-.466 4.132-1.8 4.866-3.4.933-1.933.666-4.2-.6-5.6-1.067-1.2-2.667-1.866-6.467-2.8-2.534-.6-3.134-.866-3.667-1.466-.467-.534-.533-.933-.133-1.533.4-.667 1.4-1.067 2.733-1.133 1.934-.133 2.8.333 3.933 2.133.867 1.334 1.733 1.667 2.868 1.133 1.466-.733 1.333-3.133-.268-4.533-1.533-1.266-3.199-1.8-6-1.8-2.933 0-4.933.6-6.267 1.933-1.066 1.067-1.266 1.667-1.266 3.333 0 1.733.2 2.266 1.333 3.267 1.2 1.133 2.2 1.534 5.8 2.4 2.534.6 3.2.933 3.8 1.6.267.334.4.6.4 1.2 0 .667-.066.8-.6 1.334-.8.8-2 1.132-3.533 1.067-1.8-.134-2.6-.667-3.533-2.534-.667-1.266-1.2-1.733-2.067-1.733-1.933 0-2.6 1.6-1.6 3.666.867 1.8 2.6 3 4.8 3.467 1.333.267 4.267.267 5.534 0h-.067z"/>
    </g>
</svg>
