<svg xmlns="http://www.w3.org/2000/svg" width="96" height="96" viewBox="0 0 96 96">
    <g fill="none" fill-rule="nonzero" transform="translate(8 8)">
        <path fill="#E7EBF2" d="M36.089 69.643L9.57 43.125c-5.49-5.489-5.73-14.239-.721-20.014-.124.09-.243.19-.355.302L5.38 26.529c-5.74 5.74-5.74 15.047 0 20.788l26.518 26.517c5.74 5.74 15.048 5.74 20.788 0l3.116-3.115c.112-.112.212-.231.301-.355-5.774 5.009-14.524 4.769-20.013-.72z"/>
        <path fill="#E7EBF2" d="M21.7 41.27l-.705.705c-.437.437-.7.979-.795 1.544L4.351 27.67c.32-.393.662-.774 1.029-1.141l.79-.79 15.53 15.53zM37.239 58.22l.706-.706 15.53 15.531-.79.79c-.366.367-.748.709-1.141 1.028L35.695 59.015a2.846 2.846 0 0 0 1.544-.795zM55.03 34.8c-6.26 0-11.72-3.419-14.618-8.49a1.111 1.111 0 0 0-.961-.571h-.11c-.631 0-1.14.533-1.096 1.162.597 8.75 7.884 15.662 16.785 15.662 8.902 0 16.189-6.912 16.786-15.662a1.095 1.095 0 0 0-1.096-1.162h-.11c-.4 0-.762.222-.96.57-2.899 5.073-8.36 8.491-14.62 8.491z"/>
        <path fill="#E7EBF2" d="M38.134 42.651a24.228 24.228 0 0 1-1.712-1.908c9.383 7.577 23.165 7.008 31.885-1.712 8.72-8.72 9.289-22.502 1.712-31.885a24.08 24.08 0 0 1 1.908 1.712c9.332 9.332 9.332 24.461 0 33.793a23.78 23.78 0 0 1-12.414 6.575l-4.528 9.552.789-9.146c-6.36.197-12.785-2.126-17.64-6.98z"/>
        <path fill="#3A4E6F" d="M44.975 54.526a3.8 3.8 0 0 0-5.367 0l-3.032 3.031a1.91 1.91 0 0 1-1.358.563c-.513 0-.995-.2-1.358-.563L21.657 45.355a1.923 1.923 0 0 1 0-2.717l3.032-3.031a3.8 3.8 0 0 0 0-5.368L13.2 22.75a3.771 3.771 0 0 0-2.684-1.112 3.771 3.771 0 0 0-2.684 1.112l-3.115 3.116a15.533 15.533 0 0 0-4.58 11.056c0 4.177 1.626 8.104 4.58 11.057l26.517 26.518a15.533 15.533 0 0 0 11.057 4.58c4.177 0 8.103-1.627 11.057-4.58l3.116-3.116a3.771 3.771 0 0 0 1.111-2.684 3.77 3.77 0 0 0-1.111-2.684L44.975 54.526zm10.163 15.53l-3.115 3.116c-2.6 2.6-6.056 4.03-9.732 4.03a13.672 13.672 0 0 1-9.73-4.03L6.042 46.654c-2.6-2.6-4.03-6.055-4.03-9.73 0-3.677 1.43-7.132 4.03-9.732l3.115-3.116a1.91 1.91 0 0 1 1.359-.562c.513 0 .995.2 1.358.562l11.488 11.489a1.924 1.924 0 0 1 0 2.716l-3.031 3.032a3.771 3.771 0 0 0-1.112 2.684 3.77 3.77 0 0 0 1.112 2.684l12.202 12.202a3.771 3.771 0 0 0 2.684 1.112 3.77 3.77 0 0 0 2.684-1.112l3.031-3.031a1.923 1.923 0 0 1 2.717 0L55.138 67.34c.363.363.563.845.563 1.358 0 .513-.2.995-.563 1.358zM72.59 8.196A24.67 24.67 0 0 0 55.03.923c-6.633 0-12.869 2.583-17.559 7.273-9.682 9.682-9.682 25.436 0 35.118 3.4 3.4 7.656 5.718 12.331 6.72l4.336 9.146a.937.937 0 0 0 1.695 0l4.326-9.127a24.699 24.699 0 0 0 12.431-6.739c9.682-9.682 9.682-25.436 0-35.118zm-1.326 33.793a22.837 22.837 0 0 1-11.926 6.317.937.937 0 0 0-.672.519l-3.68 7.765-3.69-7.783a.937.937 0 0 0-.669-.518 22.843 22.843 0 0 1-11.83-6.3c-8.951-8.952-8.951-23.516 0-32.467C43.272 5.046 49.15 2.808 55.03 2.808c5.879 0 11.758 2.238 16.234 6.713 8.951 8.952 8.951 23.516 0 32.468zm1.529-16.25c0 9.794-7.968 17.762-17.762 17.762S37.269 35.533 37.269 25.74a.937.937 0 1 1 1.875 0c0 8.76 7.126 15.887 15.887 15.887 8.76 0 15.887-7.127 15.887-15.887a.937.937 0 1 1 1.875 0z"/>
        <circle cx="55" cy="25" r="12" fill="#F0F0F0"/>
        <path fill="#D80027" d="M54.478 25H67c0-1.083-.144-2.132-.413-3.13H54.478V25zM54.478 18.74h10.76a12.063 12.063 0 0 0-2.768-3.131h-7.992v3.13zM55 37c2.824 0 5.42-.976 7.47-2.609H47.53A11.949 11.949 0 0 0 55 37zM44.761 31.26H65.24a11.928 11.928 0 0 0 1.348-3.13H43.413c.301 1.117.759 2.169 1.348 3.13z"/>
        <path fill="#0052B4" d="M48.559 14.874h1.093l-1.017.739.389 1.196-1.018-.74-1.017.74.336-1.033c-.896.746-1.68 1.62-2.328 2.594h.35l-.647.47c-.1.168-.197.34-.29.513l.31.951-.578-.419c-.143.304-.274.615-.392.932l.34 1.048h1.258l-1.017.74.388 1.195-1.017-.739-.61.443c-.06.49-.092.99-.092 1.496h12V13c-2.37 0-4.58.688-6.441 1.874zm.465 8.926l-1.018-.739-1.017.739.389-1.196-1.017-.739h1.257l.388-1.195.389 1.195h1.257l-1.017.74.389 1.195zm-.389-4.691l.389 1.195-1.018-.739-1.017.74.389-1.196-1.017-.74h1.257l.388-1.195.389 1.196h1.257l-1.017.739zm4.693 4.691l-1.017-.739-1.017.739.388-1.196-1.017-.739h1.257l.389-1.195.388 1.195h1.258l-1.018.74.389 1.195zm-.389-4.691l.389 1.195-1.017-.739-1.017.74.388-1.196-1.017-.74h1.257l.389-1.195.388 1.196h1.258l-1.018.739zm0-3.496l.389 1.196-1.017-.74-1.017.74.388-1.196-1.017-.739h1.257l.389-1.196.388 1.196h1.258l-1.018.739z"/>
    </g>
</svg>
