<svg xmlns="http://www.w3.org/2000/svg" width="96" height="96" viewBox="0 0 96 96">
    <g fill="none" fill-rule="nonzero">
        <path fill="#E7EBF2" d="M74.069 72.79H21.93a3.056 3.056 0 0 1-3.056-3.056v7.5a3.056 3.056 0 0 0 3.056 3.057h52.137a3.056 3.056 0 0 0 3.057-3.057v-7.5a3.056 3.056 0 0 1-3.056 3.057z"/>
        <path fill="#009CDE" d="M57.359 37.922H38.64a2.06 2.06 0 1 1 0-4.12H57.36a2.06 2.06 0 1 1 0 4.12z"/>
        <path fill="#3A4E6F" d="M78.062 43.011c0-.028-.005-.055-.008-.083-.003-.03-.004-.06-.01-.09-.005-.03-.016-.057-.024-.086-.008-.03-.016-.06-.027-.089-.002-.003-.002-.006-.003-.01-.012-.026-.028-.05-.042-.076-.013-.026-.025-.052-.041-.076l-.002-.005-.002-.004c-.021-.03-.046-.057-.07-.084-.014-.016-.024-.033-.038-.048-.002 0-.003-.002-.004-.003l-.007-.007-.003-.004-4.197-4.11V30.11a2.979 2.979 0 0 0-2.975-2.975H25.39a2.979 2.979 0 0 0-2.975 2.975v8.126l-4.197 4.11-.003.004-.007.007-.004.003c-.014.015-.024.032-.038.048-.024.027-.05.054-.07.084l-.002.005-.002.004c-.017.024-.028.05-.042.076-.013.026-.03.05-.04.077l-.004.01c-.012.029-.019.059-.028.089-.008.028-.018.055-.024.085-.006.03-.007.06-.01.09-.002.028-.008.055-.008.083V77.234a3.98 3.98 0 0 0 1.339 2.975c.007.007.012.015.019.021l.035.028a4.486 4.486 0 0 0 .605.43 3.927 3.927 0 0 0 .677.31c.068.025.137.048.207.069.054.016.108.028.163.042.065.016.13.033.196.045.07.014.14.023.21.032.053.008.106.017.16.022.127.013.255.02.383.02h52.137c.128 0 .256-.007.383-.02.054-.005.107-.014.16-.022.07-.01.14-.018.21-.032.067-.013.132-.03.197-.045.054-.014.108-.026.162-.042.07-.02.14-.044.208-.068.047-.017.094-.033.14-.052a3.95 3.95 0 0 0 .656-.332c.066-.041.13-.084.194-.13.036-.025.072-.053.108-.08.063-.048.125-.097.185-.148.01-.01.022-.017.033-.027l.019-.02a3.981 3.981 0 0 0 1.34-2.976V43.015l-.001-.005zm-54.709 1.577c.518 0 .938-.42.938-.937V30.11c0-.608.493-1.101 1.1-1.101h45.218c.606 0 1.1.493 1.1 1.1v13.54a.937.937 0 1 0 1.875 0v-2.79l2.202 2.156L56.823 61.59a.938.938 0 0 0 1.312 1.34l18.053-17.684v31.987c0 .368-.094.713-.26 1.015l-25.563-18.78a3.978 3.978 0 0 0-4.73 0l-25.563 18.78a2.106 2.106 0 0 1-.259-1.015V45.246l18.313 17.938a.933.933 0 0 0 1.326-.013.938.938 0 0 0-.014-1.326L20.214 43.016l2.202-2.156v2.791c0 .518.42.937.937.937zm-1.422 34.765a2.13 2.13 0 0 1-.184-.01L46.745 60.98a2.11 2.11 0 0 1 2.51 0l24.997 18.365a2.13 2.13 0 0 1-.184.01H21.932v-.001zM36.896 26.301c.237 0 .474-.089.656-.267l8.965-8.782a2.13 2.13 0 0 1 2.966 0l8.92 8.738a.938.938 0 0 0 1.312-1.34l-8.92-8.737c-1.541-1.51-4.049-1.51-5.59 0l-8.965 8.781a.938.938 0 0 0 .656 1.607z"/>
        <path fill="#3A4E6F" d="M34.75 44.813h9a.937.937 0 1 0 0-1.876h-9a.937.937 0 1 0 0 1.876zM34.75 54.563h26a.937.937 0 1 0 0-1.876h-26a.937.937 0 1 0 0 1.876zM34.75 49.688H41.203a.937.937 0 1 0 0-1.876H34.75a.937.937 0 1 0 0 1.876zM43.234 48.75c0 .518.42.938.938.938H60.75a.937.937 0 1 0 0-1.876H44.172a.937.937 0 0 0-.938.938z"/>
    </g>
</svg>
