<svg xmlns="http://www.w3.org/2000/svg" width="96" height="96" viewBox="0 0 96 96">
    <g fill="none" fill-rule="nonzero">
        <path fill="#E7EBF2" d="M44.089 77.643L17.57 51.125c-5.49-5.489-5.73-14.239-.721-20.014-.124.09-.243.19-.355.302l-3.116 3.116c-5.74 5.74-5.74 15.047 0 20.788l26.518 26.517c5.74 5.74 15.048 5.74 20.788 0l3.116-3.115c.112-.112.212-.231.301-.355-5.774 5.009-14.524 4.769-20.013-.72z"/>
        <path fill="#E7EBF2" d="M29.7 49.27l-.705.705c-.437.437-.7.979-.795 1.544L12.351 35.67c.32-.393.662-.774 1.029-1.141l.79-.79 15.53 15.53zM45.239 66.22l.706-.706 15.53 15.531-.79.79c-.366.367-.748.709-1.141 1.028L43.695 67.015a2.846 2.846 0 0 0 1.544-.795zM63.03 42.8c-6.26 0-11.72-3.419-14.618-8.49a1.111 1.111 0 0 0-.961-.571h-.11c-.631 0-1.14.533-1.096 1.162.597 8.75 7.884 15.662 16.785 15.662 8.902 0 16.189-6.912 16.786-15.662a1.095 1.095 0 0 0-1.096-1.162h-.11c-.4 0-.762.222-.96.57-2.899 5.073-8.36 8.491-14.62 8.491z"/>
        <path fill="#E7EBF2" d="M46.134 50.651a24.228 24.228 0 0 1-1.712-1.908c9.383 7.577 23.165 7.008 31.885-1.712 8.72-8.72 9.289-22.502 1.712-31.885a24.08 24.08 0 0 1 1.908 1.712c9.332 9.332 9.332 24.461 0 33.793a23.78 23.78 0 0 1-12.414 6.575l-4.528 9.552.789-9.146c-6.36.197-12.785-2.126-17.64-6.98z"/>
        <path fill="#3A4E6F" d="M52.975 62.526a3.8 3.8 0 0 0-5.367 0l-3.032 3.031a1.91 1.91 0 0 1-1.358.563c-.513 0-.995-.2-1.358-.563L29.657 53.355a1.923 1.923 0 0 1 0-2.717l3.032-3.031a3.8 3.8 0 0 0 0-5.368L21.2 30.75a3.771 3.771 0 0 0-2.684-1.112 3.771 3.771 0 0 0-2.683 1.112l-3.116 3.116a15.533 15.533 0 0 0-4.58 11.056c0 4.177 1.626 8.104 4.58 11.057l26.517 26.518a15.533 15.533 0 0 0 11.057 4.58c4.177 0 8.103-1.627 11.057-4.58l3.116-3.116a3.771 3.771 0 0 0 1.112-2.684 3.77 3.77 0 0 0-1.112-2.684L52.976 62.526zm10.163 15.53l-3.115 3.116c-2.6 2.6-6.056 4.03-9.732 4.03a13.672 13.672 0 0 1-9.73-4.03L14.042 54.654c-2.6-2.6-4.03-6.055-4.03-9.73 0-3.677 1.43-7.132 4.03-9.732l3.116-3.116a1.91 1.91 0 0 1 1.358-.562c.513 0 .995.2 1.358.562l11.488 11.489a1.924 1.924 0 0 1 0 2.716l-3.031 3.032a3.771 3.771 0 0 0-1.112 2.684 3.77 3.77 0 0 0 1.112 2.684l12.202 12.202a3.771 3.771 0 0 0 2.684 1.112 3.77 3.77 0 0 0 2.684-1.112l3.031-3.031a1.923 1.923 0 0 1 2.717 0L63.138 75.34c.363.363.563.845.563 1.358 0 .513-.2.995-.563 1.358zm17.452-61.86a24.67 24.67 0 0 0-17.56-7.273c-6.633 0-12.869 2.583-17.559 7.273-9.682 9.682-9.682 25.436 0 35.118 3.4 3.4 7.656 5.718 12.331 6.72l4.336 9.146a.937.937 0 0 0 1.695 0l4.326-9.127a24.699 24.699 0 0 0 12.431-6.739c9.682-9.682 9.682-25.436 0-35.118zm-1.326 33.793a22.837 22.837 0 0 1-11.926 6.317.937.937 0 0 0-.672.519l-3.68 7.765-3.69-7.783a.937.937 0 0 0-.669-.518 22.843 22.843 0 0 1-11.83-6.3c-8.951-8.952-8.951-23.516 0-32.467 4.475-4.476 10.354-6.714 16.233-6.714 5.879 0 11.758 2.238 16.234 6.714 8.951 8.95 8.951 23.515 0 32.467zm1.529-16.25c0 9.794-7.968 17.762-17.762 17.762S45.269 43.533 45.269 33.74a.937.937 0 1 1 1.875 0c0 8.76 7.126 15.887 15.887 15.887 8.76 0 15.887-7.127 15.887-15.887a.937.937 0 1 1 1.875 0z"/>
        <g fill="#009CDE">
            <path d="M63.419 43.95c1.834-.261 3.441-2.175 4.453-5.002a21.767 21.767 0 0 0-4.453-.524v5.525zM66.348 43.5c.109-.032.217-.063.324-.098.09-.03.18-.06.269-.092.105-.036.21-.074.315-.113.089-.034.177-.07.266-.106l.305-.129a12.879 12.879 0 0 0 .815-.398 12.704 12.704 0 0 0 1.06-.637c.091-.06.18-.124.27-.187l.236-.172c.086-.066.174-.134.26-.203.076-.06.152-.121.227-.184.086-.071.168-.145.251-.218l.217-.195c.082-.077.162-.156.242-.234.069-.069.139-.136.206-.206l.038-.04a14.404 14.404 0 0 0-2.937-1.13 10.635 10.635 0 0 1-2.739 4.448c.035-.01.07-.017.104-.026.092-.026.182-.054.271-.08zM74.98 32.412h-5.138c-.02 2.006-.31 4-.866 5.929 1.132.302 2.223.736 3.253 1.294a11.974 11.974 0 0 0 2.751-7.223zM63.419 31.554h5.566a21.44 21.44 0 0 0-.844-5.718c-1.55.354-3.133.542-4.722.563v5.155zM63.419 20.017v5.525a21.782 21.782 0 0 0 4.453-.524c-1.012-2.827-2.62-4.74-4.453-5.001zM63.419 37.567c1.59.021 3.172.21 4.722.563.538-1.86.822-3.783.844-5.718h-5.566v5.155zM72.229 24.33c-1.03.559-2.121.993-3.253 1.295.555 1.929.846 3.923.866 5.93h5.138a11.977 11.977 0 0 0-2.751-7.224zM71.65 23.68c-.013-.012-.025-.026-.037-.039-.068-.07-.138-.137-.207-.205-.08-.079-.159-.158-.241-.234-.07-.066-.144-.129-.217-.195-.083-.074-.166-.148-.252-.219-.074-.063-.15-.122-.225-.182a9.174 9.174 0 0 0-.497-.377 10.33 10.33 0 0 0-.793-.523 11.96 11.96 0 0 0-.539-.306c-.086-.043-.171-.09-.257-.132a9.465 9.465 0 0 0-.3-.145 9.325 9.325 0 0 0-.261-.12c-.102-.044-.204-.085-.306-.128a12.059 12.059 0 0 0-.85-.31 10.48 10.48 0 0 0-.324-.099c-.089-.026-.178-.052-.269-.076-.034-.01-.07-.017-.104-.026a10.636 10.636 0 0 1 2.739 4.448 14.383 14.383 0 0 0 2.94-1.131zM51 31.554h5.139c.02-2.006.31-4 .865-5.929a14.887 14.887 0 0 1-3.253-1.294A11.974 11.974 0 0 0 51 31.554zM62.562 43.95v-5.526c-1.499.021-2.991.197-4.453.524 1.011 2.827 2.619 4.74 4.453 5.001zM62.562 32.412h-5.566c.022 1.935.305 3.859.844 5.718a22.559 22.559 0 0 1 4.722-.563v-5.155zM62.562 20.017c-1.834.26-3.442 2.174-4.453 5 1.462.329 2.954.504 4.453.525v-5.525zM62.562 26.4c-1.59-.022-3.173-.21-4.722-.564a21.431 21.431 0 0 0-.844 5.718h5.566V26.4zM60.006 20.364l-.104.025c-.091.024-.18.051-.27.077-.108.032-.215.063-.323.098-.091.03-.18.06-.27.092-.105.037-.21.074-.314.113-.09.034-.178.07-.267.106l-.304.129a12.382 12.382 0 0 0-1.354.703 11.226 11.226 0 0 0-1.027.691c-.089.066-.172.135-.26.204-.077.06-.154.12-.228.184-.086.07-.167.144-.25.217-.073.065-.147.129-.219.196-.081.076-.16.155-.24.234-.069.068-.14.135-.207.205l-.037.04c.934.484 1.919.863 2.936 1.13a10.631 10.631 0 0 1 2.738-4.444zM54.574 40.53c.08.079.16.158.241.235.071.065.144.128.218.194.083.074.166.148.251.22l.225.182c.086.069.172.138.263.205.077.058.155.114.234.171a12.124 12.124 0 0 0 .514.35 10.732 10.732 0 0 0 .818.48c.086.042.172.09.257.132a9.947 9.947 0 0 0 .561.264c.102.045.204.086.307.129a12.059 12.059 0 0 0 .58.219c.09.03.178.062.269.091.107.035.214.067.324.098.09.027.179.053.269.077.035.01.07.017.104.026a10.638 10.638 0 0 1-2.739-4.448 14.39 14.39 0 0 0-2.936 1.13l.037.04c.064.07.133.137.203.205zM53.751 39.635a14.908 14.908 0 0 1 3.253-1.294 22.234 22.234 0 0 1-.865-5.93H51a11.976 11.976 0 0 0 2.751 7.224z"/>
        </g>
    </g>
</svg>
