<?xml version="1.0" encoding="UTF-8"?>
<svg width="588px" height="588px" viewBox="0 0 588 588" version="1.1" xmlns="http://www.w3.org/2000/svg" xmlns:xlink="http://www.w3.org/1999/xlink">
    <!-- Generator: Sketch 64 (93537) - https://sketch.com -->
    <title>cross</title>
    <desc>Created with Sketch.</desc>
    <g id="Page-1" stroke="none" stroke-width="1" fill="none" fill-rule="evenodd">
        <g id="cross" fill-rule="nonzero">
            <g id="Group">
                <path d="M86.451,501.46 C113.388,528.396 144.766,549.548 179.716,564.331 C215.923,579.645 254.358,587.409 293.955,587.409 C333.551,587.409 371.987,579.645 408.194,564.331 C443.143,549.548 474.522,528.395 501.46,501.46 C528.396,474.522 549.55,443.144 564.331,408.194 C579.645,371.987 587.411,333.551 587.411,293.956 C587.411,254.358 579.645,215.923 564.331,179.717 C549.55,144.767 528.395,113.389 501.46,86.452 C474.522,59.515 443.144,38.362 408.194,23.58 C371.986,8.265 333.551,0.501 293.955,0.501 C254.358,0.501 215.923,8.266 179.716,23.58 C144.766,38.362 113.388,59.516 86.451,86.452 C59.514,113.388 38.361,144.767 23.578,179.716 C8.265,215.923 0.5,254.358 0.5,293.956 C0.5,333.552 8.265,371.987 23.579,408.194 C38.361,443.144 59.515,474.522 86.451,501.46 Z M293.955,43.341 C432.366,43.341 544.569,155.545 544.569,293.956 C544.569,432.366 432.366,544.569 293.955,544.569 C155.544,544.569 43.34,432.366 43.34,293.956 C43.34,155.545 155.544,43.341 293.955,43.341 Z" id="Shape" fill="#D0021B"></path>
                <path d="M293.955,587.909 C254.288,587.909 215.788,580.131 179.521,564.792 C144.511,549.983 113.079,528.794 86.098,501.813 C59.115,474.829 37.926,443.396 23.119,408.388 C7.778,372.119 0,333.618 0,293.956 C0,254.293 7.778,215.791 23.118,179.521 C37.925,144.513 59.115,113.081 86.097,86.098 C113.079,59.115 144.512,37.926 179.52,23.119 C215.79,7.779 254.291,0.001 293.954,0.001 C333.62,0.001 372.121,7.779 408.387,23.12 C443.396,37.927 474.828,59.117 501.812,86.099 C528.796,113.084 549.985,144.516 564.791,179.522 C580.132,215.792 587.91,254.293 587.91,293.956 C587.91,333.618 580.132,372.119 564.791,408.389 C549.985,443.396 528.797,474.828 501.812,501.814 C474.83,528.794 443.397,549.983 408.387,564.793 C372.121,580.131 333.62,587.909 293.955,587.909 Z M293.955,1.001 C254.426,1.001 216.057,8.752 179.911,24.04 C145.022,38.797 113.696,59.914 86.805,86.805 C59.913,113.697 38.796,145.022 24.039,179.91 C8.751,216.057 1,254.427 1,293.956 C1,333.483 8.751,371.854 24.039,408 C38.796,442.889 59.913,474.214 86.805,501.106 C113.695,527.995 145.02,549.112 179.911,563.871 C216.053,579.158 254.423,586.909 293.955,586.909 C333.487,586.909 371.856,579.158 407.999,563.87 C442.889,549.112 474.215,527.995 501.105,501.106 C527.998,474.211 549.114,442.886 563.869,408 C579.158,371.854 586.91,333.484 586.91,293.956 C586.91,254.427 579.158,216.057 563.869,179.912 C549.115,145.025 527.998,113.7 501.105,86.806 C474.213,59.915 442.887,38.798 407.999,24.041 C371.855,8.752 333.485,1.001 293.955,1.001 Z M293.955,545.069 C226.88,545.069 163.819,518.949 116.39,471.52 C68.961,424.09 42.84,361.031 42.84,293.956 C42.84,226.881 68.96,163.82 116.39,116.391 C163.819,68.962 226.88,42.841 293.955,42.841 C361.03,42.841 424.09,68.962 471.519,116.391 C518.949,163.821 545.069,226.881 545.069,293.956 C545.069,361.031 518.949,424.091 471.519,471.52 C424.09,518.949 361.029,545.069 293.955,545.069 Z M293.955,43.841 C227.147,43.841 164.338,69.858 117.097,117.098 C69.857,164.339 43.84,227.148 43.84,293.956 C43.84,360.764 69.857,423.573 117.097,470.812 C164.337,518.052 227.147,544.069 293.955,544.069 C360.763,544.069 423.572,518.052 470.812,470.812 C518.052,423.573 544.069,360.763 544.069,293.956 C544.069,227.148 518.052,164.338 470.812,117.098 C423.571,69.857 360.763,43.841 293.955,43.841 Z" id="Shape" fill="#000000"></path>
            </g>
            <g id="Group" transform="translate(178.000000, 178.000000)">
                <path d="M6.92,224.989 C11.103,229.173 16.584,231.264 22.066,231.264 C27.548,231.264 33.03,229.172 37.212,224.989 L115.954,146.247 L194.697,224.989 C198.879,229.173 204.361,231.264 209.843,231.264 C215.325,231.264 220.806,229.172 224.989,224.989 C233.354,216.626 233.354,203.063 224.989,194.698 L146.245,115.956 L224.987,37.213 C233.352,28.848 233.352,15.285 224.987,6.921 C216.624,-1.444 203.061,-1.444 194.696,6.921 L115.953,85.664 L37.211,6.921 C28.846,-1.444 15.283,-1.444 6.919,6.921 C-1.446,15.286 -1.446,28.848 6.919,37.213 L85.662,115.956 L6.919,194.698 C-1.445,203.063 -1.445,216.626 6.92,224.989 Z" id="Path" fill="#D0021B"></path>
                <path d="M209.844,231.765 C203.988,231.765 198.484,229.485 194.344,225.343 L115.955,146.954 L37.567,225.343 C33.427,229.485 27.922,231.765 22.067,231.765 C16.212,231.765 10.707,229.485 6.567,225.343 C2.427,221.203 0.147,215.699 0.147,209.845 C0.147,203.99 2.427,198.486 6.567,194.345 L84.956,115.956 L6.567,37.567 C-1.979,29.02 -1.979,15.114 6.567,6.567 C10.707,2.427 16.211,0.147 22.067,0.147 C27.922,0.147 33.427,2.427 37.567,6.567 L115.956,84.956 L194.345,6.567 C198.486,2.427 203.99,0.147 209.845,0.147 C215.699,0.147 221.203,2.427 225.343,6.567 C229.484,10.707 231.763,16.212 231.763,22.067 C231.763,27.922 229.484,33.427 225.343,37.567 L146.954,115.956 L225.345,194.345 C229.486,198.486 231.766,203.99 231.766,209.845 C231.766,215.699 229.486,221.203 225.345,225.343 C221.202,229.484 215.698,231.765 209.844,231.765 Z M115.955,145.54 L195.051,224.636 C199.001,228.588 204.255,230.765 209.844,230.765 C215.431,230.765 220.685,228.588 224.637,224.636 C228.588,220.686 230.765,215.433 230.765,209.845 C230.765,204.257 228.588,199.003 224.637,195.052 L145.539,115.956 L224.635,36.86 C228.586,32.909 230.762,27.655 230.762,22.067 C230.762,16.479 228.586,11.226 224.635,7.275 C220.685,3.324 215.432,1.148 209.844,1.148 C204.256,1.148 199.002,3.324 195.051,7.275 L115.955,86.371 L36.859,7.275 C32.908,3.324 27.654,1.148 22.066,1.148 C16.478,1.148 11.225,3.324 7.274,7.275 C-0.882,15.432 -0.882,28.703 7.274,36.86 L86.37,115.956 L7.274,195.052 C3.323,199.003 1.147,204.257 1.147,209.845 C1.147,215.433 3.323,220.686 7.274,224.636 C11.226,228.588 16.479,230.765 22.067,230.765 C27.655,230.765 32.908,228.588 36.86,224.636 L115.955,145.54 Z" id="Shape" fill="#000000"></path>
            </g>
        </g>
    </g>
</svg>