<svg xmlns="http://www.w3.org/2000/svg" width="89.159" height="142.194" viewBox="0 0 89.159 142.194">
    <path fill="#fff" stroke="#fff" stroke-miterlimit="10" stroke-width="0.1px" d="M3493.589 346.247a5.35 5.35 0 0 0-3.593-3.4 5.337 5.337 0 0 0-4.3-5.873l-10.764-2.078-11.963-2.2 1.055-2.793c2.166-5.754 4.276-11.346 6.371-16.941l1.582-4.213c2.3-6.125 4.682-12.459 6.861-18.752a2.945 2.945 0 0 0 .142-.994 3.556 3.556 0 0 0-1.689-2.97 3.734 3.734 0 0 0-2.726-.5c.145-.417.3-.834.447-1.252a2.863 2.863 0 0 0 .147-.994 3.567 3.567 0 0 0-1.689-2.973 3.751 3.751 0 0 0-3.586-.217 4.3 4.3 0 0 0-.685.4 18.768 18.768 0 0 0-3.03 2.979c-.38.435-.76.869-1.151 1.284l-59.228 62.62v.006a3.355 3.355 0 0 0 1.9 5.589l1.793.3a3.331 3.331 0 0 0 2.031 5.409l3.573.6c6.617 1.113 13.12 2.33 20 3.616l1.544.287-.27.75c-1.787 4.986-3.529 9.84-5.282 14.693q-1.66 4.585-3.329 9.17c-2.747 7.545-5.587 15.347-8.286 23.057-.041.122-.1.449-.1.461a3.712 3.712 0 0 0 1.426 4.059 3.752 3.752 0 0 0 2.184.71 3.545 3.545 0 0 0 .519-.078c-.067.191-.135.38-.2.568a4.284 4.284 0 0 0-.1.452 3.744 3.744 0 0 0 5.736 4.1l.513-.368c.073-.072 7.174-7.327 10.025-10.465 20.4-22.426 37.217-41.027 52.9-58.5.008-.009.079-.084.214-.243a5.381 5.381 0 0 0 1.008-5.306zm-50.353 16.695c-1.574-.29-3.116-.576-4.666-.866l1.684-4.691-.841-.154q-4.036-.743-7.967-1.484c-6.566-1.226-12.784-2.382-19.092-3.451l57.546-60.836c.4-.426.794-.875 1.185-1.321.162-.188.325-.356.487-.542-1.567 4.34-3.169 8.669-4.757 12.893l-1.591 4.242c-2.147 5.731-4.306 11.456-6.533 17.358l-3.269 8.68 5.586 1.029-1.764 4.682 19.25 3.546 9.763 1.886a4.088 4.088 0 0 1-.611.979l-.169.194c-15.7 17.5-32.52 36.1-52.915 58.527-1.95 2.141-5.908 6.232-8.179 8.573 2.146-6.041 4.334-12.094 6.481-17.99l3.4-9.362c1.715-4.755 3.424-9.515 5.174-14.394l2.636-7.345zm31.433-26.627l10.749 2.077a3.878 3.878 0 0 1 3.155 4.105l-9.813-1.895-17.553-3.231 1.246-3.306zm-.347-49.2a2.313 2.313 0 0 1 2.2.136 2.094 2.094 0 0 1 1.008 1.765 1.443 1.443 0 0 1-.066.5c-2.168 6.276-4.544 12.6-6.844 18.714l-1.582 4.213c-2.1 5.6-4.2 11.187-6.375 16.941l-1.144 3.036-4.141-.762 2.664-7.058c2.225-5.9 4.383-11.627 6.53-17.361l1.591-4.239c1.924-5.117 3.879-10.381 5.745-15.646a2.823 2.823 0 0 1 .415-.237zm-67.88 63.163a1.887 1.887 0 0 1 .4-1.909l59.229-62.621c.406-.429.8-.878 1.191-1.327a17.168 17.168 0 0 1 2.784-2.755 2.7 2.7 0 0 1 .452-.261 2.29 2.29 0 0 1 2.2.133 2.089 2.089 0 0 1 1.011 1.765 1.49 1.49 0 0 1-.066.5c-.313.9-.652 1.8-.971 2.7a21.124 21.124 0 0 0-2.686 2.677c-.379.435-.756.866-1.147 1.281L3410.643 352l-2.714-.455a1.878 1.878 0 0 1-1.487-1.265zm28.909 11.2c-6.89-1.286-13.394-2.5-20.026-3.619l-3.573-.6a1.906 1.906 0 0 1-1.083-3.176l.5-.524.1.017c6.589 1.11 13.064 2.318 19.916 3.6l7.135 1.327-1.186 3.306c-.594-.109-1.197-.223-1.782-.333zm-13.724 52.722a2.3 2.3 0 0 1-.858-2.567c0-.006.035-.212.062-.3 2.7-7.7 5.534-15.5 8.278-23.043q1.668-4.585 3.332-9.173c1.755-4.853 3.5-9.709 5.285-14.7l.347-.971c1.353.252 2.7.5 4.064.756l-2.059 5.74c-1.751 4.879-3.46 9.637-5.179 14.391q-1.689 4.681-3.4 9.359c-2.454 6.748-4.975 13.7-7.412 20.612a2.263 2.263 0 0 1-2.46-.104zm69.821-63.575l-.151.171c-15.7 17.5-32.517 36.1-52.915 58.527-2.828 3.112-9.9 10.335-9.88 10.335l-.406.278a2.251 2.251 0 0 1-2.646-.026 2.291 2.291 0 0 1-.86-2.564s.04-.22.061-.3c.206-.585.42-1.173.629-1.762l.327-.235c.07-.073 7.173-7.33 10.025-10.465 20.4-22.426 37.214-41.027 52.895-58.5l.214-.246a5.424 5.424 0 0 0 .919-1.594 3.921 3.921 0 0 1 2.559 2.471 3.966 3.966 0 0 1-.771 3.913z" transform="translate(-3404.809 -279.658)"/>
</svg>
