<?xml version="1.0" encoding="UTF-8"?>
<svg width="30px" height="20px" viewBox="0 0 30 20" version="1.1" xmlns="http://www.w3.org/2000/svg" xmlns:xlink="http://www.w3.org/1999/xlink">
    <!-- Generator: sketchtool 58 (101010) - https://sketch.com -->
    <title>630E5022-1E50-4703-BC7D-8013530F7F35</title>
    <desc>Created with sketchtool.</desc>
    <g id="Dashboard" stroke="none" stroke-width="1" fill="none" fill-rule="evenodd">
        <g id="Xcoins_UI" transform="translate(-300.000000, -310.000000)" fill="#6882AB" fill-rule="nonzero" opacity=".495">
            <g id="02-Navigation" transform="translate(100.000000, 69.000000)">
                <g id="Exchange_gray" transform="translate(200.000000, 241.000000)">
                    <path d="M25,5 L25,15 C25,17.7614237 22.7614237,20 20,20 L10,20 L10,18 L10,18 L20,18 C21.6568542,18 23,16.6568542 23,15 L23,5 L25,5 Z M20,0 L20,2 L10,2 C8.34314575,2 7,3.34314575 7,5 L7,15 L5,15 L5,5 C5,2.23857625 7.23857625,0 10,0 L20,0 Z" id="Combined-Shape"></path>
                    <path d="M2.15685425,6.44974747 L2.15685425,8.44974747 L8.15685425,8.44974747 L8.15685425,14.4497475 L10.1568542,14.4497475 L10.1568542,8.44974747 C10.1568542,7.34517797 9.26142375,6.44974747 8.15685425,6.44974747 L2.15685425,6.44974747 Z" id="Path-5" transform="translate(6.156854, 10.449747) scale(-1, -1) rotate(-45.000000) translate(-6.156854, -10.449747) "></path>
                    <path d="M20.1568542,4.44974747 L20.1568542,6.44974747 L26.1568542,6.44974747 L26.1568542,12.4497475 L28.1568542,12.4497475 L28.1568542,6.44974747 C28.1568542,5.34517797 27.2614237,4.44974747 26.1568542,4.44974747 L20.1568542,4.44974747 Z" id="Path-5" transform="translate(24.156854, 8.449747) rotate(-45.000000) translate(-24.156854, -8.449747) "></path>
                </g>
            </g>
        </g>
    </g>
</svg>