<svg xmlns="http://www.w3.org/2000/svg" width="167.624" height="182.893" viewBox="0 0 167.624 182.893">
    <defs>
        <style>
            .cls-1{fill:#fff;stroke:#fff;stroke-width:.1px}
        </style>
    </defs>
    <g id="Group_3756" transform="translate(-610.511 -2380.507)">
        <g id="Group_3756-2" transform="rotate(-45 3287.64 508.875)">
            <path id="Path_13057" d="M52.708 0A63.328 63.328 0 0 0 0 28.257h1.763a61.859 61.859 0 0 1 108.58 57.593H20.13l14.41-14.91a.723.723 0 0 0-1.04-1L17.9 86.07a.678.678 0 0 0-.113.158.186.186 0 0 0-.012.018c-.006.013-.016.023-.022.037a.748.748 0 0 0-.033.124c0 .014-.008.028-.01.043a.7.7 0 0 0-.006.147v.066a.824.824 0 0 0 .032.122c.007.022.008.045.017.066s.009.013.012.02a1.773 1.773 0 0 0 .122.181l.01.014L33.5 103.2a.722.722 0 1 0 1.039-1L20.128 87.3h91.206A63.328 63.328 0 0 0 52.708 0z" class="cls-1" transform="translate(10.628)"/>
            <path id="Path_13058" d="M113.917 75.2A61.868 61.868 0 0 1 5.488 17.6h90.136L81.216 32.513a.722.722 0 1 0 1.039 1l15.6-16.134v-.005a.684.684 0 0 0 .095-.134c.009-.016.021-.03.029-.047s.012-.017.016-.027a.631.631 0 0 0 .024-.092.806.806 0 0 0 .024-.09.714.714 0 0 0 0-.095.674.674 0 0 0 0-.121c0-.022-.012-.042-.016-.063A.812.812 0 0 0 98 16.6a.373.373 0 0 0-.019-.033c0-.009-.012-.017-.016-.027a.73.73 0 0 0-.109-.153L82.286.222a.722.722 0 1 0-1.041 1l14.382 14.936H94.2l-88.711-.169.066.168H4.488A63.322 63.322 0 0 0 115.678 75.2z" class="cls-1" transform="translate(0 23.764)"/>
        </g>
        <g id="Group_3757" transform="rotate(-45 3285.067 502.766)">
            <path id="Path_13057-2" d="M52.708 0A63.328 63.328 0 0 0 0 28.257h1.763a61.859 61.859 0 0 1 108.58 57.593H20.13l14.41-14.91a.723.723 0 0 0-1.04-1L17.9 86.07a.678.678 0 0 0-.113.158.186.186 0 0 0-.012.018c-.006.013-.016.023-.022.037a.748.748 0 0 0-.033.124c0 .014-.008.028-.01.043a.7.7 0 0 0-.006.147v.066a.824.824 0 0 0 .032.122c.007.022.008.045.017.066s.009.013.012.02a1.773 1.773 0 0 0 .122.181l.01.014L33.5 103.2a.722.722 0 1 0 1.039-1L20.128 87.3h91.206A63.328 63.328 0 0 0 52.708 0z" class="cls-1" transform="translate(10.628)"/>
            <path id="Path_13058-2" d="M113.917 75.2A61.868 61.868 0 0 1 5.488 17.6h90.136L81.216 32.513a.722.722 0 1 0 1.039 1l15.6-16.134v-.005a.684.684 0 0 0 .095-.134c.009-.016.021-.03.029-.047s.012-.017.016-.027a.631.631 0 0 0 .024-.092.806.806 0 0 0 .024-.09.714.714 0 0 0 0-.095.674.674 0 0 0 0-.121c0-.022-.012-.042-.016-.063A.812.812 0 0 0 98 16.6a.373.373 0 0 0-.019-.033c0-.009-.012-.017-.016-.027a.73.73 0 0 0-.109-.153L82.286.222a.722.722 0 1 0-1.041 1l14.382 14.936H94.2l-88.711-.169.066.168H4.488A63.322 63.322 0 0 0 115.678 75.2z" class="cls-1" transform="translate(0 23.764)"/>
        </g>
    </g>
</svg>
