<svg xmlns="http://www.w3.org/2000/svg" width="78.15" height="33.567" viewBox="0 0 78.15 33.567">
  <path id="fox-ar21" d="M39.657,35.934H30.372v10.85H20.92V13.217h20.2l.622,9.18H30.44v4.376h9.217Zm38.95-6.5L68.684,46.756l10.174-.005,4.852-8.485,4.9,8.47H99.07L88.97,29.32l9.186-16.056H88.04l-4.2,7.23-4.125-7.23H69.238Zm-37.1.612a16.012,16.012,0,1,1,16.02,16.327,16.17,16.17,0,0,1-16.02-16.327Zm18.87,6.7v-13.4a2.96,2.96,0,0,0-2.849-2.9,2.86,2.86,0,0,0-2.708,2.9V36.72a2.743,2.743,0,0,0,2.708,2.77,2.81,2.81,0,0,0,2.849-2.734Z" transform="translate(-20.92 -13.217)" fill="#888789"/>
</svg>
