<svg xmlns="http://www.w3.org/2000/svg" xmlns:xlink="http://www.w3.org/1999/xlink" width="100" height="94" viewBox="0 0 100 94">
    <defs>
        <path id="ec3cjmsjga" d="M0 0.013L99.634 0.013 99.634 93.856 0 93.856z"/>
    </defs>
    <g fill="none" fill-rule="evenodd">
        <path fill="#E7EBF2" d="M20.585 28.708C12.27 28.708 5.302 22.86 3.472 15 3.158 16.348 3 17.728 3 19.112c0 9.839 7.873 17.815 17.585 17.815 9.71 0 17.583-7.976 17.583-17.815 0-1.415-.163-2.79-.471-4.112-1.83 7.86-8.798 13.708-17.112 13.708m60.831 50.07c-8.317 0-15.282-5.847-17.114-13.705-.314 1.347-.47 2.726-.47 4.11 0 9.84 7.871 17.817 17.584 17.817C91.126 87 99 79.024 99 69.184c0-1.415-.164-2.792-.472-4.111-1.83 7.858-8.798 13.705-17.112 13.705"/>
        <path fill="#009CDE" d="M21.56 14.946c.55 2.145-2.977 2.746-4.076 3.01l-.979-3.8c1.097-.283 4.466-1.47 5.055.79zm2.411 5.682c.606 2.372-3.625 3.104-4.94 3.425l-1.076-4.195c1.333-.303 5.39-1.676 6.016.769v.001zm-4.567-9.504L18.601 8l-1.959.47.785 3.049c-.511.133-1.04.264-1.55.397l-.784-3.068-1.958.47.804 3.124c-.411.113-.843.227-1.236.321v-.02l-2.703.66.529 2.03s1.43-.375 1.41-.338c.785-.187 1.157.188 1.331.566l.922 3.575c.051-.012.051-.006 0 .018l1.274 5.006c.013.164-.176.434-.567.81.024.013-.452.125-1.43.34l.194 2.37 2.548-.622c.47-.112.942-.225 1.391-.32L18.405 30l1.96-.47-.804-3.143c.55-.112 1.06-.244 1.568-.358l.803 3.125 1.959-.472-.803-3.161c3.235-.977 5.33-2.35 4.841-5.44-.391-2.482-1.843-3.274-3.822-3.254 1-.846 1.45-2.013.863-3.633-.804-2.2-3-2.464-5.566-2.07z"/>
        <mask id="syscdfeoyb" fill="#fff">
            <use xlink:href="#ec3cjmsjga"/>
        </mask>
        <path fill="#3A4E6F" d="M80.767 85.094c-9.11 0-16.522-7.41-16.522-16.515 0-9.107 7.412-16.517 16.522-16.517s16.523 7.41 16.523 16.517c0 9.105-7.413 16.515-16.523 16.515zM19.557 2.357c9.108 0 16.522 7.41 16.522 16.514 0 9.108-7.414 16.516-16.523 16.516-9.11 0-16.524-7.41-16.524-16.516 0-9.106 7.414-16.514 16.524-16.514zm61.21 47.36c-10.402 0-18.866 8.461-18.866 18.86 0 7.62 4.544 14.198 11.065 17.168-18.552 10.102-41.509 6.872-56.612-8.226-12.4-12.393-16.982-30.8-12.005-47.5 3.437 4.672 8.975 7.709 15.207 7.709 10.403 0 18.866-8.46 18.866-18.858C38.422 8.47 29.96.013 19.556.013 9.154.013.69 8.472.69 18.87c-.003 2.962.696 5.883 2.038 8.522-2.98 8.679-3.53 18.006-1.586 26.974 2.035 9.401 6.741 18.015 13.555 24.809 8.123 8.12 18.438 13.087 29.83 14.37 1.858.208 3.721.312 5.584.312 9.041 0 18.004-2.44 25.755-7.069 1.564.421 3.207.647 4.902.647 10.403 0 18.867-8.459 18.867-18.857s-8.464-18.86-18.867-18.86zm-1-31.2c-3.133 1.828-6.838 3.324-10.933 4.443-.883-2.914-1.957-5.632-3.21-8.096-2.002-3.933-4.35-6.994-6.924-9.087 8.349 1.875 15.692 6.443 21.066 12.74zm9.283 24.035H71.715c-.088-6.116-.863-12.009-2.249-17.34 4.421-1.213 8.418-2.844 11.783-4.85 4.84 6.409 7.567 14.164 7.8 22.191v-.001zM51.352 27.67c5.555-.08 10.925-.73 15.844-1.881 1.34 5.136 2.086 10.835 2.175 16.763h-18.02V27.67h.001zM49.01 59.776c-5.57.08-10.953.729-15.882 1.885-1.34-5.14-2.087-10.837-2.176-16.765H49.01v14.88zM36.786 71.521c-1.176-2.313-2.19-4.869-3.024-7.609 4.723-1.096 9.89-1.714 15.247-1.793v20.425c-4.562-.559-8.863-4.424-12.223-11.023zm-16.23-2.592c3.133-1.825 6.838-3.324 10.934-4.442.881 2.914 1.955 5.633 3.209 8.096 2 3.933 4.35 6.994 6.925 9.088-8.35-1.876-15.694-6.443-21.068-12.742zm-9.282-24.034h17.332c.089 6.117.864 12.01 2.251 17.342-4.42 1.21-8.42 2.842-11.782 4.848-4.843-6.408-7.569-14.163-7.803-22.189l.002-.001zm52.262-28.967c1.178 2.312 2.19 4.868 3.025 7.607-4.712 1.093-9.866 1.713-15.209 1.793V4.908c4.545.575 8.833 4.436 12.184 11.02zM37.627 6.895c1.32-.449 2.664-.826 4.025-1.13-1.09.893-2.09 1.887-2.988 2.974-.398.51-.308 1.247.203 1.645.487.38 1.185.317 1.597-.143 2.618-3.136 5.55-4.96 8.543-5.335v20.422c-2.886-.042-5.75-.243-8.526-.601-.642-.082-1.23.37-1.311 1.013-.084.642.371 1.228 1.012 1.312 2.875.369 5.84.576 8.825.62v14.881H30.951c.02-1.263.07-2.524.149-3.763.041-.645-.45-1.202-1.095-1.243-.648-.042-1.204.45-1.245 1.095-.083 1.302-.133 2.606-.151 3.911h-17.34c.026-.783.072-1.565.142-2.345.04-.646-.451-1.203-1.096-1.243-.623-.039-1.168.416-1.24 1.036-.109 1.237-.164 2.48-.165 3.723-.01 9.249 3.107 18.23 8.845 25.486l.037.064c.058.089.128.171.207.242 7.567 9.41 19.172 15.442 32.162 15.442 4.331 0 8.6-.67 12.685-1.987.615-.197.955-.858.758-1.474-.2-.616-.86-.955-1.475-.756-1.14.367-2.294.68-3.46.94.875-.708 1.726-1.526 2.545-2.455.41-.502.336-1.24-.164-1.65-.476-.388-1.17-.344-1.593.1-2.5 2.833-5.28 4.495-8.105 4.861V62.12c2.953.043 5.9.258 8.83.644.64.085 1.23-.365 1.315-1.006.085-.641-.365-1.23-1.006-1.316-3.031-.4-6.082-.623-9.139-.666v-14.88h18.02c-.022 1.533-.09 3.065-.203 4.596-.03.646.47 1.194 1.116 1.224.621.029 1.157-.431 1.221-1.05.118-1.57.188-3.17.211-4.769h17.334c-.037 1.262-.135 2.524-.292 3.766-.082.641.372 1.227 1.015 1.31.642.08 1.228-.373 1.31-1.015.217-1.724.328-3.484.328-5.233.01-9.248-3.106-18.225-8.842-25.481-.063-.119-.149-.225-.249-.314C74.752 8.52 63.15 2.49 50.162 2.49c-4.55 0-9.02.736-13.29 2.187-.62.187-.97.84-.78 1.462.187.62.842.968 1.462.78l.073-.024z" mask="url(#syscdfeoyb)"/>
        <path fill="#009CDE" d="M74 70.001v6.268c0 .404.306.731.684.731h12.632c.378 0 .684-.327.684-.73V70c0-2.322-1.557-4.26-3.61-4.689.562-.787.867-1.758.867-2.758 0-2.51-1.911-4.554-4.258-4.554s-4.257 2.043-4.257 4.554c0 1.02.313 1.981.866 2.758-2.053.43-3.608 2.368-3.608 4.689"/>
    </g>
</svg>
