<svg xmlns="http://www.w3.org/2000/svg" xmlns:xlink="http://www.w3.org/1999/xlink" width="87" height="102" viewBox="0 0 87 102">
    <defs>
        <path id="as8r02yuma" d="M0 0.355L86.377 0.355 86.377 102 0 102z"/>
    </defs>
    <g fill="none" fill-rule="evenodd">
        <mask id="rba7gkhoob" fill="#fff">
            <use xlink:href="#as8r02yuma"/>
        </mask>
        <path fill="#3A4E6F" d="M74.095 43.258c0 16.932-13.864 30.707-30.905 30.707-17.042 0-30.906-13.775-30.906-30.705 0-.896.73-1.622 1.63-1.622.903 0 1.632.726 1.632 1.622 0 15.144 12.4 27.465 27.644 27.465 15.242 0 27.643-12.321 27.643-27.465 0-.896.73-1.622 1.632-1.622.9 0 1.63.726 1.63 1.622v-.002zm-2.66 28.093c-5.652 5.634-12.886 9.441-20.751 10.92-.512.096-.947.43-1.17.898l-6.403 13.424-6.42-13.457c-.223-.463-.655-.797-1.164-.893-7.803-1.504-14.973-5.3-20.585-10.892-15.574-15.476-15.574-40.656 0-56.131C22.73 7.484 32.958 3.613 43.188 3.613s20.459 3.87 28.247 11.607c15.575 15.473 15.575 40.655 0 56.131zm2.307-58.422C65.656 4.851 54.654.323 43.188.355c-11.542 0-22.392 4.466-30.553 12.574-16.846 16.739-16.846 43.974 0 60.711 5.916 5.88 13.322 9.887 21.456 11.62l7.545 15.81c.383.81 1.355 1.156 2.17.776.342-.161.617-.434.78-.777l7.526-15.779c8.2-1.704 15.716-5.755 21.63-11.65 16.847-16.737 16.847-43.972 0-60.71z" mask="url(#rba7gkhoob)"/>
        <path fill="#009CDE" d="M26.818 54.428c1.803-.98 3.715-1.741 5.698-2.271-.972-3.385-1.482-6.885-1.515-10.407H22c.163 4.644 1.858 9.103 4.818 12.678zM28.26 56c.14.139.28.276.42.41.126.115.254.225.384.341.145.13.29.262.44.386l.393.321c.151.12.302.24.461.36l.41.3c.294.213.595.416.9.613.464.301.944.582 1.433.844.15.073.301.156.45.23.322.165.65.319.982.463.18.079.358.15.538.226.335.137.674.265 1.016.385.158.052.312.108.471.161.188.06.375.116.568.17.157.05.311.093.47.135.06.018.123.03.183.046-2.223-2.162-3.87-4.845-4.797-7.804-1.782.469-3.505 1.134-5.143 1.981l.065.07c.112.123.233.24.356.362zm9.514-35.391l-.183.044c-.159.042-.315.091-.472.135-.191.056-.377.112-.566.172-.16.053-.315.105-.473.161-.184.067-.368.13-.55.199-.158.06-.312.123-.468.186l-.532.226c-.814.362-1.608.776-2.372 1.234-.621.37-1.22.775-1.8 1.214-.154.114-.3.235-.454.356-.135.106-.27.211-.399.323-.15.125-.292.253-.438.381-.128.116-.257.227-.385.344-.14.135-.279.272-.419.41-.12.12-.245.24-.362.36l-.065.07c1.636.85 3.36 1.515 5.142 1.984.927-2.959 2.575-5.639 4.796-7.8zm4.476 10.594c-2.784-.04-5.557-.368-8.27-.991-.942 3.264-1.44 6.637-1.478 10.034h9.748v-9.043zm0-11.203c-3.212.458-6.028 3.817-7.799 8.774 2.56.578 5.174.885 7.8.922V20zm0 21.752h-9.748c.038 3.396.534 6.772 1.478 10.034 2.715-.619 5.487-.95 8.27-.986v-9.048zm0 20.248v-9.698c-2.625.039-5.238.346-7.799.92 1.77 4.963 4.587 8.318 7.8 8.776V62zM22 40.246h9c.036-3.52.544-7.02 1.516-10.405-1.983-.53-3.895-1.291-5.698-2.27-2.96 3.574-4.653 8.032-4.818 12.675zm36.168-13.818c-.023-.02-.044-.044-.065-.068-.12-.121-.242-.24-.363-.36-.14-.137-.278-.276-.422-.41-.122-.116-.252-.227-.38-.343-.145-.13-.29-.258-.441-.384-.13-.11-.263-.214-.394-.318-.282-.231-.573-.453-.87-.663-.45-.327-.913-.634-1.39-.918-.31-.186-.625-.367-.944-.535-.15-.076-.3-.16-.45-.234-.173-.087-.348-.172-.525-.254-.153-.072-.305-.142-.457-.21-.18-.078-.358-.15-.536-.225-.49-.2-.986-.383-1.49-.543-.187-.061-.377-.12-.567-.175-.155-.044-.311-.091-.47-.133-.06-.018-.123-.03-.183-.046 2.221 2.162 3.87 4.845 4.797 7.806 1.785-.47 3.51-1.137 5.15-1.985v-.002zm1.014 1.14c-1.804.982-3.717 1.743-5.698 2.273.972 3.386 1.482 6.885 1.517 10.407H64c-.163-4.643-1.858-9.1-4.818-12.677v-.002zM43.752 50.8c2.784.035 5.555.369 8.27.986.942-3.264 1.44-6.638 1.478-10.034h-9.749V50.8zm0-30.8v9.696c2.623-.037 5.236-.344 7.799-.92-1.773-4.96-4.59-8.316-7.8-8.776zm0 20.246H53.5c-.039-3.397-.536-6.77-1.478-10.034-2.715.623-5.488.95-8.27.99v9.044zM64 41.752h-8.999c-.035 3.52-.543 7.02-1.517 10.405 1.983.53 3.894 1.291 5.698 2.27 2.96-3.574 4.655-8.032 4.818-12.675zM48.881 61.21c.191-.056.379-.11.568-.17.158-.054.315-.107.47-.163.185-.062.369-.128.553-.197.156-.061.31-.124.466-.187l.534-.227c.485-.216.96-.45 1.427-.698.638-.342 1.256-.716 1.857-1.118.16-.105.315-.218.473-.328l.413-.3c.15-.118.305-.237.455-.358.134-.106.267-.213.398-.323.15-.123.294-.255.44-.383l.38-.342c.143-.133.283-.272.424-.41.12-.122.243-.238.36-.362l.065-.07c-1.636-.848-3.36-1.513-5.142-1.983-.927 2.962-2.577 5.643-4.797 7.807.06-.02.122-.032.182-.047.16-.046.319-.093.474-.14zm-5.13.79c3.213-.458 6.027-3.815 7.8-8.778-2.563-.576-5.176-.881-7.8-.92V62z"/>
    </g>
</svg>
