<svg xmlns="http://www.w3.org/2000/svg" width="40" height="40" viewBox="0 0 40 40">
    <defs>
        <radialGradient id="a" cx="14.663%" cy="14.549%" r="99.827%" fx="14.663%" fy="14.549%">
            <stop offset="0%" stop-color="#FFF" stop-opacity=".1"/>
            <stop offset="100%" stop-color="#FFF" stop-opacity="0"/>
        </radialGradient>
    </defs>
    <g fill="none" fill-rule="nonzero">
        <circle cx="20" cy="20" r="20" fill="#616161"/>
        <path fill="#9E9E9E" d="M20 32.727C12.97 32.727 7.273 27.03 7.273 20S12.97 7.273 20 7.273c3.513 0 6.695 1.425 9 3.728l5.142-5.143A19.939 19.939 0 0 0 20 0C8.954 0 0 8.954 0 20s8.954 20 20 20a19.948 19.948 0 0 0 14.143-5.857l-5.142-5.142A12.704 12.704 0 0 1 20 32.727z"/>
        <path fill="#424242" d="M32.727 20h-6.364a6.363 6.363 0 1 0-10.95 4.41l-.004.004 7.879 7.88h.001c5.435-1.45 9.438-6.404 9.438-12.294z"/>
        <path fill="#616161" d="M39.998 20h-7.273c0 5.89-4.005 10.844-9.436 12.295l5.617 5.616C35.48 34.635 39.998 27.845 39.998 20z"/>
        <path fill="#212121" fill-opacity=".1" d="M20 39.771C8.993 39.771.064 30.878.002 19.886L0 20c0 11.046 8.954 20 20 20s20-8.954 20-20l-.002-.114C39.936 30.878 31.006 39.77 20 39.77z"/>
        <path fill="#FFF" fill-opacity=".05" d="M23.29 32.295l.178.177c5.341-1.508 9.259-6.417 9.259-12.245V20c0 5.89-4.005 10.844-9.436 12.295z"/>
        <path fill="#9E9E9E" d="M36.363 18.181H20a1.818 1.818 0 1 0 0 3.636h16.363a1.818 1.818 0 0 0 .001-3.636z"/>
        <path fill="#BDBDBD" d="M36.363 18.181H20a1.818 1.818 0 1 0 0 3.636h16.363a1.818 1.818 0 0 0 .001-3.636z" opacity=".5"/>
        <g>
            <g fill="#BDBDBD" transform="translate(2.272 2.272)">
                <circle cx="1.363" cy="17.728" r="1.363"/>
                <circle cx="17.728" cy="1.363" r="1.363"/>
                <circle cx="17.728" cy="34.09" r="1.363"/>
                <circle cx="6.137" cy="6.156" r="1.363"/>
                <circle cx="6.137" cy="29.318" r="1.363"/>
            </g>
            <circle cx="31.591" cy="31.591" r="1.363" fill="#757575"/>
            <path fill="#FFF" fill-opacity=".2" d="M20 18.41h16.363c.965 0 1.755.754 1.811 1.704.002-.038.006-.075.006-.114a1.818 1.818 0 0 0-1.817-1.818H20A1.818 1.818 0 0 0 18.182 20c0 .039.002.076.007.114A1.814 1.814 0 0 1 20 18.41z"/>
            <path fill="#212121" fill-opacity=".2" d="M38.174 20.113a1.82 1.82 0 0 1-1.811 1.705H20a1.815 1.815 0 0 1-1.811-1.705.9.9 0 0 0-.007.113c0 1.004.814 1.818 1.818 1.818h16.363a1.818 1.818 0 0 0 1.817-1.818.9.9 0 0 0-.006-.113z"/>
            <path fill="#212121" fill-opacity=".1" d="M20 7.5c3.513 0 6.695 1.425 9 3.728l5.253-5.257-.113-.114L29 10.999a12.692 12.692 0 0 0-9-3.727c-7.03 0-12.727 5.697-12.727 12.726l.002.115C7.336 13.136 13.009 7.5 20 7.5z"/>
            <circle cx="20" cy="20" r="20" fill="url(#a)"/>
        </g>
    </g>
</svg>
