<svg xmlns="http://www.w3.org/2000/svg" viewBox="0 0 30 40"><defs><style>.cls-1{fill:#637696;}.cls-2{fill:#fff;}</style></defs><title>Zasób 1</title><g id="Warstwa_2" data-name="Warstwa 2"><g id="Warstwa_1-2" data-name="Warstwa 1"><g id="Artboard_1" data-name="Artboard 1"><g id="Group_3409" data-name="Group 3409"><path id="Polygon_1" data-name="Polygon 1" class="cls-1" d="M15.5,40,8,20H23Z"/><g id="Group_3407" data-name="Group 3407"><circle id="Ellipse_3186" data-name="Ellipse 3186" class="cls-1" cx="15" cy="15" r="15"/><g id="Group_3382" data-name="Group 3382"><path id="Path_12057" data-name="Path 12057" class="cls-2" d="M20.65,19.62A4.43,4.43,0,0,0,22,17.54,11,11,0,0,0,20.26,15,11,11,0,0,0,22,12.47a4.39,4.39,0,0,0-1.35-2.08c-1,1-1.94,1.93-3.74,3.58V16C18.72,17.68,19.6,18.56,20.65,19.62Z"/><path id="Path_12058" data-name="Path 12058" class="cls-2" d="M10.39,9.35A4.39,4.39,0,0,1,12.47,8,11,11,0,0,1,15,9.74,11,11,0,0,1,17.53,8a4.39,4.39,0,0,1,2.08,1.35c-1.05,1.05-1.93,1.94-3.58,3.74H14C12.32,11.29,11.44,10.4,10.39,9.35Z"/><path id="Path_12059" data-name="Path 12059" class="cls-2" d="M19.61,20.65A4.39,4.39,0,0,1,17.53,22,11,11,0,0,1,15,20.26,11,11,0,0,1,12.46,22a4.43,4.43,0,0,1-2.08-1.35c1-1,1.93-1.94,3.59-3.74H16C17.68,18.71,18.56,19.6,19.61,20.65Z"/><path id="Path_12060" data-name="Path 12060" class="cls-2" d="M9.35,10.38A4.46,4.46,0,0,0,8,12.47,11.23,11.23,0,0,0,9.73,15,10.91,10.91,0,0,0,8,17.53a4.46,4.46,0,0,0,1.35,2.09c1.05-1.06,1.93-1.94,3.74-3.59V14C11.28,12.32,10.4,11.44,9.35,10.38Z"/></g></g></g></g></g></g></svg>