<svg xmlns="http://www.w3.org/2000/svg" width="1400" height="150" viewBox="0 0 1400 150">
  <g id="Group_1" data-name="Group 1" transform="translate(0 -344)">
    <rect id="Rectangle_1" data-name="Rectangle 1" width="1400" height="150" transform="translate(0 344)" fill="#f7f7f7"/>
    <g id="layer1" transform="translate(300.955 432.214)">
      <path id="path1139" d="M-260.955-23.352h12.094l7.042,18.017,7.134-18.017h11.775L-240.641,19.3h-11.85L-247.637,8Z" transform="translate(0 -4.138)" fill="#888789"/>
      <path id="path1141" d="M-199.943-24.285c-9.087,0-14.831,8.149-14.831,16.265,0,9.132,6.3,16.373,14.659,16.373,6.237,0,8.588-3.8,8.588-3.8v2.96h10.548v-31.08h-10.548v2.825s-2.624-3.543-8.416-3.543ZM-197.7-14.3a6.2,6.2,0,0,1,6.356,6.311A6.224,6.224,0,0,1-197.7-1.6a6.381,6.381,0,0,1-6.372-6.25A6.155,6.155,0,0,1-197.7-14.3Z" transform="translate(-10.699 -3.922)" fill="#888789"/>
      <path id="path1145" d="M-166.06,3.59v-44.8h11.033v16.657a10.215,10.215,0,0,1,8.109-3.647c6.714,0,10.647,5,10.647,12.15V3.591h-10.952V-13.363c0-2.419-1.152-4.756-3.762-4.756-2.657,0-4.042,2.372-4.042,4.756V3.59Z" transform="translate(-21.986)" fill="#888789"/>
      <path id="path1147" d="M-107.811-24.28a16.078,16.078,0,0,0-16.6,16.391c0,9.648,7.5,16.243,16.642,16.243,8.858,0,16.61-6.3,16.61-16.082,0-10.707-8.116-16.552-16.649-16.552Zm.1,10.076a6.262,6.262,0,0,1,6.219,6.326,6.36,6.36,0,0,1-6.219,6.219,6.157,6.157,0,0,1-6.174-6.25,6,6,0,0,1,6.174-6.3Z" transform="translate(-31.635 -3.923)" fill="#888789"/>
      <path id="path1153" d="M-62.219-24.28A16.078,16.078,0,0,0-78.822-7.89c0,9.648,7.5,16.243,16.642,16.243,8.858,0,16.61-6.3,16.61-16.082,0-10.707-8.116-16.552-16.649-16.552Zm.1,10.076A6.262,6.262,0,0,1-55.9-7.878,6.36,6.36,0,0,1-62.12-1.659a6.157,6.157,0,0,1-6.174-6.25,6,6,0,0,1,6.174-6.3Z" transform="translate(-42.198 -3.923)" fill="#888789"/>
      <circle id="path1155" cx="7.326" cy="7.326" r="7.326" transform="translate(-86.388 -10.402)" fill="#888789"/>
      <path id="path1157" d="M-15.521-13.093H-28.71L-17-41.214h13.14Z" transform="translate(-53.808)" fill="#888789"/>
    </g>
    <g id="marketwatch-ar21" transform="translate(346.197 379.62)">
      <path id="Path_3" data-name="Path 3" d="M64.1,32.885l-.383,1.975h-.067c-.512-1.148-1.975-2.676-5.1-2.676-5.1,0-10.261,3.951-11.407,10.132-1.019,5.417,1.657,10.2,7.648,10.2a7.463,7.463,0,0,0,6.055-2.741h.067l-.383,2.04h5.606L69.641,32.82H64.1Zm-1.784,9.432c-.383,1.846-2.1,4.907-5.672,4.907-3.441,0-4.142-3.059-3.826-4.783a5.9,5.9,0,0,1,5.606-4.907c3.188,0,4.271,2.549,3.888,4.783Zm10.579-9.432h5.29L77.8,34.86h.067a6,6,0,0,1,5.29-2.676l-1.019,5.739c-2.676.067-4.671.574-5.1,3.506L75.064,51.883H69.281Zm14.085-7.456h5.739L90.041,39.767h.127l6.562-6.882h6.691L94.69,41.233l5.034,10.644H93.287L89.59,42.7h-.044l-1.722,9.178H82.151Zm25.581,6.756c-5.739,0-10.9,4.972-11.856,10.261-1.019,5.606,2.741,10.07,8.222,10.07a10.588,10.588,0,0,0,5.739-1.722,15.142,15.142,0,0,0,4.783-4.843h-5.8a4.888,4.888,0,0,1-3.826,1.784c-2.231,0-3.826-1.339-3.782-3.568h14.236a5.962,5.962,0,0,0,.383-1.468c1.083-5.864-2.291-10.515-8.1-10.515Zm-5.739,8.1a5.28,5.28,0,0,1,4.972-3.248c2.932,0,3.7,2.1,3.7,3.248Zm-68.086,11.6h5.672V25.406H39.562L29.492,40.443h-.067V25.406H24.583L6.8,51.877h6.882L23.691,36.84h.067V51.877h4.907L38.608,36.84h.127ZM135.1,32.885h-3.568l1.019-5.606h-4.972l-.383,2.167c-.445,2.485-1.975,3.248-4.08,3.441h-.067l-.89,4.271h2.8L122.22,51.839h5.672l2.741-14.681h3.633Z" transform="translate(0 3.705)" fill="#888789"/>
      <path id="Path_4" data-name="Path 4" d="M151.307,48.384A12.81,12.81,0,0,1,139.9,56.223c-5.739,0-9.369-4.524-8.286-10.2a12.509,12.509,0,0,1,11.919-10.132c5.034,0,8.453,3.377,8.542,8.008h-5.739a3.351,3.351,0,0,0-3.633-2.676c-2.676-.127-4.907,2.1-5.417,4.783-.512,2.741.89,4.843,3.633,4.843a5.359,5.359,0,0,0,4.589-2.549h5.8Zm-47.158-26L93.124,29.136h3.123L86.242,44.173h-.127V29.136H81.206L71.2,44.175h-.067V29.138H65.39V55.609h4.972L80.367,40.571h.067V55.609h4.907l17.718-26.471h2.8Zm10.833,33.2h-5.606l.383-2.04h-.067a7.57,7.57,0,0,1-6.055,2.741c-6.055,0-8.666-4.783-7.648-10.2,1.148-6.184,6.373-10.132,11.407-10.132,3.123,0,4.589,1.53,5.1,2.676h.067l.383-1.975h5.606Zm-9.561-4.649c3.506,0,5.29-3.059,5.672-4.907.383-2.291-.7-4.783-3.888-4.783a5.893,5.893,0,0,0-5.606,4.907,3.79,3.79,0,0,0,3.826,4.783ZM132.759,36.6h-3.568l1.019-5.606h-4.972l-.383,2.167c-.445,2.485-1.975,3.248-4.08,3.441h-.067l-.827,4.271h2.8l-2.741,14.681h5.672l2.741-14.681h3.633Zm23.9-7.456h5.672l-1.722,9.432h.067A6.6,6.6,0,0,1,170.813,38c1.21,1.846,1.083,3.506.445,6.947l-1.975,10.579H163.61L165.523,45.2c.191-.89.7-4.015-2.291-4.015-3.188,0-3.7,2.87-3.888,3.826l-1.975,10.515h-5.606Z" transform="translate(71.736 0)" fill="#888789"/>
    </g>
    <path id="nbc-wordmark" d="M47.42,32.694h6.76a4.672,4.672,0,0,1,4.3,4.668,4.9,4.9,0,0,1-4.408,4.87H47.42v-9.54m-.1-14.964h5.565a4.23,4.23,0,0,1,4.15,4.118,4.419,4.419,0,0,1-3.9,4.57H47.316V17.73M39.7,11.5v36.95H57.63c4.256,0,9.314-4.265,9.314-9.838a10.579,10.579,0,0,0-6.2-9.838,9.235,9.235,0,0,0,4.2-8.084c-.2-7.43-7.065-9.2-9.418-9.2H39.7M12.2,27.17l23.25,22.7V11.5h-7.8V32.24L4.395,10V48.454h7.8Zm56,2.408C68.4,41.264,76.8,50,87.594,50a22.125,22.125,0,0,0,8-1.546v-7.53A13.34,13.34,0,0,1,88.6,42.9c-6.532,0-12.695-4.833-12.44-13.625A12.712,12.712,0,0,1,88.73,17.221a12.368,12.368,0,0,1,6.864,2.114V12a19.973,19.973,0,0,0-7.537-1.5C77.291,10.5,68.4,19.584,68.2,29.569" transform="translate(694.605 389)" fill="#888789"/>
    <path id="fox-ar21" d="M39.657,35.934H30.372v10.85H20.92V13.217h20.2l.622,9.18H30.44v4.376h9.217Zm38.95-6.5L68.684,46.756l10.174-.005,4.852-8.485,4.9,8.47H99.07L88.97,29.32l9.186-16.056H88.04l-4.2,7.23-4.125-7.23H69.238Zm-37.1.612a16.012,16.012,0,1,1,16.02,16.327,16.17,16.17,0,0,1-16.02-16.327Zm18.87,6.7v-13.4a2.96,2.96,0,0,0-2.849-2.9,2.86,2.86,0,0,0-2.708,2.9V36.72a2.743,2.743,0,0,0,2.708,2.77,2.81,2.81,0,0,0,2.849-2.734Z" transform="translate(879.08 388.783)" fill="#888789"/>
    <path id="cbs-ar21" d="M26.357,10.18A19.656,19.656,0,0,0,6.769,29.94a19.562,19.562,0,1,0,39.118,0,19.569,19.569,0,0,0-19.53-19.764Zm0,8.388A20.364,20.364,0,0,1,44.551,29.944a20.145,20.145,0,0,1-36.391,0,20.288,20.288,0,0,1,18.2-11.373Zm0,.9a10.467,10.467,0,1,0,7.407,3.066,10.52,10.52,0,0,0-7.407-3.066Zm36.806-1.412A11.734,11.734,0,0,0,51.127,29.99v.08A11.658,11.658,0,0,0,62.984,41.946a11.786,11.786,0,0,0,9.465-4.14l-3.236-3.25c-1.8,1.645-3.45,2.714-6.07,2.714-3.958,0-6.7-3.318-6.7-7.275v-.06c0-3.958,2.813-7.195,6.7-7.195a8.516,8.516,0,0,1,5.908,2.613l3.236-3.738a11.992,11.992,0,0,0-9.122-3.554Zm11.2.4V41.54h11c5.2,0,8.638-2.107,8.638-6.326v-.082c0-3.094-1.645-4.643-4.32-5.665a5.367,5.367,0,0,0,3.035-4.982v-.06a5.318,5.318,0,0,0-1.576-3.94,8.384,8.384,0,0,0-6.028-2.03ZM79.3,22.9h5.025c2.15,0,3.333.864,3.333,2.37v.082c0,1.708-1.426,2.43-3.675,2.43H79.3V22.893Zm0,9.1h5.9c2.6,0,3.744.966,3.744,2.513v.08c0,1.708-1.365,2.5-3.594,2.5l-6.05,0Zm24.648-13.883c-4.7,0-8.075,2.772-8.075,6.97v.062c0,4.582,3.012,5.87,7.654,7.055,3.857,1,4.66,1.645,4.66,2.93v.082c0,1.345-1.267,2.17-3.336,2.17a10.571,10.571,0,0,1-6.892-2.795l-3.013,3.6a14.719,14.719,0,0,0,9.8,3.678v0c4.983,0,8.477-2.574,8.477-7.15v-.06c0-4.038-2.66-5.7-7.334-6.934-3.978-1.025-4.984-1.527-4.984-3.035v-.06c0-1.125,1.025-2.03,2.976-2.03A10.818,10.818,0,0,1,109.9,24.88l2.63-3.843a13.391,13.391,0,0,0-8.578-2.933Z" transform="translate(1081.231 388.822)" fill="#888789"/>
    <path id="abcgo-ar21" d="M59.875,1.875a28,28,0,1,0,19.8,8.2,28,28,0,0,0-19.8-8.2ZM51.194,17h3.92v5.63a8.681,8.681,0,1,1-3.92,7.25Zm-9.52,4.2a8.681,8.681,0,0,1,8.681,8.678v8.681h-3.92v-1.43a8.681,8.681,0,1,1-4.76-15.932Zm36.4,0a8.681,8.681,0,0,1,8.445,6.72H82.408a4.759,4.759,0,1,0,0,3.919h4.116a8.676,8.676,0,1,1-8.447-10.64Zm-36.4,3.92a4.76,4.76,0,1,0,4.76,4.761,4.76,4.76,0,0,0-4.76-4.761Zm18.2,0a4.76,4.76,0,1,0,4.76,4.761,4.76,4.76,0,0,0-4.76-4.761Z" transform="translate(1272.125 389.125)" fill="#888789"/>
  </g>
</svg>
