<svg xmlns="http://www.w3.org/2000/svg" width="89" height="89" viewBox="0 0 89 89">
    <g fill="none" fill-rule="evenodd">
        <path fill="#3A4E6F" d="M43.5 0c8.102 0 15.687 2.215 22.182 6.072-.744.966-1.318 2.051-1.7 3.208C57.794 5.568 50.713 3.613 43.5 3.625c-7.489 0-14.496 2.067-20.48 5.655-.383-1.157-.958-2.242-1.701-3.208C28.03 2.085 35.695-.013 43.5 0m37.428 21.318C84.915 28.03 87.013 35.694 87 43.5c0 8.102-2.215 15.687-6.072 22.181-.966-.744-2.051-1.318-3.208-1.7 3.712-6.186 5.667-13.267 5.655-20.481 0-7.489-2.067-14.496-5.655-20.482 1.157-.382 2.242-.956 3.208-1.7m-74.856 0c.966.744 2.051 1.318 3.209 1.7C5.568 29.205 3.613 36.286 3.626 43.5c0 7.489 2.066 14.496 5.655 20.48-1.158.383-2.243.958-3.21 1.701C2.086 58.97-.011 51.305.002 43.5c0-8.102 2.215-15.687 6.07-22.182m59.611 59.61l-.421.246C58.648 85.002 51.14 87.012 43.5 87c-8.103 0-15.688-2.216-22.182-6.072.744-.966 1.318-2.051 1.7-3.209 6.186 3.713 13.267 5.668 20.481 5.655 7.489 0 14.496-2.066 20.481-5.655.386 1.17.965 2.251 1.701 3.21" transform="translate(1 1)"/>
        <path stroke="#FFF" stroke-width=".75" d="M43.5 0c8.102 0 15.687 2.215 22.182 6.072-.744.966-1.318 2.051-1.7 3.208C57.794 5.568 50.713 3.613 43.5 3.625c-7.489 0-14.496 2.067-20.48 5.655-.383-1.157-.958-2.242-1.701-3.208C28.03 2.085 35.695-.013 43.5 0zm37.428 21.318C84.915 28.03 87.013 35.694 87 43.5c0 8.102-2.215 15.687-6.072 22.181-.966-.744-2.051-1.318-3.208-1.7 3.712-6.186 5.667-13.267 5.655-20.481 0-7.489-2.067-14.496-5.655-20.482 1.157-.382 2.242-.956 3.208-1.7zm-74.856 0c.966.744 2.051 1.318 3.209 1.7C5.568 29.205 3.613 36.286 3.626 43.5c0 7.489 2.066 14.496 5.655 20.48-1.158.383-2.243.958-3.21 1.701C2.086 58.97-.011 51.305.002 43.5c0-8.102 2.215-15.687 6.07-22.182zm59.61 59.61l-.421.246C58.648 85.002 51.14 87.012 43.5 87c-8.103 0-15.688-2.216-22.182-6.072.744-.966 1.318-2.051 1.7-3.209 6.186 3.713 13.267 5.668 20.481 5.655 7.489 0 14.496-2.066 20.481-5.655.386 1.17.965 2.251 1.701 3.21z" transform="translate(1 1)"/>
        <path fill="#3A4E6F" d="M43 19.26c-3.025 0-5.478 2.454-5.478 5.48 0 3.025 2.453 5.478 5.478 5.478s5.478-2.453 5.478-5.478c0-3.026-2.453-5.48-5.478-5.48m0 14.61c-5.043 0-9.13-4.088-9.13-9.13 0-5.043 4.087-9.13 9.13-9.13 5.043 0 9.13 4.087 9.13 9.13 0 5.042-4.087 9.13-9.13 9.13m16.435 29.217c-1.01 0-1.826-.818-1.826-1.826V46.652c0-3.025-2.452-5.478-5.478-5.478h-2.897l-4.943 4.943c-.713.713-1.869.713-2.582 0l-4.943-4.943H33.87c-3.026 0-5.479 2.453-5.479 5.478v14.61c0 1.007-.817 1.825-1.826 1.825-1.008 0-1.826-.818-1.826-1.826V46.652c.006-5.04 4.09-9.124 9.131-9.13h3.652c.484 0 .948.192 1.292.535L43 42.244l4.187-4.187c.343-.343.807-.534 1.291-.534h3.653c5.04.005 9.124 4.089 9.13 9.13V61.26c0 1.008-.818 1.826-1.826 1.826m14.608 18.26c-4.034 0-7.304-3.27-7.304-7.303 0-4.035 3.27-7.305 7.304-7.305 4.034 0 7.304 3.27 7.304 7.305 0 4.033-3.27 7.303-7.304 7.303m0 3.653C80.094 85 85 80.095 85 74.044c0-6.052-4.906-10.957-10.957-10.957-6.05 0-10.956 4.905-10.956 10.957C63.087 80.095 67.992 85 74.043 85m0-65.74c-4.034 0-7.304-3.268-7.304-7.303 0-4.033 3.27-7.304 7.304-7.304 4.034 0 7.304 3.27 7.304 7.304 0 4.035-3.27 7.304-7.304 7.304m0 3.653C80.094 22.914 85 18.008 85 11.957 85 5.906 80.094 1 74.043 1c-6.05 0-10.956 4.906-10.956 10.957 0 6.05 4.905 10.957 10.956 10.957M11.957 81.347c-4.034 0-7.304-3.27-7.304-7.303 0-4.035 3.27-7.305 7.304-7.305 4.034 0 7.305 3.27 7.305 7.305 0 4.033-3.271 7.303-7.305 7.303m0 3.653c6.05 0 10.957-4.905 10.957-10.956 0-6.052-4.906-10.957-10.957-10.957C5.906 63.087 1 67.992 1 74.044 1 80.095 5.906 85 11.957 85m0-65.74c-4.034 0-7.304-3.268-7.304-7.303 0-4.033 3.27-7.304 7.304-7.304 4.034 0 7.305 3.27 7.305 7.304 0 4.035-3.271 7.304-7.305 7.304m0 3.653c6.05 0 10.957-4.906 10.957-10.957C22.914 5.906 18.008 1 11.957 1 5.906 1 1 5.906 1 11.957c0 6.05 4.906 10.957 10.957 10.957" transform="translate(1 1)"/>
        <path stroke="#FFF" stroke-width=".75" d="M43 19.26c-3.025 0-5.478 2.454-5.478 5.48 0 3.025 2.453 5.478 5.478 5.478s5.478-2.453 5.478-5.478c0-3.026-2.453-5.48-5.478-5.48zm0 14.61c-5.043 0-9.13-4.088-9.13-9.13 0-5.043 4.087-9.13 9.13-9.13 5.043 0 9.13 4.087 9.13 9.13 0 5.042-4.087 9.13-9.13 9.13zm16.435 29.217c-1.01 0-1.826-.818-1.826-1.826V46.652c0-3.025-2.452-5.478-5.478-5.478h-2.897l-4.943 4.943c-.713.713-1.869.713-2.582 0l-4.943-4.943H33.87c-3.026 0-5.479 2.453-5.479 5.478v14.61c0 1.007-.817 1.825-1.826 1.825-1.008 0-1.826-.818-1.826-1.826V46.652c.006-5.04 4.09-9.124 9.131-9.13h3.652c.484 0 .948.192 1.292.535L43 42.244l4.187-4.187c.343-.343.807-.534 1.291-.534h3.653c5.04.005 9.124 4.089 9.13 9.13V61.26c0 1.008-.818 1.826-1.826 1.826zm14.608 18.26c-4.034 0-7.304-3.27-7.304-7.303 0-4.035 3.27-7.305 7.304-7.305 4.034 0 7.304 3.27 7.304 7.305 0 4.033-3.27 7.303-7.304 7.303zm0 3.653C80.094 85 85 80.095 85 74.044c0-6.052-4.906-10.957-10.957-10.957-6.05 0-10.956 4.905-10.956 10.957C63.087 80.095 67.992 85 74.043 85zm0-65.74c-4.034 0-7.304-3.268-7.304-7.303 0-4.033 3.27-7.304 7.304-7.304 4.034 0 7.304 3.27 7.304 7.304 0 4.035-3.27 7.304-7.304 7.304zm0 3.654C80.094 22.914 85 18.008 85 11.957 85 5.906 80.094 1 74.043 1c-6.05 0-10.956 4.906-10.956 10.957 0 6.05 4.905 10.957 10.956 10.957zM11.957 81.347c-4.034 0-7.304-3.27-7.304-7.303 0-4.035 3.27-7.305 7.304-7.305 4.034 0 7.305 3.27 7.305 7.305 0 4.033-3.271 7.303-7.305 7.303zm0 3.653c6.05 0 10.957-4.905 10.957-10.956 0-6.052-4.906-10.957-10.957-10.957C5.906 63.087 1 67.992 1 74.044 1 80.095 5.906 85 11.957 85zm0-65.74c-4.034 0-7.304-3.268-7.304-7.303 0-4.033 3.27-7.304 7.304-7.304 4.034 0 7.305 3.27 7.305 7.304 0 4.035-3.271 7.304-7.305 7.304zm0 3.654c6.05 0 10.957-4.906 10.957-10.957C22.914 5.906 18.008 1 11.957 1 5.906 1 1 5.906 1 11.957c0 6.05 4.906 10.957 10.957 10.957z" transform="translate(1 1)"/>
        <path fill="#3A4E6F" d="M52.25 71c-.966 0-1.75-.784-1.75-1.75v-17.5c0-.967.784-1.75 1.75-1.75s1.75.783 1.75 1.75v17.5c0 .966-.784 1.75-1.75 1.75m-17.5 0c-.967 0-1.75-.784-1.75-1.75v-17.5c0-.967.783-1.75 1.75-1.75s1.75.783 1.75 1.75v17.5c0 .966-.783 1.75-1.75 1.75" transform="translate(1 1)"/>
        <path stroke="#FFF" stroke-width=".75" d="M52.25 71c-.966 0-1.75-.784-1.75-1.75v-17.5c0-.967.784-1.75 1.75-1.75s1.75.783 1.75 1.75v17.5c0 .966-.784 1.75-1.75 1.75zm-17.5 0c-.967 0-1.75-.784-1.75-1.75v-17.5c0-.967.783-1.75 1.75-1.75s1.75.783 1.75 1.75v17.5c0 .966-.783 1.75-1.75 1.75z" transform="translate(1 1)"/>
        <path fill="#009CDE" d="M51 25.5c0 3.59-2.91 6.5-6.5 6.5S38 29.09 38 25.5s2.91-6.5 6.5-6.5 6.5 2.91 6.5 6.5" transform="translate(1 1)"/>
    </g>
</svg>
