<svg xmlns="http://www.w3.org/2000/svg" width="82.051" height="75.933" viewBox="0 0 82.051 75.933"><defs><style>.a{fill:#009cde;}</style></defs><path class="a" d="M83.021,44.741c0-5.174-14.078-9.49-32.786-10.486V26.011H73.593V8.855H9.719V26.011H33.077v8.284C14.709,35.359.97,39.631.97,44.741s13.739,9.383,32.107,10.445v29.6H50.234V55.226C68.943,54.233,83.021,49.915,83.021,44.741ZM42,49.838c-20.081,0-36.359-3.108-36.359-6.944,0-3.248,11.673-5.975,27.441-6.734v1.955h0v8.012c2.843.159,5.83.243,8.917.243,2.842,0,5.6-.072,8.24-.2V36.13c16.11.712,28.12,3.468,28.12,6.763C78.355,46.73,62.076,49.838,42,49.838Z" transform="translate(-0.97 -8.855)"/></svg>