<svg xmlns="http://www.w3.org/2000/svg" width="456" height="452" viewBox="0 0 456 452">
    <g fill="none" fill-rule="evenodd">
        <g fill-rule="nonzero">
            <path fill="#3A4E6F" d="M40.445 155.225l1.855.748C33.076 178.84 27.998 203.828 27.998 230c0 109.352 88.647 198 198 198 54.675 0 104.175-22.161 140.006-57.992l1.414 1.414C331.225 407.615 281.226 430 225.998 430c-110.457 0-200-89.543-200-200 0-26.437 5.129-51.675 14.447-74.775zM425.998 230l-.001.122v-.245.123zm-200-198v-2c64.294 0 121.502 30.338 158.09 77.48l-1.58 1.225c-35.6-45.868-90.919-75.668-153.236-76.678L225.998 32v-2z"/>
            <path fill="#3A4E6F" d="M225.998 430c110.457 0 200-89.543 200-200s-89.543-200-200-200-200 89.543-200 200 89.543 200 200 200zm0-2c-109.353 0-198-88.648-198-198s88.647-198 198-198c109.352 0 198 88.648 198 198s-88.648 198-198 198z" opacity=".05"/>
            <path fill="#009CDE" d="M21.294 330.518c28.26 57.443 79.989 101.26 142.675 118.943l-.543 1.925C100.191 433.55 48.01 389.35 19.5 331.402l1.794-.884zM444.151 156.94c7.684 22.954 11.847 47.52 11.847 73.06 0 65.41-27.305 124.443-71.139 166.323l-1.38-1.448C426.931 353.36 453.998 294.84 453.998 230c0-25.319-4.127-49.674-11.745-72.429l1.898-.63zM225.998 0v2C143.268 2 70.83 46.062 30.87 111.998l-1.714-1.031C69.466 44.45 142.541 0 225.998 0z"/>
        </g>
        <g transform="translate(0 75)">
            <circle cx="382" cy="116" r="3" fill="#009CDE"/>
            <circle cx="89" cy="227" r="3" fill="#009CDE"/>
            <path fill="#3A4E6F" d="M306 50a1 1 0 0 1 1 1v4a1 1 0 1 1-2 0v-4a1 1 0 0 1 1-1zm-4-4a1 1 0 1 1 0 2h-4a1 1 0 1 1 0-2h4zm12 0a1 1 0 1 1 0 2h-4a1 1 0 1 1 0-2h4zm-8-8a1 1 0 0 1 1 1v4a1 1 0 1 1-2 0v-4a1 1 0 0 1 1-1zM147 284a1 1 0 0 1 1 1v4a1 1 0 1 1-2 0v-4a1 1 0 0 1 1-1zm-4-4a1 1 0 1 1 0 2h-4a1 1 0 1 1 0-2h4zm12 0a1 1 0 1 1 0 2h-4a1 1 0 1 1 0-2h4zm-8-8a1 1 0 0 1 1 1v4a1 1 0 1 1-2 0v-4a1 1 0 0 1 1-1z" opacity=".3"/>
            <rect width="24" height="2" x="122" y="39" fill="#3A4E6F" rx="1"/>
            <rect width="8" height="2" x="152" y="39" fill="#3A4E6F" rx="1"/>
            <rect width="24" height="2" x="306" y="274" fill="#3A4E6F" rx="1"/>
            <rect width="8" height="2" x="336" y="274" fill="#3A4E6F" rx="1"/>
            <circle cx="28" cy="117" r="28" fill="#FFF"/>
            <circle cx="388" cy="28" r="28" fill="#FFF"/>
            <circle cx="286" cy="340" r="28" fill="#FFF"/>
            <path fill="#3A4E6F" fill-opacity=".3" fill-rule="nonzero" d="M28 145c15.464 0 28-12.536 28-28S43.464 89 28 89 0 101.536 0 117s12.536 28 28 28zm0-2c-14.36 0-26-11.64-26-26s11.64-26 26-26 26 11.64 26 26-11.64 26-26 26z"/>
            <path fill="#FFF" fill-rule="nonzero" d="M29.063 105.544L27.947 101l-2.721.684 1.088 4.435c-.707.192-1.442.383-2.15.575l-1.088-4.462-2.722.684 1.116 4.544c-.571.164-1.17.329-1.714.466v-.028l-3.756.958.735 2.957s1.986-.548 1.96-.493c1.088-.274 1.605.274 1.85.821l1.279 5.201c.073-.018.073-.009 0 .028l1.769 7.281c.018.237-.245.63-.79 1.177.037.018-.625.183-1.986.493l.272 3.449 3.538-.903c.653-.165 1.306-.329 1.932-.466L27.675 133l2.722-.684-1.116-4.572c.762-.164 1.47-.356 2.177-.52l1.116 4.544 2.721-.684-1.115-4.599c4.49-1.423 7.402-3.422 6.722-7.911-.545-3.613-2.559-4.763-5.307-4.736 1.388-1.231 2.014-2.929 1.197-5.283-1.116-3.203-4.164-3.586-7.729-3.01zm6.341 13.824c.844 3.449-5.035 4.517-6.858 4.982l-1.497-6.104c1.85-.438 7.484-2.437 8.355 1.122zm-3.347-8.267c.762 3.12-4.137 3.997-5.66 4.38l-1.362-5.53c1.524-.41 6.205-2.135 7.022 1.15z"/>
            <path fill="#3A4E6F" fill-opacity=".3" fill-rule="nonzero" d="M388 56c15.464 0 28-12.536 28-28S403.464 0 388 0s-28 12.536-28 28 12.536 28 28 28zm0-2c-14.36 0-26-11.64-26-26s11.64-26 26-26 26 11.64 26 26-11.64 26-26 26z"/>
            <path fill="#FFF" fill-rule="nonzero" d="M387.153 35.282l1.497-5.87 3.545-1.348.882-3.45-.03-.085-3.49 1.327L392.072 16h-7.131l-3.288 12.862-2.746 1.044-.907 3.557 2.743-1.043-1.938 7.58h18.978L399 35.282h-11.847"/>
            <path fill="#3A4E6F" fill-opacity=".3" fill-rule="nonzero" d="M286 368c15.464 0 28-12.536 28-28s-12.536-28-28-28-28 12.536-28 28 12.536 28 28 28zm0-2c-14.36 0-26-11.64-26-26s11.64-26 26-26 26 11.64 26 26-11.64 26-26 26z"/>
            <path fill="#FFF" d="M295 339.359L286 345l-9-5.641L286 323l9 16.359zM277 342l9 5.241 9-5.241-9 16-9-16zm9.5-19v22-22zm0 35v-11 11z"/>
            <path fill="#3A4E6F" fill-rule="nonzero" d="M31.536 112.251v-7.085c0-.644-.425-1.166-.95-1.166h-6.172c-.525 0-.95.522-.95 1.166v7.085c0 .644-.425 1.166-.95 1.166h-2.563c-.784 0-1.23 1.101-.757 1.869l7.549 10.251c.38.617 1.135.617 1.515 0l7.548-10.251c.473-.768.027-1.87-.758-1.87h-2.562c-.524 0-.95-.52-.95-1.165zm1.69 3.166l-5.726 7.776-5.726-7.776h.74c1.73 0 2.95-1.498 2.95-3.166V106h4.072v6.251c0 1.669 1.22 3.166 2.95 3.166h.74zM387.774 15.256a1.173 1.173 0 0 1 1.463 0c2.813 2.49 6.226 3.65 10.652 3.65.6 0 1.05.443 1.05.955 0 .648.038 1.365.038 2.08l.02 1.359c.063 6.618-.532 14.965-12.173 18.632-.375.023-.6.023-.675 0-11.505-3.625-12.22-11.82-12.144-18.4l.029-1.59c.038-.716.038-1.399.038-2.081 0-.546.487-.955 1.05-.955 4.463 0 7.839-1.16 10.652-3.65zm.116 1.911c-2.363 2.126-5.198 3.115-8.948 3.115-.472 0-.882.35-.882.816 0 .582 0 1.164-.031 1.776-.126 5.793-.284 13.712 10.176 17.06.039.012.124.017.256.014l-.012.004c.028.003.06.008.101.017l.158.042-.201-.064c.075-.002.164-.006.265-.013 10.46-3.348 10.303-11.267 10.208-17.06 0-.612-.031-1.223-.031-1.776 0-.437-.378-.816-.882-.816-3.718 0-6.585-.99-8.948-3.115a.974.974 0 0 0-1.229 0zM289.536 340.749v7.085c0 .644-.425 1.166-.95 1.166h-6.172c-.525 0-.95-.522-.95-1.166v-7.085c0-.644-.425-1.166-.95-1.166h-2.563c-.784 0-1.23-1.101-.757-1.869l7.549-10.251c.38-.617 1.135-.617 1.515 0l7.548 10.251c.473.768.027 1.87-.758 1.87h-2.562c-.524 0-.95.52-.95 1.165zm-4.036-10.942l-5.726 7.776h.74c1.73 0 2.95 1.498 2.95 3.166V347h4.072v-6.251c0-1.669 1.22-3.166 2.95-3.166h.74l-5.726-7.776z"/>
            <rect width="23" height="2" x="274" y="353" fill="#3A4E6F" rx="1"/>
            <path fill="#3A4E6F" fill-rule="nonzero" d="M385.707 28.293a1 1 0 0 0-1.414 1.414L388 33.414l6.707-6.707a1 1 0 0 0-1.414-1.414L388 30.586l-2.293-2.293z"/>
            <rect width="23" height="2" x="16" y="130" fill="#3A4E6F" rx="1"/>
        </g>
        <g transform="translate(152 148)">
            <path fill="#E7EBF2" fill-rule="nonzero" d="M2.064 138.79h102.421v14.608H2.064z"/>
            <path fill="#009CDE" fill-rule="nonzero" d="M50.861 32.147a1.99 1.99 0 0 1-1.493-.674l-6.576-7.452a1.992 1.992 0 1 1 2.988-2.636l5.07 5.746L60.973 15.48a1.991 1.991 0 1 1 3.007 2.613L52.365 31.461a1.993 1.993 0 0 1-1.496.685h-.008z"/>
            <path fill="#E7EBF2" fill-rule="nonzero" d="M160.381 135.643l-18.317-18.317a5.895 5.895 0 0 1-.085-8.251c-.036.034-.072.069-.107.105l-4.169 4.168a5.897 5.897 0 0 0 0 8.339l18.318 18.318a5.896 5.896 0 0 0 8.338 0l4.169-4.169.084-.086a5.897 5.897 0 0 1-8.23-.107zM123.744 73.47c-3.568 3.436-10.498 8.908-18.465 8.908-7.966 0-14.897-5.472-18.464-8.909-1.633 1.573-2.561 2.72-2.561 2.72s9.413 11.627 21.025 11.627c11.612 0 21.026-11.628 21.026-11.628s-.93-1.146-2.561-2.719z"/>
            <path fill="#E7EBF2" fill-rule="nonzero" d="M105.28 77.909a6.187 6.187 0 0 1-5.768-3.955 6.158 6.158 0 0 0-.422 2.234 6.19 6.19 0 0 0 12.378 0c0-.788-.153-1.54-.422-2.234a6.187 6.187 0 0 1-5.767 3.955z"/>
            <path fill="#3A4E6F" fill-rule="nonzero" d="M52.908 45.815c12.631 0 22.908-10.277 22.908-22.907C75.816 10.276 65.54 0 52.908 0 40.276 0 30 10.277 30 22.908c0 12.631 10.276 22.907 22.908 22.907zm0-41.83c10.434 0 18.923 8.488 18.923 18.923 0 10.434-8.489 18.922-18.923 18.922-10.435 0-18.924-8.488-18.924-18.922 0-10.435 8.49-18.924 18.924-18.924zM169.936 126.089l-18.318-18.318c-3.075-3.075-8.08-3.074-11.156 0l-4.168 4.17c-3.075 3.074-3.075 8.08 0 11.155l18.318 18.317a7.835 7.835 0 0 0 5.578 2.31c2.108 0 4.088-.821 5.578-2.311l4.168-4.168c3.076-3.077 3.076-8.08 0-11.155zm-2.817 8.337l-4.168 4.168a3.877 3.877 0 0 1-2.76 1.144 3.878 3.878 0 0 1-2.761-1.143l-18.318-18.317a3.91 3.91 0 0 1 0-5.522l4.168-4.169a3.879 3.879 0 0 1 2.76-1.144c1.044 0 2.024.406 2.761 1.143l18.318 18.318a3.91 3.91 0 0 1 0 5.522zM104.271 44C86.477 44 72 58.477 72 76.271c0 17.795 14.477 32.272 32.271 32.272 17.795 0 32.272-14.477 32.272-32.272C136.543 58.477 122.066 44 104.27 44zm0 60.559c-15.597 0-28.287-12.69-28.287-28.288 0-15.597 12.69-28.287 28.287-28.287s28.288 12.69 28.288 28.287c0 15.598-12.69 28.288-28.288 28.288z"/>
            <path fill="#3A4E6F" fill-rule="nonzero" d="M130.55 107.07a1.99 1.99 0 0 0-2.6-.189c-6.733 5.026-14.748 7.683-23.175 7.683-21.39 0-38.79-17.401-38.79-38.79 0-21.39 17.4-38.79 38.79-38.79 21.389 0 38.79 17.4 38.79 38.79 0 8.428-2.658 16.442-7.683 23.175-.592.793-.512 1.9.188 2.6l2.664 2.667a1.993 1.993 0 0 0 2.818-2.817l-1.471-1.472c4.89-7.126 7.467-15.44 7.467-24.153 0-23.586-19.189-42.774-42.774-42.774C81.188 33 62 52.188 62 75.774c0 23.586 19.189 42.775 42.774 42.775 8.714 0 17.027-2.576 24.152-7.467l1.471 1.472a1.992 1.992 0 0 0 2.819-2.817l-2.666-2.667z"/>
            <path fill="#3A4E6F" fill-rule="nonzero" d="M127.853 74.935c-.409-.505-10.154-12.367-22.574-12.367-12.42 0-22.165 11.862-22.574 12.367a1.991 1.991 0 0 0 0 2.507c.41.505 10.155 12.366 22.574 12.366 12.42 0 22.165-11.86 22.574-12.366a1.993 1.993 0 0 0 0-2.507zm-22.574 10.888c-8.326 0-15.636-6.775-18.353-9.637 2.711-2.865 10.001-9.633 18.353-9.633 8.326 0 15.636 6.774 18.353 9.638-2.711 2.865-10.002 9.632-18.353 9.632z"/>
            <path fill="#3A4E6F" fill-rule="nonzero" d="M105.28 68.008c-4.512 0-8.182 3.67-8.182 8.181 0 4.511 3.67 8.182 8.181 8.182 4.511 0 8.182-3.67 8.182-8.182-.001-4.512-3.67-8.181-8.182-8.181zm0 12.378a4.202 4.202 0 0 1-4.198-4.198 4.202 4.202 0 0 1 4.197-4.197 4.202 4.202 0 0 1 4.197 4.197 4.202 4.202 0 0 1-4.197 4.198zM21 21H4a4 4 0 0 0-4 4v126a4 4 0 0 0 4 4h99a4 4 0 0 0 4-4v-27a2 2 0 0 0-4 0v27H4V25h17a2 2 0 1 0 0-4z"/>
            <rect width="40" height="4" x="17" y="59" fill="#3A4E6F" rx="2"/>
            <rect width="38" height="4" x="17" y="75" fill="#3A4E6F" rx="2"/>
            <rect width="42" height="4" x="17" y="91" fill="#3A4E6F" rx="2"/>
            <rect width="52" height="4" x="17" y="107" fill="#3A4E6F" rx="2"/>
            <rect width="74" height="4" x="17" y="123" fill="#3A4E6F" rx="2"/>
            <path fill="#3A4E6F" fill-rule="nonzero" d="M107 29v-4a4 4 0 0 0-4-4H85a2 2 0 1 0 0 4h18v4a2 2 0 0 0 4 0z"/>
        </g>
    </g>
</svg>
