<svg xmlns="http://www.w3.org/2000/svg" width="96" height="96" viewBox="0 0 96 96">
    <g fill="none" fill-rule="nonzero">
        <path fill="#E7EBF2" d="M42.182 29.142c0 .905 1.093 1.358 1.733.718l7.88-7.88a1.015 1.015 0 0 0 0-1.435L50.45 19.2l-6.535 6.535c-.64.64-1.733.187-1.733-.718v4.125zM28.012 71.027l1.964-1.134c.783-.452.629-1.625-.245-1.859l-2.513-.674-1.756 1.014a29.931 29.931 0 0 0 2.55 2.653zM42.182 24.415V20.29C28.66 23 18.441 34.965 18.441 49.273c0 .692.024 1.378.072 2.058.928-13.381 10.803-24.338 23.67-26.916zM57.025 25.256c11.27 3.621 19.613 13.831 20.463 26.076.047-.68.071-1.367.071-2.059 0-13.152-8.636-24.319-20.534-28.143a2.957 2.957 0 0 1-1.204-.741 2.942 2.942 0 0 0 1.204 4.867zM79.68 65.124l1.449.836a35.188 35.188 0 0 0 2.308-12.562c0-.693-.02-1.382-.06-2.066a35.187 35.187 0 0 1-3.697 13.792zM82.93 71.125l-2.758-1.592-8.25 2.21a1.015 1.015 0 0 1-1.244-.717l-2.116-7.896c-.525.116-.93.65-.768 1.258l2.884 10.763c.145.542.702.863 1.243.718l10.764-2.884c.873-.234 1.028-1.408.245-1.86zM67.888 78.582A35.212 35.212 0 0 1 48 84.711c-11.198 0-21.192-5.227-27.69-13.362l-3.982 2.298a.997.997 0 0 1-.72.116l-.768 2.867c-.234.874.705 1.594 1.488 1.142l3.981-2.298C26.808 83.609 36.802 88.836 48 88.836a35.21 35.21 0 0 0 19.888-6.129c1.567-1.067 1.695-3.243.45-4.5a3.018 3.018 0 0 1-.45.375zM17.486 61.694c.135-.078.262-.166.38-.261a1.01 1.01 0 0 1 .32-.3c.604-.659.89-1.573.724-2.485a29.453 29.453 0 0 1-.313-2.214c-.254.463-.633.859-1.111 1.135-1.748 1.009-3.997.003-4.357-1.983a35.364 35.364 0 0 1-.507-4.255 35.35 35.35 0 0 0 .507 8.38c.36 1.986 2.609 2.992 4.357 1.983z"/>
        <path fill="#3A4E6F" d="M16.008 58.901c.675 0 1.347-.174 1.946-.52a3.87 3.87 0 0 0 1.879-4.024 28.705 28.705 0 0 1-.455-5.084c0-13.207 9.13-24.725 21.866-27.816v3.56c0 .793.474 1.501 1.206 1.805a1.946 1.946 0 0 0 2.128-.424l7.88-7.88c.76-.76.76-2 0-2.76l-7.88-7.88a1.948 1.948 0 0 0-2.128-.423 1.947 1.947 0 0 0-1.206 1.804v4.28c-8.088 1.528-15.476 5.807-20.877 12.11a36.333 36.333 0 0 0-8.16 30.105 3.783 3.783 0 0 0 2.162 2.786c.521.242 1.081.361 1.64.361zM13.5 49.273c0-16.942 12.127-31.25 28.836-34.023a.938.938 0 0 0 .784-.925V9.258c0-.023 0-.052.048-.072a.09.09 0 0 1 .036-.008c.023 0 .037.014.048.025l7.88 7.88c.03.03.03.079 0 .11l-7.88 7.879c-.016.016-.038.036-.084.016-.048-.02-.048-.048-.048-.071V20.29a.937.937 0 0 0-1.122-.92c-14.193 2.845-24.494 15.42-24.494 29.903 0 1.814.163 3.636.484 5.417a1.99 1.99 0 0 1-.97 2.067 1.996 1.996 0 0 1-1.86.082 1.93 1.93 0 0 1-1.106-1.42 34.464 34.464 0 0 1-.552-6.145zM68.18 72.79c-1.298-.749-2.887-.682-4.15.176A28.423 28.423 0 0 1 48 77.895a28.575 28.575 0 0 1-21.076-9.282l3.521-2.033a1.947 1.947 0 0 0 .96-1.945 1.947 1.947 0 0 0-1.43-1.632L19.21 60.119a1.938 1.938 0 0 0-1.482.195 1.942 1.942 0 0 0-.91 1.186l-2.884 10.764a1.948 1.948 0 0 0 .698 2.054 1.946 1.946 0 0 0 2.164.142l3.291-1.9c6.953 8.329 17.08 13.089 27.913 13.089a36.12 36.12 0 0 0 20.415-6.291 3.868 3.868 0 0 0 1.698-3.359 3.854 3.854 0 0 0-1.934-3.21zm-.82 5.018A34.255 34.255 0 0 1 48 83.773c-10.528 0-20.354-4.741-26.959-13.009a.937.937 0 0 0-1.2-.226l-3.982 2.298c-.02.012-.044.026-.086-.005-.041-.032-.034-.06-.027-.082l2.884-10.764c.009-.035.061-.064.094-.054l10.764 2.883c.023.006.05.014.057.065.007.051-.018.066-.038.077l-4.514 2.607a.936.936 0 0 0-.246 1.418c5.82 6.857 14.295 10.79 23.253 10.79a30.289 30.289 0 0 0 17.084-5.255c.662-.45 1.489-.49 2.158-.103.608.351.972.955.998 1.656a2.001 2.001 0 0 1-.88 1.738zm16.038-11.619l-2.492-1.439a35.887 35.887 0 0 0 3.469-15.475c0-7.854-2.474-15.337-7.154-21.639-4.522-6.089-10.966-10.71-18.146-13.01a3.803 3.803 0 0 0-3.436.56 3.857 3.857 0 0 0-1.6 3.146 3.87 3.87 0 0 0 2.699 3.692C68.63 25.845 76.62 36.796 76.62 49.273c0 4.031-.826 7.923-2.458 11.583l-4.413-2.548a1.946 1.946 0 0 0-2.165.142 1.947 1.947 0 0 0-.697 2.054l2.884 10.764c.135.504.458.925.91 1.186a1.943 1.943 0 0 0 1.481.196l10.764-2.885a1.947 1.947 0 0 0 1.43-1.63 1.945 1.945 0 0 0-.959-1.947zm-.9 1.701c-.006.052-.034.06-.056.065l-10.764 2.884c-.032.01-.085-.019-.094-.054L68.7 60.02c-.006-.023-.014-.05.027-.082a.078.078 0 0 1 .047-.019c.016 0 .028.008.04.014l5.298 3.059a.936.936 0 0 0 1.311-.4 30.13 30.13 0 0 0 3.074-13.318c0-13.295-8.514-24.963-21.185-29.035a2.001 2.001 0 0 1-1.398-1.907 2 2 0 0 1 .83-1.631 1.947 1.947 0 0 1 1.759-.29C72.856 21.01 82.5 34.216 82.5 49.274c0 5.41-1.23 10.601-3.657 15.43a.938.938 0 0 0 .368 1.234l3.25 1.875c.02.012.045.026.038.077z"/>
        <path fill="#009CDE" d="M48.88 37.828L47.694 33l-2.892.727 1.157 4.712c-.752.203-1.532.407-2.284.61l-1.157-4.74-2.891.727 1.185 4.828c-.607.174-1.243.349-1.822.494v-.029L35 41.347l.78 3.141s2.112-.581 2.083-.523c1.156-.29 1.706.29 1.966.872l1.359 5.527c.077-.02.077-.01 0 .029l1.88 7.736c.019.252-.26.67-.84 1.25.04.02-.664.195-2.11.524l.29 3.665 3.758-.96a69.112 69.112 0 0 1 2.053-.494L47.405 67l2.891-.727-1.185-4.857c.81-.175 1.561-.378 2.313-.553l1.186 4.828 2.891-.727-1.185-4.886c4.77-1.513 7.865-3.636 7.142-8.406-.578-3.839-2.718-5.06-5.639-5.031 1.475-1.31 2.14-3.112 1.273-5.614-1.186-3.403-4.424-3.81-8.212-3.199zm6.737 14.688c.896 3.664-5.35 4.799-7.287 5.293l-1.59-6.486c1.966-.465 7.952-2.588 8.877 1.193zm-3.557-8.784c.81 3.316-4.395 4.247-6.014 4.654L44.6 42.51c1.62-.437 6.593-2.269 7.46 1.221z"/>
    </g>
</svg>
