<svg xmlns="http://www.w3.org/2000/svg" width="96" height="96" viewBox="0 0 96 96">
    <g fill="none" fill-rule="evenodd">
        <path fill="#E7EBF2" fill-rule="nonzero" d="M72.672 72.89c-6.694 0-12.302-4.647-13.776-10.89a14.2 14.2 0 0 0-.38 3.266c0 7.818 6.338 14.155 14.156 14.155 7.818 0 14.155-6.337 14.155-14.155 0-1.124-.131-2.217-.379-3.266-1.474 6.243-7.082 10.89-13.776 10.89zM23.703 33.108c-6.694 0-12.302-4.646-13.776-10.89a14.202 14.202 0 0 0-.38 3.266c0 7.818 6.338 14.155 14.156 14.155 7.818 0 14.155-6.337 14.155-14.155 0-1.124-.131-2.217-.379-3.266-1.474 6.244-7.082 10.89-13.776 10.89z"/>
        <path fill="#009CDE" d="M78 64.535l-5.5 3.287-5.5-3.287L72.5 55l5.5 9.535zm-11 1.75l5.5 3.056 5.5-3.055-5.5 9.325-5.5-9.325z"/>
        <path fill="#009CDE" fill-rule="nonzero" d="M23.348 18.556L22.72 16l-1.53.385.612 2.494c-.398.108-.811.216-1.21.324l-.612-2.51-1.53.385.627 2.556c-.321.092-.658.185-.964.262v-.016L16 20.42l.413 1.662s1.118-.308 1.103-.277c.612-.154.903.154 1.04.462l.72 2.925c.04-.01.04-.005 0 .016l.995 4.096c.01.133-.138.354-.444.662.02.01-.352.102-1.117.277l.153 1.94 1.99-.508c.367-.092.735-.185 1.087-.262L22.567 34l1.531-.385-.628-2.571c.43-.093.827-.2 1.225-.293l.628 2.556 1.53-.385-.627-2.587c2.526-.8 4.164-1.924 3.781-4.45-.306-2.032-1.439-2.679-2.985-2.663.78-.693 1.133-1.648.674-2.972-.628-1.802-2.343-2.017-4.348-1.694zm3.567 7.776c.474 1.94-2.832 2.54-3.858 2.802l-.842-3.433c1.041-.247 4.21-1.37 4.7.63zm-1.883-4.65c.429 1.755-2.327 2.248-3.184 2.463l-.766-3.11c.858-.23 3.49-1.201 3.95.647z"/>
        <path fill="#3A4E6F" fill-rule="nonzero" d="M38.16 15.9a30.85 30.85 0 0 1 3.22-.904 17.394 17.394 0 0 0-2.39 2.38.938.938 0 0 0 1.439 1.202c2.095-2.51 4.44-3.97 6.835-4.27v16.344c-2.309-.033-4.6-.194-6.821-.48a.937.937 0 1 0-.239 1.86c2.3.295 4.671.461 7.06.496v11.91H32.82c.015-1.01.055-2.02.118-3.011a.937.937 0 1 0-1.872-.119 64.26 64.26 0 0 0-.12 3.13H17.075a31.75 31.75 0 0 1 .112-1.877.938.938 0 0 0-1.868-.166 33.74 33.74 0 0 0-.133 2.98 32.84 32.84 0 0 0 7.076 20.397l.03.051a.942.942 0 0 0 .165.194c6.054 7.53 15.338 12.358 25.73 12.358 3.466 0 6.88-.535 10.148-1.59A.937.937 0 1 0 57.761 75c-.911.294-1.835.545-2.767.753.7-.567 1.38-1.222 2.036-1.965a.938.938 0 0 0-1.406-1.24c-2 2.267-4.224 3.597-6.484 3.89v-16.34a60.63 60.63 0 0 1 7.063.514.937.937 0 1 0 .248-1.858 62.482 62.482 0 0 0-7.311-.532v-11.91h14.416a62.244 62.244 0 0 1-.163 3.678.938.938 0 0 0 1.87.14c.094-1.257.15-2.537.169-3.817h13.867c-.03 1.01-.108 2.02-.234 3.014a.937.937 0 1 0 1.86.236c.174-1.38.263-2.788.263-4.188a32.84 32.84 0 0 0-7.073-20.393.934.934 0 0 0-.2-.251C67.86 17.2 58.578 12.374 48.188 12.374c-3.64 0-7.217.589-10.632 1.75a.938.938 0 1 0 .604 1.775zm20.727 7.229c.942 1.851 1.752 3.896 2.42 6.089-3.77.875-7.893 1.37-12.167 1.434V14.31c3.636.46 7.066 3.55 9.747 8.819zm-41.81 23.183h13.867c.07 4.896.69 9.613 1.8 13.879-3.537.969-6.736 2.276-9.426 3.88a30.964 30.964 0 0 1-6.242-17.758zm7.426 19.236c2.506-1.462 5.47-2.66 8.747-3.556.705 2.332 1.564 4.508 2.567 6.48 1.6 3.147 3.48 5.597 5.54 7.273-6.68-1.502-12.555-5.157-16.854-10.197zm12.985 2.073c-.942-1.851-1.752-3.896-2.42-6.089 3.778-.877 7.912-1.372 12.197-1.434v16.345c-3.648-.447-7.09-3.54-9.777-8.822zm9.777-9.398c-4.455.063-8.762.583-12.705 1.507-1.072-4.113-1.67-8.673-1.74-13.417h14.445v11.91zm1.875-25.696c4.444-.065 8.74-.585 12.675-1.506 1.072 4.112 1.67 8.672 1.74 13.416H49.139v-11.91zm30.158 11.91H65.43c-.07-4.895-.689-9.611-1.799-13.877 3.537-.97 6.735-2.277 9.426-3.881a30.958 30.958 0 0 1 6.241 17.759zm-7.427-19.235c-2.505 1.462-5.47 2.66-8.746 3.556-.706-2.332-1.565-4.508-2.567-6.48-1.602-3.147-3.48-5.597-5.54-7.273 6.68 1.502 12.555 5.157 16.853 10.196zm.801 24.97c-8.322 0-15.093 6.771-15.093 15.094 0 6.098 3.635 11.362 8.852 13.74-14.842 8.085-33.207 5.5-45.29-6.584-9.92-9.919-13.585-24.65-9.604-38.016 2.75 3.74 7.18 6.17 12.166 6.17 8.322 0 15.093-6.77 15.093-15.092 0-8.323-6.771-15.092-15.093-15.092S8.61 17.162 8.61 25.484a15 15 0 0 0 1.631 6.821 40.213 40.213 0 0 0-1.27 21.587 39.982 39.982 0 0 0 10.844 19.855c6.498 6.498 14.75 10.475 23.864 11.5 1.486.167 2.978.25 4.467.25 7.233 0 14.403-1.952 20.604-5.656 1.251.337 2.566.517 3.922.517 8.322 0 15.093-6.77 15.093-15.092 0-8.322-6.771-15.093-15.093-15.093zM23.703 12.268c7.288 0 13.218 5.93 13.218 13.217 0 7.289-5.93 13.218-13.218 13.218s-13.218-5.93-13.218-13.218 5.93-13.217 13.218-13.217zm48.969 66.216c-7.288 0-13.218-5.93-13.218-13.217 0-7.289 5.93-13.218 13.218-13.218s13.218 5.93 13.218 13.218-5.93 13.217-13.218 13.217z"/>
    </g>
</svg>
