<?xml version="1.0" encoding="iso-8859-1"?>
<!-- Generator: Adobe Illustrator 19.0.0, SVG Export Plug-In . SVG Version: 6.00 Build 0)  -->
<svg version="1.1" id="Capa_1" xmlns="http://www.w3.org/2000/svg" xmlns:xlink="http://www.w3.org/1999/xlink" x="0px" y="0px"
	 viewBox="0 0 56.48 56.48" style="enable-background:new 0 0 56.48 56.48;" xml:space="preserve">
<g>
	<g>
		<path d="M55.026,9.939H1.454C0.65,9.939,0,10.59,0,11.393v33.694c0,0.803,0.65,1.455,1.454,1.455h53.572
			c0.804,0,1.454-0.651,1.454-1.454V11.393C56.48,10.59,55.83,9.939,55.026,9.939z M15.567,13.945h9.416l15.825-0.533l-0.812,1.395
			l-13.654-0.533H15.566L15.567,13.945z M40.914,17.228l0.001,0.328h-2.402l-0.31,0.533l-11.544-0.533H15.568v-0.328h9.966
			l13.48-0.533l-0.311,0.533H40.914z M15.566,18.869h10.242l12.31-0.533l-0.311,0.533h3.107l0.001,0.328h-3.299l-0.312,0.533
			l-10.488-0.533h-11.25V18.869z M15.566,20.51h10.516l11.139-0.533l-0.312,0.533h4.005v0.328h-4.195l-0.312,0.533l-9.434-0.533
			H15.566V20.51z M15.566,27.072h11.59l6.348-0.533l-0.311,0.533h7.721V27.4h-7.912l-0.31,0.533L27.569,27.4H15.566V27.072z
			 M15.566,30.353h12.142l4.003-0.533l-0.312,0.533h9.515v0.328h-9.706l-0.31,0.533l-3.014-0.533H15.566V30.353z M19.924,42.997
			c-0.7,0-1.332,0-2.037,0c0-1.121,0-2.242,0-3.372c0.281,0,0.562,0,0.851,0c0,0.933,0,1.861,0,2.802c0.445,0,0.883,0,1.333,0
			C20.042,42.627,19.95,42.81,19.924,42.997z M24.179,43.026l-0.026-0.074c-0.061-0.211-0.123-0.421-0.186-0.631
			c-0.012-0.038-0.026-0.074-0.041-0.115c-0.35,0-0.73-0.002-1.076,0.003c-0.026,0-0.032,0.038-0.042,0.067
			c-0.08,0.225-0.156,0.451-0.23,0.679l-0.04,0.067l-0.75-0.016c0.06-0.172,0.117-0.36,0.176-0.525
			c0.324-0.918,0.629-1.735,0.95-2.654c0.03-0.088-0.209-0.215-0.117-0.213c0.263,0.006,0.826,0.003,1.089,0.001
			c0.056,0,0.089,0.009,0.11,0.071c0.357,1.075,0.717,2.194,1.076,3.269c0.007,0.02,0.011,0.044,0.017,0.07L24.179,43.026z
			 M28.544,42.838c-0.271,0.158-0.56,0.223-0.868,0.229c-0.378,0.008-0.74-0.064-1.102-0.197c0.055-0.192,0.107-0.376,0.16-0.561
			c0.159,0.041,0.31,0.096,0.466,0.119c0.186,0.027,0.377,0.039,0.565,0.035c0.19-0.004,0.303-0.098,0.338-0.242
			c0.044-0.183-0.003-0.31-0.177-0.414c-0.145-0.086-0.306-0.146-0.455-0.226s-0.302-0.157-0.436-0.259
			c-0.481-0.367-0.443-1.364,0.308-1.663c0.299-0.12,0.609-0.139,0.923-0.106c0.204,0.022,0.406,0.067,0.618,0.103
			c-0.049,0.205-0.093,0.383-0.136,0.563c-0.196-0.029-0.382-0.064-0.57-0.084c-0.108-0.012-0.219-0.006-0.327,0.008
			c-0.129,0.015-0.22,0.087-0.253,0.22c-0.035,0.14-0.004,0.262,0.11,0.349c0.078,0.06,0.168,0.106,0.257,0.15
			c0.179,0.088,0.361,0.171,0.541,0.256C29.262,41.476,29.076,42.528,28.544,42.838z M33.398,42.995c-0.752,0-1.437,0-2.195,0
			c0-1.121,0-2.243,0-3.372c0.719,0,1.438,0,2.167,0c-0.026,0.184-0.055,0.368-0.083,0.559c-0.409,0-0.813,0-1.225,0
			c0,0.268,0,0.527,0,0.799c0.387,0,0.768,0,1.16,0c0,0.188,0,0.368,0,0.56c-0.387,0-0.771,0-1.162,0c0,0.3,0,0.589,0,0.888
			c0.496,0,0.921,0,1.423,0C33.453,42.622,33.428,42.805,33.398,42.995z M37.594,43.031l-1.092-1.923
			c0.076,0.002,0.252,0.003,0.325-0.005c0.405-0.036,0.494-0.311,0.435-0.622c-0.023-0.132-0.106-0.222-0.23-0.267
			c-0.182-0.067-0.37-0.062-0.561-0.041v2.832h-0.857v-3.387l1.52-0.003c0.07,0.007,0.174,0.016,0.244,0.028
			c0.113,0.019,0.195,0.05,0.301,0.092c0.454,0.176,0.542,0.598,0.438,1.01c-0.072,0.282-0.273,0.446-0.538,0.546
			c-0.015,0.007-0.03,0.013-0.046,0.017c-0.016,0.006-0.031,0.011-0.047,0.015l1.001,1.71L37.594,43.031z M40.914,37.244H27.62
			l-0.31,0.533l-0.407-0.533H15.566v-0.328h11.45l1.106-0.533l-0.311,0.533h13.103V37.244z M40.914,35.603H28.549l-0.343,0.588
			l-0.722-0.588H15.566v-0.328h12.212l1.239-0.479l-0.277,0.479h12.174V35.603z M40.913,33.961h-11.5l-0.31,0.533l-1.307-0.533
			h-12.23v-0.328H27.81l2.106-0.533l-0.311,0.533h11.309L40.913,33.961z M40.915,32.322H30.311l-0.309,0.533l-1.96-0.533H15.566
			v-0.328h12.418l2.83-0.533l-0.312,0.533h10.412h0.001V32.322z M40.915,29.039h-8.809l-0.311,0.533l-4.069-0.533h-12.16v-0.328
			h11.869l5.173-0.533l-0.311,0.533h8.617h0.001V29.039z M40.915,25.758H33.9l-0.312,0.533l-6.177-0.533H15.566V25.43h11.317
			l7.519-0.533L34.09,25.43h6.824h0.001V25.758z M34.797,24.119l-0.311,0.533l-7.232-0.533H15.566v-0.328h11.042l8.689-0.533
			l-0.31,0.533h5.927l0.001,0.328H34.797z M35.735,22.478l-0.35,0.602l-9.35-0.602H15.567V22.15h12.03l8.598-0.465l-0.271,0.465
			h4.99l0.002,0.328H35.735z M39.411,15.914L39.1,16.448l-12.6-0.533H15.568v-0.328h9.691l14.653-0.533L39.6,15.586h1.314
			l0.002,0.328H39.411z"/>
	</g>
</g>
<g>
	<g>
		<path d="M23.397,40.443c-0.133,0.413-0.262,0.811-0.394,1.217c0.261,0,0.506,0,0.762,0C23.643,41.255,23.522,40.859,23.397,40.443
			z"/>
	</g>
</g>
<g>
</g>
<g>
</g>
<g>
</g>
<g>
</g>
<g>
</g>
<g>
</g>
<g>
</g>
<g>
</g>
<g>
</g>
<g>
</g>
<g>
</g>
<g>
</g>
<g>
</g>
<g>
</g>
<g>
</g>
</svg>
