<svg xmlns="http://www.w3.org/2000/svg" width="203.283" height="56.375" viewBox="0 0 203.283 56.375">
  <g id="layer1" transform="translate(260.955 41.214)">
    <path id="path1139" d="M-260.955-23.352h12.094l7.042,18.017,7.134-18.017h11.775L-240.641,19.3h-11.85L-247.637,8Z" transform="translate(0 -4.138)" fill="#888789"/>
    <path id="path1141" d="M-199.943-24.285c-9.087,0-14.831,8.149-14.831,16.265,0,9.132,6.3,16.373,14.659,16.373,6.237,0,8.588-3.8,8.588-3.8v2.96h10.548v-31.08h-10.548v2.825s-2.624-3.543-8.416-3.543ZM-197.7-14.3a6.2,6.2,0,0,1,6.356,6.311A6.224,6.224,0,0,1-197.7-1.6a6.381,6.381,0,0,1-6.372-6.25A6.155,6.155,0,0,1-197.7-14.3Z" transform="translate(-10.699 -3.922)" fill="#888789"/>
    <path id="path1145" d="M-166.06,3.59v-44.8h11.033v16.657a10.215,10.215,0,0,1,8.109-3.647c6.714,0,10.647,5,10.647,12.15V3.591h-10.952V-13.363c0-2.419-1.152-4.756-3.762-4.756-2.657,0-4.042,2.372-4.042,4.756V3.59Z" transform="translate(-21.986)" fill="#888789"/>
    <path id="path1147" d="M-107.811-24.28a16.078,16.078,0,0,0-16.6,16.391c0,9.648,7.5,16.243,16.642,16.243,8.858,0,16.61-6.3,16.61-16.082,0-10.707-8.116-16.552-16.649-16.552Zm.1,10.076a6.262,6.262,0,0,1,6.219,6.326,6.36,6.36,0,0,1-6.219,6.219,6.157,6.157,0,0,1-6.174-6.25,6,6,0,0,1,6.174-6.3Z" transform="translate(-31.635 -3.923)" fill="#888789"/>
    <path id="path1153" d="M-62.219-24.28A16.078,16.078,0,0,0-78.822-7.89c0,9.648,7.5,16.243,16.642,16.243,8.858,0,16.61-6.3,16.61-16.082,0-10.707-8.116-16.552-16.649-16.552Zm.1,10.076A6.262,6.262,0,0,1-55.9-7.878,6.36,6.36,0,0,1-62.12-1.659a6.157,6.157,0,0,1-6.174-6.25,6,6,0,0,1,6.174-6.3Z" transform="translate(-42.198 -3.923)" fill="#888789"/>
    <circle id="path1155" cx="7.326" cy="7.326" r="7.326" transform="translate(-86.388 -10.402)" fill="#888789"/>
    <path id="path1157" d="M-15.521-13.093H-28.71L-17-41.214h13.14Z" transform="translate(-53.808)" fill="#888789"/>
  </g>
</svg>
