<svg xmlns="http://www.w3.org/2000/svg" width="30" height="30" viewBox="0 0 30 30">
    <path fill="#009CDE" fill-rule="nonzero" d="M15 4c6.075 0 11 4.925 11 11 0 3.457-1.594 6.54-4.088 8.558l-.974-1.205-1.645-1.646 1.414-1.414 1.325 1.324a8.957 8.957 0 0 0 1.913-4.616L22 16v-2h1.945a8.957 8.957 0 0 0-1.913-4.617l-1.325 1.324-1.414-1.414 1.325-1.325A8.957 8.957 0 0 0 16 6.055L16 8h-2V6.055a8.957 8.957 0 0 0-4.617 1.913l1.324 1.325-1.414 1.414-1.325-1.324A8.957 8.957 0 0 0 6.055 14H8v2l-1.945.001a8.957 8.957 0 0 0 1.913 4.616l1.325-1.324 1.414 1.414-1.646 1.646-.973 1.205A10.979 10.979 0 0 1 4 15C4 8.925 8.925 4 15 4zm1 7v4.171a3.001 3.001 0 1 1-2 0V11h2zm-1 6a1 1 0 1 0 0 2 1 1 0 0 0 0-2z"/>
</svg>
