<svg xmlns="http://www.w3.org/2000/svg" width="19.636" height="27" viewBox="0 0 19.636 27">
    <defs>
        <style>
            .cls-1{fill:#637696}
        </style>
    </defs>
    <g id="noun_Location_2565177" transform="translate(-4.232 -272.658)">
        <path id="Path_12155" d="M14.051 272.658a9.828 9.828 0 0 0-9.818 9.818c0 3.937 2.384 8.135 4.718 11.4a49.313 49.313 0 0 0 4.668 5.6.614.614 0 0 0 .867 0 49.3 49.3 0 0 0 4.668-5.6c2.333-3.267 4.715-7.464 4.715-11.4a9.828 9.828 0 0 0-9.818-9.818zm0 1.228a8.581 8.581 0 0 1 8.591 8.591c0 3.426-2.218 7.511-4.487 10.688a39.476 39.476 0 0 1-4.1 4.926 39.566 39.566 0 0 1-4.1-4.926C7.68 289.988 5.46 285.9 5.46 282.476a8.581 8.581 0 0 1 8.591-8.591z" class="cls-1"/>
        <path id="Path_12156" d="M13.76 277.42a4.766 4.766 0 1 0 4.766 4.766 4.775 4.775 0 0 0-4.766-4.766zm0 1.362a3.4 3.4 0 1 1-3.4 3.4 3.395 3.395 0 0 1 3.4-3.4z" class="cls-1" transform="translate(.291 .478)"/>
    </g>
</svg>
