<svg xmlns="http://www.w3.org/2000/svg" xmlns:xlink="http://www.w3.org/1999/xlink" width="96" height="94" viewBox="0 0 96 94">
  <defs>
    <clipPath id="clip-Artboard_1">
      <rect width="96" height="94"/>
    </clipPath>
  </defs>
  <g id="Artboard_1" data-name="Artboard – 1" clip-path="url(#clip-Artboard_1)">
    <rect width="96" height="94" fill="#fff"/>
    <g id="Group_3409" data-name="Group 3409" transform="translate(-567 -1034)">
      <path id="Polygon_1" data-name="Polygon 1" d="M7.5,0,15,20H0Z" transform="translate(623 1101) rotate(180)" fill="#009cde"/>
      <g id="Group_3407" data-name="Group 3407" transform="translate(97 -1069)">
        <circle id="Ellipse_3186" data-name="Ellipse 3186" cx="15" cy="15" r="15" transform="translate(503 2130)" fill="#009cde"/>
        <g id="Group_3382" data-name="Group 3382" transform="translate(511 2138)">
          <path id="Path_12057" data-name="Path 12057" d="M78.573,47.6a4.458,4.458,0,0,0,1.346-2.083,11.1,11.1,0,0,0-1.736-2.533,11.076,11.076,0,0,0,1.735-2.533,4.465,4.465,0,0,0-1.346-2.083c-1.058,1.053-1.938,1.934-3.741,3.587v2.056C76.635,45.663,77.516,46.545,78.573,47.6Z" transform="translate(-65.919 -35.981)" fill="#fff"/>
          <path id="Path_12058" data-name="Path 12058" d="M46.323,30.759a4.463,4.463,0,0,1,2.082-1.346,11.083,11.083,0,0,1,2.533,1.736,11.051,11.051,0,0,1,2.532-1.736,4.47,4.47,0,0,1,2.082,1.346C54.5,31.817,53.622,32.7,51.967,34.5H49.911C48.256,32.7,47.375,31.817,46.323,30.759Z" transform="translate(-43.938 -29.413)" fill="#fff"/>
          <path id="Path_12059" data-name="Path 12059" d="M55.552,70.608a4.492,4.492,0,0,1-2.083,1.347,11.136,11.136,0,0,1-2.532-1.737A11.147,11.147,0,0,1,48.4,71.955a4.486,4.486,0,0,1-2.083-1.347c1.052-1.057,1.933-1.94,3.589-3.744h2.056C53.621,68.668,54.5,69.551,55.552,70.608Z" transform="translate(-43.937 -57.955)" fill="#fff"/>
          <path id="Path_12060" data-name="Path 12060" d="M38.714,38.369a4.469,4.469,0,0,0-1.346,2.082A10.922,10.922,0,0,0,39.1,42.984a10.977,10.977,0,0,0-1.735,2.533A4.456,4.456,0,0,0,38.714,47.6c1.056-1.051,1.938-1.933,3.742-3.587V41.955C40.653,40.3,39.771,39.422,38.714,38.369Z" transform="translate(-37.368 -35.984)" fill="#fff"/>
        </g>
      </g>
    </g>
  </g>
</svg>
