<svg xmlns="http://www.w3.org/2000/svg" width="236.667" height="33.905" viewBox="0 0 236.667 33.905">
  <g id="marketwatch-ar21" transform="translate(-6.803 -22.38)">
    <path id="Path_3" data-name="Path 3" d="M64.1,32.885l-.383,1.975h-.067c-.512-1.148-1.975-2.676-5.1-2.676-5.1,0-10.261,3.951-11.407,10.132-1.019,5.417,1.657,10.2,7.648,10.2a7.463,7.463,0,0,0,6.055-2.741h.067l-.383,2.04h5.606L69.641,32.82H64.1Zm-1.784,9.432c-.383,1.846-2.1,4.907-5.672,4.907-3.441,0-4.142-3.059-3.826-4.783a5.9,5.9,0,0,1,5.606-4.907c3.188,0,4.271,2.549,3.888,4.783Zm10.579-9.432h5.29L77.8,34.86h.067a6,6,0,0,1,5.29-2.676l-1.019,5.739c-2.676.067-4.671.574-5.1,3.506L75.064,51.883H69.281Zm14.085-7.456h5.739L90.041,39.767h.127l6.562-6.882h6.691L94.69,41.233l5.034,10.644H93.287L89.59,42.7h-.044l-1.722,9.178H82.151Zm25.581,6.756c-5.739,0-10.9,4.972-11.856,10.261-1.019,5.606,2.741,10.07,8.222,10.07a10.588,10.588,0,0,0,5.739-1.722,15.142,15.142,0,0,0,4.783-4.843h-5.8a4.888,4.888,0,0,1-3.826,1.784c-2.231,0-3.826-1.339-3.782-3.568h14.236a5.962,5.962,0,0,0,.383-1.468c1.083-5.864-2.291-10.515-8.1-10.515Zm-5.739,8.1a5.28,5.28,0,0,1,4.972-3.248c2.932,0,3.7,2.1,3.7,3.248Zm-68.086,11.6h5.672V25.406H39.562L29.492,40.443h-.067V25.406H24.583L6.8,51.877h6.882L23.691,36.84h.067V51.877h4.907L38.608,36.84h.127ZM135.1,32.885h-3.568l1.019-5.606h-4.972l-.383,2.167c-.445,2.485-1.975,3.248-4.08,3.441h-.067l-.89,4.271h2.8L122.22,51.839h5.672l2.741-14.681h3.633Z" transform="translate(0 3.705)" fill="#888789"/>
    <path id="Path_4" data-name="Path 4" d="M151.307,48.384A12.81,12.81,0,0,1,139.9,56.223c-5.739,0-9.369-4.524-8.286-10.2a12.509,12.509,0,0,1,11.919-10.132c5.034,0,8.453,3.377,8.542,8.008h-5.739a3.351,3.351,0,0,0-3.633-2.676c-2.676-.127-4.907,2.1-5.417,4.783-.512,2.741.89,4.843,3.633,4.843a5.359,5.359,0,0,0,4.589-2.549h5.8Zm-47.158-26L93.124,29.136h3.123L86.242,44.173h-.127V29.136H81.206L71.2,44.175h-.067V29.138H65.39V55.609h4.972L80.367,40.571h.067V55.609h4.907l17.718-26.471h2.8Zm10.833,33.2h-5.606l.383-2.04h-.067a7.57,7.57,0,0,1-6.055,2.741c-6.055,0-8.666-4.783-7.648-10.2,1.148-6.184,6.373-10.132,11.407-10.132,3.123,0,4.589,1.53,5.1,2.676h.067l.383-1.975h5.606Zm-9.561-4.649c3.506,0,5.29-3.059,5.672-4.907.383-2.291-.7-4.783-3.888-4.783a5.893,5.893,0,0,0-5.606,4.907,3.79,3.79,0,0,0,3.826,4.783ZM132.759,36.6h-3.568l1.019-5.606h-4.972l-.383,2.167c-.445,2.485-1.975,3.248-4.08,3.441h-.067l-.827,4.271h2.8l-2.741,14.681h5.672l2.741-14.681h3.633Zm23.9-7.456h5.672l-1.722,9.432h.067A6.6,6.6,0,0,1,170.813,38c1.21,1.846,1.083,3.506.445,6.947l-1.975,10.579H163.61L165.523,45.2c.191-.89.7-4.015-2.291-4.015-3.188,0-3.7,2.87-3.888,3.826l-1.975,10.515h-5.606Z" transform="translate(71.736 0)" fill="#888789"/>
  </g>
</svg>
