<svg xmlns="http://www.w3.org/2000/svg" width="32" height="27.24" viewBox="0 0 32 27.24">
    <path fill="#637696" d="M126.747 181.934c.624-1.149 1.159-2.357 1.888-3.434a12.06 12.06 0 0 1 8.018-5.339 11.775 11.775 0 0 1 9.917 2.593 13.261 13.261 0 0 1 4.157 5.953.389.389 0 0 0 .433.307 3.664 3.664 0 0 1 3.69 3.75v3.866a3.61 3.61 0 0 1-3.635 3.62 1.88 1.88 0 0 0-1.924 1.039 12.207 12.207 0 0 1-8.151 5.678c-.548.112-1.111.147-1.669.208-.375.041-.7-.073-.775-.4a.55.55 0 0 1 .564-.644 11.369 11.369 0 0 0 9.272-5.543c.038-.057.074-.115.106-.175a.8.8 0 0 0 .033-.137c-.483 0-.953-.01-1.422 0-.383.011-.544-.151-.544-.538q.009-5.1 0-10.2c0-.387.165-.543.546-.537.794.011 1.589 0 2.469 0a12.391 12.391 0 0 0-3.8-5.431 10.853 10.853 0 0 0-6.039-2.534 11.579 11.579 0 0 0-11.862 7.965h2.254c.672 0 .718.047.718.728v9.87c0 .6-.069.669-.652.669h-3.866a3.679 3.679 0 0 1-3.622-3.615c-.006-1.3 0-2.6 0-3.907a3.675 3.675 0 0 1 3.7-3.744.4.4 0 0 0 .113-.006.188.188 0 0 0 .078-.068zm3.179 1.142a2.026 2.026 0 0 0-.2-.023c-1.109 0-2.22-.017-3.328.014a2.577 2.577 0 0 0-2.482 2.518q-.034 2.054 0 4.109a2.58 2.58 0 0 0 2.481 2.522c1.122.032 2.246.01 3.369.01a.845.845 0 0 0 .166-.036zm17.843 9.147c1.2 0 2.359.024 3.518-.006a2.583 2.583 0 0 0 2.506-2.54q.029-2.034 0-4.068a2.58 2.58 0 0 0-2.5-2.543c-1.1-.03-2.191-.012-3.287-.012a1.231 1.231 0 0 0-.235.047z" transform="translate(-122.851 -172.943)"/>
</svg>
