<?xml version="1.0" encoding="UTF-8"?>
<svg width="83px" height="83px" viewBox="0 0 83 83" version="1.1" xmlns="http://www.w3.org/2000/svg" xmlns:xlink="http://www.w3.org/1999/xlink">
    <!-- Generator: sketchtool 58 (101010) - https://sketch.com -->
    <title>A8AF6802-8F7E-42D7-BF86-83AD490FBAD9</title>
    <desc>Created with sketchtool.</desc>
    <g id="Landing-Page" stroke="none" stroke-width="1" fill="none" fill-rule="evenodd">
        <g id="-g-Xcoins_Elements" transform="translate(-815.000000, -150.000000)" fill-rule="nonzero">
            <g id="monero" transform="translate(815.000000, 150.000000)">
                <path d="M83,41.4997479 C83,64.4196826 64.4200739,83 41.5002521,83 C18.5801782,83 0,64.4196826 0,41.4997479 C0,18.5800654 18.5801782,0 41.5002521,0 C64.4198218,0 83,18.5800654 83,41.4997479" id="Path" fill="#CCD4E1"></path>
                <path d="M40.9896135,17 C27.1904457,17 16,28.1947266 16,41.9998047 C16,44.7589844 16.4470868,47.4130859 17.2725379,49.8962891 L24.7465014,49.8962891 L24.7465014,28.8619141 L40.990004,45.1119141 L57.2331161,28.8619141 L57.2331161,49.8962891 L64.7070797,49.8962891 C65.5331164,47.4128906 65.9802032,44.7587891 65.9802032,41.9996094 C65.9802032,28.1941406 54.7893671,17 40.9896135,17" id="Path" fill="#FFFFFF"></path>
                <path d="M37.2545841,48.8480469 L30.1656228,41.7558594 L30.1656228,54.9914062 L19.6358503,54.9914062 C24.0227675,62.1912109 31.9455749,66.9992187 40.9892231,66.9992187 C50.0328712,66.9992187 57.9564596,62.1912109 62.342791,54.9914062 L51.8132138,54.9914062 L51.8132138,41.7558594 L44.7242525,48.8476562 L40.9894183,52.5837891 L37.2549746,48.8478516 L37.2545841,48.8478516 L37.2545841,48.8480469 Z" id="Path" fill="#FFFFFF"></path>
            </g>
        </g>
    </g>
</svg>