<svg xmlns="http://www.w3.org/2000/svg" xmlns:xlink="http://www.w3.org/1999/xlink" width="83" height="99" viewBox="0 0 83 99">
    <defs>
        <path id="4rtta8gq3a" d="M0 0.396L82.599 0.396 82.599 33.37 0 33.37z"/>
    </defs>
    <g fill="none" fill-rule="evenodd">
        <path fill="#E7EBF2" d="M81 77.327c0 .796-.15 1.592-.45 2.345-.602 1.532-1.773 2.764-3.26 3.43L47.267 96.573c-1.015.446-2.145.546-3.22.284l-29.224-7.32V78.255L27.969 72.4c.886-.392 1.868-.499 2.815-.304l20.043 4.114s0 .04-.005.107c-.006.03-.006.054-.01.08-.027.321-.086.64-.175.952-.385 1.458-1.583 3.728-5.258 3.167-1.947-.295-4.483-.7-6.017-.944-.484-.074-.938.263-1.012.754-.019.125-.012.25.02.37.823 3.119 3.601 5.294 6.784 5.31.79 0 1.573-.136 2.318-.405l32.345-11.62.36.212c.54.953.824 2.035.823 3.135M1.997 92.593h11.826c.55 0 .998-.454.998-1.013V78.252H1V91.58c0 .559.446 1.013.997 1.013"/>
        <g transform="translate(0 65)">
            <mask id="vswpq3ttpb" fill="#fff">
                <use xlink:href="#4rtta8gq3a"/>
            </mask>
            <path fill="#3A4E6F" d="M8.1 9.449c-.547-.027-.97-.494-.943-1.044.024-.51.432-.92.943-.945.547.026.97.494.944 1.042-.025.512-.433.922-.944.947zm0-4.333c-1.837.002-3.327 1.496-3.33 3.338.002 1.845 1.493 3.337 3.331 3.34 1.838-.003 3.327-1.496 3.33-3.34-.003-1.844-1.492-3.336-3.33-3.338zm69.136 12.226l-30.121 13.36c-.781.338-1.65.413-2.478.215l-29.322-7.26c-.348-.088-.717-.008-1 .215-.283.222-.448.562-.448.923v1.857H2.338V2.74h11.529v4.475l-.001.047v13.253c0 .649.522 1.173 1.169 1.173.645 0 1.169-.524 1.169-1.173V8.053l11.78-4.79c.742-.302 1.56-.364 2.34-.178l.032.01L46.973 7.26c.832.2 1.583.65 2.151 1.292.2.231.369.484.503.757l.02.041c.298.612.425 1.274.374 1.942 0 .013 0 .023-.002.034v.014c-.007.083-.018.165-.032.246l-.17.922c-.508 1.767-1.834 2.5-3.95 2.18-1.952-.293-4.492-.691-6.026-.935-.638-.102-1.237.335-1.337.975-.1.64.334 1.24.973 1.34 1.538.244 4.086.643 6.043.938.464.072.897.103 1.3.103 2.329 0 3.673-1.086 4.443-2.238l22.4-7.044c2.678-.84 5.528.657 6.368 3.344.153.49.231 1.001.231 1.516 0 .647-.124 1.283-.367 1.889-.492 1.236-1.446 2.227-2.66 2.766zm4.384-8.348c-.758-1.33-1.91-2.395-3.297-3.041-1.679-.787-3.589-.917-5.358-.363l-20.691 6.507c.128-.72.13-1.437.008-2.135l-.006-.034-.015-.082c-.128-.662-.366-1.299-.702-1.883-.085-.15-.178-.297-.277-.442-.856-1.239-2.195-2.152-3.742-2.539L30.92.818C29.65.5 28.314.596 27.104 1.09l-10.9 4.431V2.575c-.001-1.203-.973-2.177-2.17-2.18H2.17c-1.2.003-2.17.977-2.17 2.18v24.244c0 1.203.972 2.176 2.17 2.179h11.863c1.198-.003 2.169-.976 2.171-2.179v-.527l27.872 6.902c1.33.322 2.728.201 3.982-.347l30.126-13.361c1.769-.784 3.161-2.232 3.879-4.034.354-.878.536-1.818.535-2.765-.002-1.295-.339-2.567-.98-3.693z" mask="url(#vswpq3ttpb)"/>
        </g>
        <path fill="#E7EBF2" d="M44.5 45.502C31.025 45.502 19.733 35.9 16.765 23c-.508 2.21-.765 4.476-.764 6.749C16 45.904 28.76 59 44.5 59S73 45.904 73 29.749c0-2.322-.264-4.583-.764-6.749C69.268 35.9 57.977 45.502 44.5 45.502h.002z"/>
        <path fill="#3A4E6F" d="M44.5 56.688c-14.99 0-27.188-12.197-27.188-27.189 0-14.99 12.197-27.187 27.189-27.187 14.99 0 27.187 12.197 27.187 27.187 0 14.992-12.197 27.189-27.187 27.189M44.5 0C28.234 0 15 13.234 15 29.5S28.234 59 44.5 59C60.768 59 74 45.766 74 29.5 74 13.232 60.767 0 44.5 0"/>
        <path fill="#009CDE" d="M47.618 46l-.869-3.768c-5.27.309-8.422-2.847-9.34-5.678l4.724-2.184c.652 2.002 2.515 3.516 5.616 2.834 1.804-.396 2.907-1.526 2.59-2.899-.234-1.021-1.182-1.516-2.697-1.516l-3.38-.034c-4.258-.064-7.298-1.911-8.07-5.256-.908-3.943 1.496-7.318 5.137-8.784l-.877-3.803L44.599 14l.902 3.91c4.16-.027 6.604 2.357 7.66 4.64l-4.71 2.405c-.47-1.045-1.503-2.74-4.352-2.114-2.02.444-2.761 1.828-2.503 2.954.22.95 1.112 1.531 2.59 1.539l3.292-.02c5.075-.005 7.62 2.319 8.35 5.488.746 3.24-.936 6.79-4.948 8.45l.885 3.836-4.147.912z"/>
    </g>
</svg>
