<svg xmlns="http://www.w3.org/2000/svg" width="91.199" height="40" viewBox="0 0 91.199 40">
  <path id="nbc-wordmark" d="M47.42,32.694h6.76a4.672,4.672,0,0,1,4.3,4.668,4.9,4.9,0,0,1-4.408,4.87H47.42v-9.54m-.1-14.964h5.565a4.23,4.23,0,0,1,4.15,4.118,4.419,4.419,0,0,1-3.9,4.57H47.316V17.73M39.7,11.5v36.95H57.63c4.256,0,9.314-4.265,9.314-9.838a10.579,10.579,0,0,0-6.2-9.838,9.235,9.235,0,0,0,4.2-8.084c-.2-7.43-7.065-9.2-9.418-9.2H39.7M12.2,27.17l23.25,22.7V11.5h-7.8V32.24L4.395,10V48.454h7.8Zm56,2.408C68.4,41.264,76.8,50,87.594,50a22.125,22.125,0,0,0,8-1.546v-7.53A13.34,13.34,0,0,1,88.6,42.9c-6.532,0-12.695-4.833-12.44-13.625A12.712,12.712,0,0,1,88.73,17.221a12.368,12.368,0,0,1,6.864,2.114V12a19.973,19.973,0,0,0-7.537-1.5C77.291,10.5,68.4,19.584,68.2,29.569" transform="translate(-4.395 -10)" fill="#888789"/>
</svg>
