<svg xmlns="http://www.w3.org/2000/svg" width="93.697" height="25.322" viewBox="0 0 93.697 25.322">
    <path fill="#fff" d="M12.884 23.69c-1.409.248-2.844.322-4.327.519L4.031 10.955v13.823c-1.409.148-2.7.346-4.031.544V0h3.759L8.9 14.368V0h3.981v23.69zm7.79-14.417c1.533 0 3.882-.074 5.292-.074v3.957c-1.756 0-3.808 0-5.292.074v5.886c2.325-.148 4.649-.346 7-.421V22.5l-10.955.866V0h10.952v3.957h-7v5.316zm21.711-5.316h-4.1v18.2c-1.335 0-2.671 0-3.956.049V3.957h-4.1V0h12.156v3.957zM48.814 9h5.416v3.957h-5.416v8.977h-3.882V0h11.054v3.957h-7.172zm13.6 9.471c2.25.049 4.525.223 6.726.346v3.907c-3.536-.223-7.072-.445-10.683-.519V0h3.956v18.472zM72.48 23c1.261.074 2.6.149 3.882.3V0H72.48zM93.7 0l-5.02 12.043 5.02 13.279c-1.484-.2-2.968-.47-4.451-.717l-2.849-7.32-2.893 6.726c-1.435-.248-2.819-.322-4.253-.52l5.094-11.6L79.75 0H84l2.6 6.652L89.37 0h4.33z"/>
</svg>
