<svg xmlns="http://www.w3.org/2000/svg" id="New_Bloomberg_Logo" width="157" height="29" viewBox="0 0 157 29">
    <defs>
        <style>
            .cls-1{fill:#282828}
        </style>
    </defs>
    <path id="Path_12532" d="M115-9.6h11.536a8.2 8.2 0 0 1 5.064 1.465 5.756 5.756 0 0 1 2.077 4.635 4.487 4.487 0 0 1-2.747 4.517v.122a5.635 5.635 0 0 1 3.845 5.615 6.9 6.9 0 0 1-2.564 5.676 8.771 8.771 0 0 1-5.371 1.4H115zm10.376 9.155a1.939 1.939 0 0 0 2.136-2.075 1.944 1.944 0 0 0-2.2-2.014h-3.967v4.028h4.028zm.549 9.094a2.258 2.258 0 0 0 2.441-2.38 2.225 2.225 0 0 0-2.441-2.38h-4.517v4.822h4.517z" class="cls-1" transform="translate(-115 9.6)"/>
    <path id="Path_12533" d="M149.1-9.6h6.043v23.5H149.1z" class="cls-1" transform="translate(-128.287 9.6)"/>
    <path id="Path_12534" d="M161 9.55c0-5.31 3.418-8.85 8.728-8.85s8.672 3.6 8.672 8.85c0 5.31-3.357 8.85-8.667 8.85S161 14.861 161 9.55zm11.353 0c0-2.93-.916-4.761-2.747-4.761S166.92 6.62 166.92 9.55s.854 4.822 2.686 4.822c1.831-.061 2.747-1.892 2.747-4.822z" class="cls-1" transform="translate(-132.994 5.59)"/>
    <path id="Path_12535" d="M190.6 9.55c0-5.31 3.418-8.85 8.728-8.85s8.606 3.54 8.606 8.85-3.357 8.85-8.667 8.85c-5.249 0-8.667-3.539-8.667-8.85zm11.353 0c0-2.93-.916-4.761-2.747-4.761s-2.686 1.832-2.686 4.761.855 4.822 2.686 4.822c1.831-.061 2.747-1.892 2.747-4.822z" class="cls-1" transform="translate(-144.572 5.59)"/>
    <path id="Path_12536" d="M221 1.088h5.615v2.5h.122A5.32 5.32 0 0 1 231.8.6a4.635 4.635 0 0 1 4.517 2.87h.122A5.558 5.558 0 0 1 241.63.6c3.906 0 5.554 2.87 5.554 6.716v10.5h-5.859V8.354c0-1.71-.549-2.809-2.014-2.809s-2.2 1.343-2.2 3.175v9.1h-5.859V8.354c0-1.71-.549-2.809-2.014-2.809s-2.2 1.343-2.2 3.175v9.1H221z" class="cls-1" transform="translate(-156.475 5.626)"/>
    <path id="Path_12537" d="M272.376 11.641h-.061v2.2H266.7V-9.6h5.859v8.423h.122a5.557 5.557 0 0 1 4.761-2.258c4.211 0 6.653 3.784 6.653 8.85 0 5.676-2.625 8.972-7.019 8.972a5.167 5.167 0 0 1-4.7-2.746zm5.676-6.287c0-2.686-.977-4.456-2.747-4.456-1.831 0-2.93 1.77-2.93 4.456s1.16 4.456 2.93 4.456 2.748-1.71 2.748-4.456z" class="cls-1" transform="translate(-174.341 9.6)"/>
    <path id="Path_12538" d="M296.3 9.45c0-5.25 3.479-8.85 8.484-8.85a8.067 8.067 0 0 1 5.859 2.2c1.953 1.892 2.808 4.822 2.747 8.24h-11.231c.244 2.075 1.221 3.174 2.991 3.174a2.288 2.288 0 0 0 2.319-1.587h5.676c-.977 3.845-3.967 5.737-8.179 5.737-5.187-.064-8.666-3.603-8.666-8.914zm5.859-1.77h5.371c-.122-2.014-1.221-3.052-2.625-3.052-1.647-.061-2.562 1.099-2.746 3.052z" class="cls-1" transform="translate(-185.918 5.629)"/>
    <path id="Path_12539" d="M331.615 4.036h.122C332.958 1.716 334.545.8 336.559.8a1.821 1.821 0 0 1 .977.183v5.129h-.122c-3.479-.611-5.493 1.038-5.493 4.824v7.022H326V1.166h5.615z" class="cls-1" transform="translate(-197.565 5.548)"/>
    <path id="Path_12540" d="M345.705 17.834h5.676a2.267 2.267 0 0 0 2.38 1.4c1.892 0 2.564-1.16 2.564-2.93v-1.216h-.125a5.015 5.015 0 0 1-4.028 1.892c-3.6 0-6.775-2.686-6.775-7.935C345.4 4.223 347.964.5 351.87.5a4.937 4.937 0 0 1 4.517 2.319h.122V.988h5.615v14.527A7.739 7.739 0 0 1 359.8 21.5a8.814 8.814 0 0 1-5.92 1.831c-4.513.058-7.626-1.773-8.175-5.497zM356.57 8.8c0-2.075-.977-3.784-2.686-3.784-1.648 0-2.686 1.465-2.686 3.784 0 2.258 1.038 3.845 2.686 3.845S356.57 11 356.57 8.8z" class="cls-1" transform="translate(-205.124 5.671)"/>
</svg>
