<svg xmlns="http://www.w3.org/2000/svg" width="30" height="30" viewBox="0 0 30 30">
    <path fill="#3A4E6F" fill-rule="nonzero" d="M11 24h8a4.992 4.992 0 0 1-4 2 4.992 4.992 0 0 1-4-2h8zm4.5-20A2.5 2.5 0 0 1 18 6.5l-.006.171A7 7 0 0 1 22 13l.001 2.337A3.5 3.5 0 0 1 20.5 22h-11A3.5 3.5 0 0 1 8 15.337V13a7 7 0 0 1 4.006-6.33A2.5 2.5 0 0 1 14.5 4h1zm0 2h-1a.5.5 0 0 0-.492.41L14 6.5l.107 1.388-1.244.59A5 5 0 0 0 10 13v3.6l-1.142.543A1.5 1.5 0 0 0 9.5 20h11a1.5 1.5 0 0 0 .642-2.856l-1.14-.543L20 13c0-1.952-1.128-3.7-2.862-4.521l-1.231-.583L16 6.5a.5.5 0 0 0-.5-.5z"/>
</svg>
