<svg xmlns="http://www.w3.org/2000/svg" width="96.754" height="75.067" viewBox="0 0 96.754 75.067"><defs><style>.a{fill:#fff;}</style></defs><g transform="translate(-1.688 -12.523)"><path class="a" d="M47.1,20.569c0,4.444-10.165,8.045-22.707,8.045s-22.7-3.6-22.7-8.045,10.167-8.046,22.7-8.046S47.1,16.124,47.1,20.569"/><path class="a" d="M47.1,27.472"/><path class="a" d="M47.1,35.886"/><path class="a" d="M47.1,26.261c0,4.444-10.165,8.046-22.707,8.046s-22.7-3.6-22.7-8.046v8.414c0,4.444,10.167,8.046,22.7,8.046S47.1,39.119,47.1,34.675Z"/><path class="a" d="M47.1,41.146c0,4.444-10.165,8.045-22.707,8.045s-22.7-3.6-22.7-8.045V49.56c0,4.443,10.167,8.045,22.7,8.045S47.1,54,47.1,49.56Z"/><path class="a" d="M98.442,50.553C98.442,55,88.276,58.6,75.734,58.6s-22.7-3.6-22.7-8.048,10.168-8.044,22.7-8.044,22.708,3.6,22.708,8.044"/><path class="a" d="M98.442,56.247c0,4.443-10.166,8.045-22.708,8.045s-22.7-3.6-22.7-8.045V64.66c0,4.443,10.168,8.045,22.7,8.045s22.708-3.6,22.708-8.045Z"/><path class="a" d="M98.442,71.131c0,4.445-10.166,8.046-22.708,8.046s-22.7-3.6-22.7-8.046v8.413c0,4.445,10.168,8.046,22.7,8.046s22.708-3.6,22.708-8.046Z"/><path class="a" d="M47.1,55.814c0,4.445-10.165,8.048-22.707,8.048s-22.7-3.6-22.7-8.048v8.414c0,4.445,10.167,8.047,22.7,8.047S47.1,68.673,47.1,64.228Z"/><path class="a" d="M47.1,70.916c0,4.445-10.165,8.046-22.707,8.046s-22.7-3.6-22.7-8.046v8.413c0,4.445,10.167,8.046,22.7,8.046S47.1,83.774,47.1,79.329Z"/></g></svg>