<svg xmlns="http://www.w3.org/2000/svg" width="112" height="70.128" viewBox="0 0 112 70.128"><defs><style>.a{fill:#fff;}</style></defs><g transform="translate(0 -12.936)"><path class="a" d="M22.232,83.064a161.28,161.28,0,0,1-20.48-1.3A2,2,0,0,1,0,79.78V31.772a2.012,2.012,0,0,1,.676-1.5,1.971,1.971,0,0,1,1.572-.484,158.215,158.215,0,0,0,20,1.264c9.144,0,17.492-.78,25.564-1.532,8.164-.768,16.6-1.556,25.94-1.556A162.682,162.682,0,0,1,94.24,29.256,2,2,0,0,1,96,31.24v48a2,2,0,0,1-.68,1.5,1.947,1.947,0,0,1-1.572.484,157.575,157.575,0,0,0-20.008-1.26c-9.148,0-17.5.776-25.572,1.54-8.16.76-16.6,1.56-25.936,1.56ZM4,78.008a156.673,156.673,0,0,0,18.228,1.056c9.148,0,17.5-.78,25.572-1.54,8.168-.764,16.6-1.556,25.94-1.556a162.346,162.346,0,0,1,18.252,1.024V33.016a157.6,157.6,0,0,0-18.24-1.052c-9.148,0-17.5.78-25.572,1.54-8.164.76-16.6,1.552-25.932,1.552A161.607,161.607,0,0,1,4,34.028v43.98Z"/><path class="a" d="M102,74.152a2,2,0,0,1-2-2V25.92c-17.328-1.992-30.78-.732-43.8.488-13.684,1.28-27.832,2.6-46.448.256a2,2,0,0,1,.5-3.972c18.2,2.3,32.112.988,45.58-.268,13.668-1.28,27.8-2.6,46.424-.26a2,2,0,0,1,1.752,1.984v48a2.015,2.015,0,0,1-2.008,2Z"/><path class="a" d="M110,66.22a2,2,0,0,1-2-2V17.988c-17.328-1.992-30.78-.732-43.8.484-13.676,1.28-27.828,2.6-46.444.256a2,2,0,1,1,.5-3.972c18.192,2.292,32.108.992,45.572-.268,13.68-1.284,27.812-2.6,46.428-.264A2,2,0,0,1,112,16.208v48A2.006,2.006,0,0,1,110,66.22Z"/><path class="a" d="M22.232,75.064c-4.156,0-8.208-.164-12.388-.5a2,2,0,1,1,.324-3.984c4.076.328,8.024.484,12.068.484a2,2,0,1,1,0,4Z"/><path class="a" d="M86,40.456c-.056,0-.1,0-.164,0-4.048-.328-7.992-.488-12.08-.488a2,2,0,0,1,0-4c4.188,0,8.244.164,12.4.5a2,2,0,0,1-.156,4Z"/><path class="a" d="M46.168,64.352c-3.868,0-6.572-2.4-6.572-5.812a2,2,0,0,1,4,0c0,1.58,1.612,1.812,2.572,1.812s2.572-.244,2.572-1.812c0-.928,0-1.076-2.732-2.416L44.556,55.4c-2.66-1.316-4.956-2.44-4.956-6,0-3.44,2.7-5.844,6.572-5.844,3.832,0,6.508,2.4,6.508,5.844a2,2,0,0,1-4,0c0-1.52-1.364-1.844-2.508-1.844-.96,0-2.572.24-2.572,1.844,0,.928,0,1.068,2.728,2.412l1.456.728c2.664,1.312,4.964,2.44,4.964,6C52.744,61.956,50.036,64.352,46.168,64.352Z"/><path class="a" d="M46,43.964a1.98,1.98,0,0,1-1.4-3.4,2,2,0,0,1,2.8,0,2,2,0,0,1-1.4,3.4Z"/><path class="a" d="M44,41.964h4v4H44Z"/><path class="a" d="M46,67.964a1.983,1.983,0,0,1-1.4-3.4,2.012,2.012,0,0,1,2.8,0,2,2,0,0,1-1.4,3.4Z"/><path class="a" d="M44,61.964h4v4H44v-4Z"/></g></svg>