<svg xmlns="http://www.w3.org/2000/svg" width="95" height="95" viewBox="0 0 95 95"><defs><style>.a{fill:#009cde;}</style></defs><g transform="translate(-2.5 -2.5)"><path class="a" d="M53.7,46.7H46.4a7.15,7.15,0,1,1,0-14.3h7.3a7.134,7.134,0,0,1,6.7,4.7A3.257,3.257,0,0,0,64.6,39a3.178,3.178,0,0,0,1.9-4.2,13.746,13.746,0,0,0-12.8-8.9h-.4V19a3.3,3.3,0,1,0-6.6,0v7h-.4a13.135,13.135,0,0,0-9.6,4,13.647,13.647,0,0,0,9.7,23.3h7.3a7.15,7.15,0,1,1,.1,14.3H46.5A7.044,7.044,0,0,1,39.8,63a3.26,3.26,0,0,0-6.1,2.3,13.514,13.514,0,0,0,12.8,8.8h.4V81a3.3,3.3,0,1,0,6.6,0V74h.4A13.614,13.614,0,0,0,67.5,60.4a13.135,13.135,0,0,0-4-9.6A14.031,14.031,0,0,0,53.7,46.7Z"/><path class="a" d="M50,2.5A47.5,47.5,0,1,0,97.5,50,47.543,47.543,0,0,0,50,2.5ZM50,91A41,41,0,1,1,91,50,41.056,41.056,0,0,1,50,91Z"/></g></svg>