<svg xmlns="http://www.w3.org/2000/svg" width="28.976" height="26.947" viewBox="0 0 28.976 26.947">
    <g data-name="Group 3352">
        <path d="M19.317 0H9.659A9.674 9.674 0 0 0 0 9.668v2.552a9.65 9.65 0 0 0 6.575 9.16c-.49.847-1.158 2.167-2.118 4.229A.941.941 0 0 0 5.7 26.862l10.875-4.975h2.741a9.674 9.674 0 0 0 9.659-9.668V9.667A9.674 9.674 0 0 0 19.317 0zm7.776 12.22a7.79 7.79 0 0 1-7.776 7.785h-2.946a.938.938 0 0 0-.392.086L7.3 24.061a22.214 22.214 0 0 1 1.351-2.442.942.942 0 0 0-.325-1.733 7.772 7.772 0 0 1-6.442-7.667V9.668A7.79 7.79 0 0 1 9.66 1.883h9.659a7.79 7.79 0 0 1 7.776 7.785v2.552z" data-name="Path 12138"/>
        <circle cx="2.082" cy="2.082" r="2.082" data-name="Ellipse 3183" transform="translate(5.108 9.077)"/>
        <circle cx="2.082" cy="2.082" r="2.082" data-name="Ellipse 3184" transform="translate(19.704 9.077)"/>
        <circle cx="2.082" cy="2.082" r="2.082" data-name="Ellipse 3185" transform="translate(12.406 9.077)"/>
    </g>
</svg>
