<svg xmlns="http://www.w3.org/2000/svg" width="26.691" height="27.25" viewBox="0 0 26.691 27.25">
    <defs>
        <style>
            .cls-1{fill:#637696;stroke:#637696;stroke-width:.25px}
        </style>
    </defs>
    <g id="noun_press_1318998" transform="translate(-8.375 -8.005)">
        <g id="Group_3395" transform="translate(11.362 8.13)">
            <g id="Group_3394">
                <path id="Path_12157" d="M32.176 35.13H12.5a.378.378 0 0 1 0-.755 2.349 2.349 0 0 0 2.352-2.357V8.508a.377.377 0 0 1 .376-.378h20.1a.377.377 0 0 1 .376.378v23.087a3.533 3.533 0 0 1-3.528 3.535zm-17.65-.755h17.65a2.779 2.779 0 0 0 2.772-2.78V8.886H15.6v23.131a3.1 3.1 0 0 1-.906 2.2c-.055.056-.111.108-.168.158z" class="cls-1" transform="translate(-12.12 -8.13)"/>
            </g>
        </g>
        <g id="Group_3397" transform="translate(8.5 20.016)">
            <g id="Group_3396">
                <path id="Path_12158" d="M11.652 39.864A3.21 3.21 0 0 1 8.5 36.607V25.145a.389.389 0 0 1 .383-.4h5.547a.389.389 0 0 1 .383.4v11.462a3.294 3.294 0 0 1-.923 2.3 3.092 3.092 0 0 1-2.238.957zM9.265 25.54v11.067a2.43 2.43 0 0 0 2.387 2.466 2.341 2.341 0 0 0 1.7-.722 2.493 2.493 0 0 0 .7-1.744V25.54z" class="cls-1" transform="translate(-8.5 -24.75)"/>
            </g>
        </g>
        <g id="Group_3399" transform="translate(16.971 11.782)">
            <g id="Group_3398">
                <path id="Path_12159" d="M26 19.864h-5.73a.4.4 0 0 1-.4-.4v-6.319a.4.4 0 0 1 .4-.4H26a.4.4 0 0 1 .4.4v6.324a.4.4 0 0 1-.4.395zm-5.336-.79h4.94V13.54h-4.94z" class="cls-1" transform="translate(-19.875 -12.75)"/>
            </g>
        </g>
        <g id="Group_3401" transform="translate(24.665 14.633)">
            <g id="Group_3400">
                <path id="Path_12160" d="M36.824 17.54H30.9a.4.4 0 1 1 0-.79h5.929a.4.4 0 0 1 0 .79z" class="cls-1" transform="translate(-30.5 -16.75)"/>
            </g>
        </g>
        <g id="Group_3403" transform="translate(16.266 21.801)">
            <g id="Group_3402">
                <path id="Path_12161" d="M34.6 27.04H20.27a.4.4 0 1 1 0-.79H34.6a.4.4 0 0 1 0 .79z" class="cls-1" transform="translate(-19.875 -26.25)"/>
            </g>
        </g>
        <g id="Group_3405" transform="translate(16.266 28.968)">
            <g id="Group_3404">
                <path id="Path_12162" d="M34.6 36.54H20.27a.4.4 0 1 1 0-.79H34.6a.4.4 0 0 1 0 .79z" class="cls-1" transform="translate(-19.875 -35.75)"/>
            </g>
        </g>
    </g>
</svg>
