<svg xmlns="http://www.w3.org/2000/svg" xmlns:xlink="http://www.w3.org/1999/xlink" width="123" height="101" viewBox="0 0 123 101">
    <defs>
        <path id="3syst8t7ba" d="M0.205 0.449L104.864 0.449 104.864 88 0.205 88z"/>
        <path id="lvkbq1j3vc" d="M0 0.437L119.705 0.437 119.705 69.81 0 69.81z"/>
        <path id="ehomvx2s8e" d="M0.428 0.135L34.874 0.135 34.874 34.581 0.428 34.581z"/>
    </defs>
    <g fill="none" fill-rule="evenodd">
        <g transform="translate(16 13)">
            <mask id="34opkqm16b" fill="#fff">
                <use xlink:href="#3syst8t7ba"/>
            </mask>
            <path fill="#E7EBF2" d="M88.679 12.865c-7.653 0-14.064-5.297-15.75-12.416-.289 1.221-.435 2.47-.433 3.725 0 8.913 7.245 16.138 16.183 16.138 8.938 0 16.185-7.225 16.185-16.138 0-1.281-.15-2.53-.433-3.724-1.685 7.118-8.098 12.417-15.75 12.417l-.002-.002zM77.305 88.001H9.08c-1.3.001-2.357-1.05-2.358-2.348-.003-1.295 1.051-2.35 2.351-2.351h68.232c1.3-.001 2.356 1.05 2.358 2.346.002 1.297-1.051 2.351-2.352 2.353h-.006zM.205 58.84h85.973v-4.837H.205v4.837z" mask="url(#34opkqm16b)"/>
        </g>
        <path fill="#3A4E6F" d="M9.348 75c.744 0 1.348-.597 1.348-1.336V17.009c0-.738.606-1.337 1.349-1.337h71.048c.744 0 1.348-.6 1.348-1.336 0-.739-.604-1.336-1.348-1.336H12.045C9.815 13 8 14.797 8 17.009v56.655C8 74.403 8.604 75 9.348 75m98.956-37.097v35.76c0 .74.604 1.337 1.348 1.337.744 0 1.348-.597 1.348-1.336v-35.76c0-.738-.604-1.337-1.348-1.337-.744 0-1.348.599-1.348 1.336"/>
        <g transform="translate(0 18)">
            <mask id="d5n0p0p3jd" fill="#fff">
                <use xlink:href="#lvkbq1j3vc"/>
            </mask>
            <path fill="#3A4E6F" d="M113.98 67.115H5.724c-1.679-.003-3.038-1.368-3.041-3.052.003-1.684 1.363-3.047 3.04-3.05H113.98c1.679.002 3.04 1.366 3.043 3.05-.002 1.684-1.364 3.05-3.043 3.052m0-8.794H5.725C2.565 58.325.003 60.894 0 64.064c.004 3.172 2.564 5.74 5.725 5.746h108.254c3.16-.005 5.722-2.574 5.726-5.746-.004-3.17-2.565-5.739-5.726-5.743M84.68 1.783c0-.744-.6-1.346-1.341-1.346h-66.25c-.741 0-1.343.602-1.343 1.346v51.154c0 .743.602 1.346 1.342 1.346h85.53c.74 0 1.342-.603 1.342-1.346V18.794c0-.743-.602-1.346-1.342-1.346-.741 0-1.342.603-1.342 1.346v32.797H18.429V3.129h64.909c.74 0 1.342-.603 1.342-1.346" mask="url(#d5n0p0p3jd)"/>
        </g>
        <path fill="#009CDE" d="M49 49.685v9.238c0 .594.502 1.077 1.123 1.077h20.754c.621 0 1.123-.483 1.123-1.077v-9.238c0-3.418-2.554-6.278-5.929-6.909.923-1.16 1.424-2.59 1.424-4.063 0-3.702-3.14-6.713-6.995-6.713-3.856 0-6.995 3.01-6.995 6.713 0 1.5.514 2.918 1.424 4.063-3.375.632-5.929 3.492-5.929 6.91"/>
        <g transform="translate(88)">
            <mask id="2avsl3obyf" fill="#fff">
                <use xlink:href="#ehomvx2s8e"/>
            </mask>
            <path fill="#3A4E6F" d="M17.65 2.785c8.037 0 14.574 6.538 14.574 14.573 0 8.037-6.537 14.573-14.572 14.573-8.036 0-14.574-6.536-14.574-14.573 0-8.035 6.538-14.573 14.574-14.573h-.001zm0 31.796c9.499 0 17.224-7.726 17.224-17.223S27.15.135 17.652.135C8.155.135.428 7.86.428 17.358c0 9.497 7.727 17.223 17.224 17.223h-.001z" mask="url(#2avsl3obyf)"/>
        </g>
        <path fill="#3A4E6F" d="M112.668 15.232l-7.217 8.304c-.254.293-.623.463-1.011.464h-.007c-.387 0-.756-.166-1.012-.456l-4.084-4.628c-.492-.558-.44-1.41.12-1.904.559-.493 1.412-.439 1.904.12l3.065 3.473 6.206-7.14c.489-.563 1.341-.623 1.904-.134.562.488.622 1.339.133 1.901h-.001z"/>
    </g>
</svg>
