<svg xmlns="http://www.w3.org/2000/svg" width="96" height="96" viewBox="0 0 96 96">
    <g fill="none" fill-rule="evenodd">
        <path fill="#E7EBF2" fill-rule="nonzero" d="M13.085 21.293H81.79v4.278H13.085zM77.946 73.906H16.93a3.844 3.844 0 0 1-3.844-3.844v7.5a3.843 3.843 0 0 0 3.844 3.844h61.017a3.844 3.844 0 0 0 3.844-3.844v-7.5a3.844 3.844 0 0 1-3.844 3.844z"/>
        <path fill="#3A4E6F" fill-rule="nonzero" d="M61.105 52.405l.447-.618c1.556-2.171 2.23-3.323 2.868-4.854l.211-.517-.082-.32c-.503-1.955-1.176-3.12-2.882-5.095l-.989-1.129-2.908 3.2-1.313 1.43a245.734 245.734 0 0 1-3.99 4.211l-.804.828v5.727l1.3 1.342 1.111 1.16a254.634 254.634 0 0 1 4.161 4.478l2.443 2.689.739-.84c1.81-2.062 2.528-3.268 3.125-5.359l.099-.346-.368-.83c-.745-1.624-1.506-2.87-3.168-5.157zm-.464 9.516l-1.892-2.076-1.133-1.229a255.283 255.283 0 0 0-3.953-4.159v-4.105l1.03-1.067 1.152-1.205a246.85 246.85 0 0 0 3.265-3.51l1.532-1.684c1.061 1.29 1.53 2.142 1.884 3.391l-.148.34-.162.348c-.578 1.206-1.332 2.357-2.932 4.541l-.66.899.898 1.224.455.634c1.29 1.812 1.91 2.872 2.54 4.27-.4 1.288-.874 2.157-1.876 3.388zM46.69 38.232l.657.473.618-.447c2.171-1.557 3.323-2.23 4.854-2.869l.517-.211.594.155c1.884.521 3.054 1.254 5.11 3.06l.84.738-2.647 2.405-1.198 1.097a201.81 201.81 0 0 0-4.534 4.307l-1.286 1.263H44.48l-1.156-1.136L42 45.776a177.927 177.927 0 0 0-5.646-5.26l-1.55-1.375 1.155-1.012c1.776-1.53 2.934-2.216 4.73-2.766l.67-.195.33.144c1.715.75 2.908 1.43 5.002 2.92zm-8.85.93l1.008.908.758.692a197.859 197.859 0 0 1 4.442 4.215l1.251 1.226h4.097l.937-.918a205.49 205.49 0 0 1 5.049-4.766l1.484-1.352c-1.29-1.061-2.141-1.529-3.391-1.884l-.389.17c-1.211.55-2.28 1.217-4.267 2.655l-1.472 1.078-1.224-.899c-2.215-1.607-3.351-2.294-4.903-2.995-1.186.369-2.018.8-3.104 1.648l-.277.221zM48.061 66.577l-.656-.472-.618.447c-2.171 1.556-3.323 2.23-4.854 2.868l-.517.211-.32-.082c-1.955-.503-3.12-1.176-5.095-2.882l-1.129-.989 3.12-2.836 1.076-.99a201.82 201.82 0 0 0 4.183-3.983l1.286-1.263h5.735l1.966 1.928.923.895a175.021 175.021 0 0 0 4.896 4.56l1.89 1.68-1.154 1.011c-1.88 1.62-3.068 2.295-5.055 2.862l-.346.099-.83-.368c-1.462-.67-2.617-1.354-4.5-2.696zm8.852-.93l-.677-.607a187.898 187.898 0 0 1-5.531-5.208l-1.252-1.226h-4.097l-.937.918a205.49 205.49 0 0 1-5.049 4.767l-1.484 1.351c1.29 1.061 2.141 1.53 3.391 1.884l.37-.162c1.275-.576 2.387-1.278 4.567-2.866l1.19-.874.916.673c2.21 1.616 3.377 2.354 4.798 3.028l.414.192c1.285-.399 2.154-.872 3.38-1.87zM33.648 52.404l-.448.619-.463.653c-1.235 1.764-1.834 2.83-2.405 4.2l-.211.517.082.32c.503 1.956 1.176 3.121 2.882 5.096l.989 1.128 2.836-3.12 1.232-1.336a208.462 208.462 0 0 1 4.218-4.41l.786-.799v-5.735l-1.263-1.286-1.071-1.102a203.68 203.68 0 0 1-3.902-4.158l-2.836-3.119-.739.84c-1.81 2.062-2.528 3.268-3.125 5.36l-.099.345.144.33c.825 1.886 1.564 3.141 3.393 5.657zm.463-9.516l1.35 1.482a211.122 211.122 0 0 0 5.685 5.986v4.097l-.986 1.007-1.202 1.242a215.08 215.08 0 0 0-3.943 4.226l-.905.995c-1.061-1.29-1.53-2.141-1.884-3.391l.149-.34.16-.348c.58-1.206 1.333-2.357 2.933-4.541l.66-.898-.898-1.225-.455-.633c-1.29-1.813-1.909-2.873-2.54-4.27.4-1.288.874-2.158 1.876-3.39z"/>
        <path fill="#009CDE" fill-rule="nonzero" d="M72.556 72.959l-8.536-8.537 5.12-3.434c.724-.486.523-1.603-.326-1.806L51.388 55.01a1.002 1.002 0 0 0-1.208 1.207l4.172 17.427c.203.849 1.32 1.05 1.806.325l3.434-5.12 8.537 8.537a1.002 1.002 0 0 0 1.417 0l3.01-3.01a1.002 1.002 0 0 0 0-1.417z"/>
        <path fill="#3A4E6F" fill-rule="nonzero" d="M18 13h59a6 6 0 0 1 6 6v57a6 6 0 0 1-6 6H18a6 6 0 0 1-6-6V19a6 6 0 0 1 6-6zm0 2a4 4 0 0 0-4 4v57a4 4 0 0 0 4 4h59a4 4 0 0 0 4-4V19a4 4 0 0 0-4-4H18z"/>
        <path fill="#3A4E6F" d="M13 25h69v2H13z"/>
        <path fill="#3A4E6F" fill-rule="nonzero" d="M75 23a3 3 0 1 0 0-6 3 3 0 0 0 0 6zm0-2a1 1 0 1 1 0-2 1 1 0 0 1 0 2zM67 23a3 3 0 1 0 0-6 3 3 0 0 0 0 6zm0-2a1 1 0 1 1 0-2 1 1 0 0 1 0 2zM21 23a3 3 0 1 0 0-6 3 3 0 0 0 0 6zm0-2a1 1 0 1 1 0-2 1 1 0 0 1 0 2z"/>
    </g>
</svg>
