<svg xmlns="http://www.w3.org/2000/svg" width="106.237" height="134.065" viewBox="0 0 106.237 134.065">
    <defs>
        <style>
            .cls-1{fill:#fff;stroke-miterlimit:10}.cls-2,.cls-3{stroke:none}.cls-3{fill:#fff}
        </style>
    </defs>
    <g id="Group_3764" transform="translate(-746.881 -2390.308)">
        <g id="Group_3755" transform="translate(-2656.632 2203.689)">
            <g id="Path_13054" class="cls-1">
                <path d="M3431.513 242.44h-.013c-1.664-.003-3.265-.63-4.508-1.767-1.206-1.103-1.996-2.607-2.23-4.244-1.245-.512-2.308-1.377-3.08-2.504-.807-1.182-1.232-2.57-1.23-4.015.003-1.99.832-3.89 2.276-5.22l.007-3.331c0-1.29.474-2.508 1.334-3.427.87-.925 2.025-1.434 3.25-1.434 2.53.003 4.585 2.19 4.582 4.874l-.002.647c2.373.21 4.21 2.307 4.207 4.84l-.005 3.334c1.441 1.336 2.265 3.237 2.263 5.228-.003 1.872-.718 3.633-2.011 4.96-1.296 1.327-3.015 2.058-4.84 2.058zm-5.495-5.624c.62 2.577 2.891 4.427 5.485 4.432 1.506 0 2.926-.604 3.998-1.7 1.075-1.102 1.669-2.567 1.671-4.127.003-1.748-.745-3.39-2.052-4.508l-.116-.1-.037-.032-.011-.048-.043-.183-.004-.017v-.017l.006-3.657c.005-1.87-1.307-3.438-3.016-3.644l-.002 1.491c1.44 1.332 2.262 3.234 2.26 5.228-.003 1.874-.718 3.636-2.012 4.96-1.296 1.327-3.015 2.058-4.84 2.058h-.01c-.42-.002-.84-.046-1.277-.136zm-.154-1.275c.522.148.98.218 1.432.22 1.508 0 2.928-.604 3.996-1.7 1.078-1.103 1.673-2.569 1.675-4.127 0-1.75-.749-3.393-2.055-4.508l-.114-.096-.039-.033-.011-.05-.042-.188-.003-.016v-.017l.002-1.67c-.652.167-1.163.456-1.56.879-.65.697-1.01 1.625-1.013 2.614l-.005 3.803v.07l-.052.044-.116.1c-1.339 1.134-2.108 2.785-2.11 4.531 0 .037.005.077.011.119l.004.025zm1.455-17.852c-.896 0-1.741.376-2.381 1.06-.652.699-1.011 1.626-1.011 2.61l-.006 3.807v.07l-.053.044-.114.097c-1.338 1.133-2.108 2.787-2.111 4.536-.005 2.146 1.178 4.144 3.032 5.157.087-1.872.902-3.64 2.26-4.893l.005-3.331c.003-1.294.477-2.51 1.336-3.424.656-.705 1.495-1.168 2.431-1.345v-.705c.003-1.022-.394-2.007-1.087-2.704-.628-.63-1.443-.978-2.297-.979h-.004z" class="cls-2" transform="translate(27.224 48.207)"/>
                <path d="M3431.513 242.29c1.785 0 3.466-.716 4.732-2.014 1.266-1.298 1.966-3.023 1.969-4.855.002-1.98-.82-3.851-2.263-5.162l.005-3.4c.002-2.52-1.863-4.57-4.207-4.7l.002-.787c.003-2.6-1.981-4.721-4.432-4.724-1.186 0-2.3.493-3.14 1.387-.835.891-1.294 2.07-1.294 3.324l-.007 3.397c-1.445 1.306-2.273 3.175-2.276 5.154-.005 2.926 1.785 5.416 4.297 6.413.437 3.355 3.214 5.961 6.6 5.966h.014m-5.692-5.67c.475.113.965.18 1.474.183h.01c1.786 0 3.466-.715 4.733-2.013 1.268-1.298 1.966-3.023 1.968-4.855.003-1.98-.818-3.854-2.26-5.162l.003-1.722c1.848.128 3.322 1.78 3.316 3.809l-.005 3.657.042.183.115.1c1.34 1.146 2.108 2.829 2.105 4.622-.002 1.599-.61 3.101-1.714 4.231-1.1 1.125-2.55 1.746-4.106 1.746-2.8-.005-5.137-2.058-5.68-4.78m5.033-13.45l-.002 1.858.042.19.115.096c1.342 1.146 2.107 2.829 2.107 4.622-.002 1.596-.613 3.101-1.717 4.231-1.096 1.125-2.55 1.746-4.105 1.746-.548-.003-1.066-.105-1.57-.254-.003-.087-.027-.17-.027-.26.003-1.79.777-3.47 2.163-4.645l.116-.1.005-3.804c.002-1.027.377-1.992 1.054-2.715.503-.538 1.142-.821 1.819-.965m-3.536-5.865l.005.236c1.952.003 3.539 1.723 3.533 3.833v.831c-.933.15-1.795.595-2.471 1.321-.835.889-1.293 2.069-1.296 3.322l-.005 3.397c-1.423 1.287-2.242 3.123-2.267 5.07-1.962-.967-3.33-3.017-3.325-5.4.003-1.79.774-3.474 2.164-4.65l.114-.098.006-3.806c0-1.025.375-1.987 1.051-2.713.669-.713 1.554-1.107 2.49-1.107v-.236m4.195 25.286h-.013c-1.702-.002-3.338-.644-4.609-1.805-1.212-1.108-2.011-2.611-2.265-4.25-1.238-.526-2.295-1.396-3.067-2.525-.825-1.206-1.26-2.624-1.257-4.1.003-2.01.831-3.928 2.276-5.284l.007-3.267c0-1.328.488-2.581 1.374-3.528.9-.956 2.093-1.482 3.36-1.482 2.612.003 4.735 2.257 4.733 5.024l-.002.512c2.383.283 4.209 2.413 4.206 4.975l-.005 3.27c1.442 1.36 2.265 3.282 2.263 5.292-.003 1.912-.733 3.71-2.054 5.064-1.324 1.357-3.081 2.104-4.947 2.104zm-5.29-5.582c.68 2.392 2.832 4.086 5.28 4.09 1.465 0 2.847-.587 3.89-1.655 1.048-1.072 1.627-2.5 1.63-4.022.002-1.703-.727-3.304-2-4.393l-.117-.1-.074-.065-.022-.095-.043-.183-.007-.034v-.034l.005-3.658c.005-1.732-1.165-3.193-2.716-3.47l-.002 1.253c1.44 1.358 2.262 3.28 2.26 5.293-.003 1.914-.733 3.712-2.055 5.065-1.324 1.356-3.08 2.103-4.947 2.103h-.01c-.355-.001-.709-.033-1.072-.095zm-.223-1.584c.47.126.886.186 1.296.188 1.467 0 2.849-.588 3.89-1.655 1.05-1.075 1.629-2.503 1.631-4.022 0-1.706-.73-3.307-2.002-4.394l-.114-.095-.077-.066-.022-.099-.042-.188-.008-.033v-.033l.002-1.471c-.534.164-.961.422-1.3.783-.624.668-.97 1.56-.972 2.511l-.005 3.804v.137l-.104.09-.116.1c-1.306 1.106-2.056 2.715-2.059 4.418 0 .007 0 .016.002.025zm1.319-17.584c-.854 0-1.66.36-2.272 1.012-.625.671-.97 1.562-.97 2.508l-.005 3.807v.139l-.107.09-.115.097c-1.304 1.104-2.054 2.716-2.057 4.422-.004 2.01 1.06 3.887 2.748 4.906.143-1.799.945-3.487 2.244-4.708l.005-3.267c.003-1.331.492-2.584 1.377-3.526.649-.697 1.471-1.165 2.39-1.365v-.582c.003-.983-.378-1.93-1.044-2.598-.599-.602-1.377-.934-2.19-.935h-.004z" class="cls-3" transform="translate(27.224 48.207)"/>
            </g>
            <g id="Path_13055" class="cls-1">
                <path d="M3502.509 320.534l-87.662-.147c-1.702-.004-3.338-.634-4.607-1.776-1.233-1.11-2.037-2.62-2.27-4.26-1.247-.524-2.31-1.39-3.079-2.51-.806-1.173-1.23-2.548-1.227-3.975l.102-66.162c.002-1.872.732-3.633 2.054-4.959 1.321-1.323 3.073-2.052 4.932-2.052l3.469.008.018-10.56c.015-9.96 3.915-19.344 10.981-26.422 7.047-7.061 16.375-10.95 26.266-10.95l6.292.01c9.912.016 19.253 3.937 26.3 11.04 1.904 1.918 3.642 4.123 5.168 6.555 3.197 3.473 5.678 7.425 7.375 11.745 1.706 4.346 2.568 8.936 2.562 13.644l-.007 5.155c1.52.17 2.958.848 4.06 1.917 1.111 1.077 1.84 2.51 2.058 4.042 1.246.523 2.31 1.39 3.079 2.509.806 1.173 1.23 2.547 1.228 3.973l-.102 66.165c-.003 1.873-.734 3.634-2.058 4.958-1.317 1.323-3.069 2.052-4.932 2.052zm-93.284-5.801c.621 2.595 2.95 4.458 5.623 4.463l87.65.144c1.55 0 3.006-.603 4.102-1.7 1.098-1.1 1.705-2.563 1.707-4.117l.103-66.165c.005-2.13-1.145-4.061-3.017-5.096l-.102 65.775c-.002 1.872-.732 3.633-2.054 4.958-1.321 1.323-3.073 2.052-4.933 2.052l-87.662-.147c-.448-.002-.914-.057-1.417-.167zm-.154-1.275c.581.169 1.083.249 1.572.251l87.65.147c1.546 0 3.002-.605 4.1-1.702 1.1-1.103 1.707-2.565 1.71-4.118l.102-66.162c0-.03-.006-.062-.01-.097l-.002-.008c-.566-.166-1.08-.249-1.572-.25l-87.65-.147c-1.549 0-3.005.605-4.102 1.704-1.098 1.1-1.704 2.561-1.708 4.115l-.101 66.165c0 .028.004.058.01.093l.001.009zm1.692-77.573c-1.545 0-3.001.604-4.098 1.702-1.098 1.097-1.705 2.56-1.708 4.117l-.102 66.162c-.005 2.134 1.144 4.065 3.016 5.098l.102-65.773c.003-1.876.733-3.637 2.055-4.959 1.32-1.323 3.072-2.052 4.932-2.052l3.468.008.007-4.29-7.672-.013zm88.402 4.437l3.457.005c.449.002.915.057 1.417.167-.56-2.33-2.478-4.06-4.866-4.38l-.008 4.208zm-79.545-.134l78.353.13.008-4.287-78.354-.13-.007 4.287zm75.34-5.353l3.024.005.007-5.077c.013-7.028-1.997-13.804-5.825-19.699 1.872 4.545 2.816 9.319 2.81 14.212l-.017 10.56zm-75.332-.126l74.14.126.016-10.56c.01-6.778-1.89-13.414-5.498-19.189-.116-.126-.23-.256-.34-.382-.162-.188-.33-.381-.51-.56-6.817-6.876-15.856-10.67-25.45-10.686l-6.232-.01c-9.61 0-18.662 3.764-25.486 10.601-6.842 6.853-10.618 15.937-10.63 25.58l-.01 5.08zm-4.217-.008l3.025.005.007-5.077c.016-9.962 3.917-19.346 10.984-26.423 7.05-7.063 16.378-10.953 26.267-10.953l6.292.013c4.328.007 8.565.756 12.593 2.226 3.512 1.281 6.798 3.087 9.79 5.376-.388-.434-.765-.835-1.138-1.212-6.816-6.874-15.856-10.67-25.454-10.688l-6.228-.01c-9.61 0-18.662 3.766-25.488 10.604-6.842 6.856-10.618 15.94-10.631 25.58l-.019 10.56z" class="cls-2"/>
                <path d="M3451.486 186.919c-9.85 0-19.14 3.872-26.16 10.906-7.04 7.052-10.922 16.397-10.937 26.317l-.018 10.71-3.619-.009c-1.818 0-3.533.713-4.826 2.008-1.295 1.298-2.008 3.02-2.01 4.853l-.103 66.162c-.005 2.89 1.778 5.359 4.294 6.379.435 3.363 3.272 5.984 6.74 5.992l87.662.147c1.822 0 3.537-.713 4.826-2.008 1.295-1.295 2.011-3.02 2.014-4.852l.102-66.165c.005-2.887-1.778-5.356-4.294-6.376-.409-3.162-2.947-5.636-6.132-5.93l.008-5.29c.013-9.446-3.516-18.359-9.907-25.298-1.463-2.333-3.167-4.538-5.154-6.54-7.018-7.074-16.32-10.98-26.195-10.995l-6.29-.011m34.048 14.072c-6.633-5.536-14.87-8.562-23.55-8.575l-6.291-.013c-9.85 0-19.14 3.875-26.16 10.908-7.04 7.05-10.925 16.396-10.94 26.318l-.009 5.227-3.324-.005.019-10.709c.013-9.681 3.806-18.804 10.675-25.686 6.853-6.865 15.921-10.648 25.594-10.648l6.228.01c9.635.019 18.713 3.828 25.56 10.733.777.784 1.503 1.604 2.198 2.44m8.383 33.994l-74.44-.126.01-5.23c.012-9.684 3.805-18.807 10.674-25.686 6.853-6.866 15.921-10.646 25.592-10.646l6.231.01c9.634.016 18.713 3.828 25.557 10.73.307.307.572.643.864.958 3.59 5.743 5.539 12.363 5.528 19.28l-.016 10.71m-2.532-26.333c4.378 6.142 6.769 13.445 6.755 21.11l-.008 5.228-3.324-.005.016-10.71c.008-5.48-1.203-10.776-3.44-15.623m-72.807 31.686l-3.618-.008c-1.82 0-3.534.713-4.826 2.008-1.296 1.295-2.008 3.02-2.011 4.853l-.102 66.02c-1.961-.98-3.322-2.999-3.316-5.345l.102-66.162c.003-1.594.624-3.096 1.752-4.223 1.124-1.125 2.612-1.746 4.204-1.746l7.822.013-.007 4.59m79.545.131l-78.654-.13.009-4.589 78.653.131-.008 4.588m6.114.226c-.52-.129-1.056-.215-1.615-.218l-3.607-.005.008-4.528c2.6.276 4.71 2.213 5.214 4.75m-5.944 73.312l-87.65-.147c-.599-.003-1.164-.12-1.71-.286-.003-.076-.023-.144-.023-.217l.101-66.165c.004-1.594.627-3.094 1.752-4.22 1.125-1.128 2.613-1.75 4.208-1.75l87.65.147c.598.003 1.165.118 1.71.286.002.074.023.144.023.22l-.102 66.163c-.002 1.594-.626 3.093-1.753 4.223-1.125 1.125-2.614 1.746-4.206 1.746m4.206 5.484l-87.651-.144c-2.876-.005-5.28-2.076-5.82-4.813.519.128 1.056.215 1.614.217l87.662.147c1.82 0 3.534-.713 4.826-2.008 1.295-1.298 2.009-3.02 2.011-4.852l.102-66.024c1.961.983 3.322 3 3.317 5.346l-.103 66.165c-.002 1.593-.624 3.093-1.75 4.223-1.126 1.124-2.615 1.743-4.208 1.743m-51.013-132.871l6.292.01c9.953.016 19.33 3.952 26.407 11.084 1.908 1.923 3.65 4.133 5.18 6.569 3.205 3.485 5.693 7.449 7.395 11.782 1.714 4.364 2.58 8.973 2.573 13.7l-.007 5.02c1.504.2 2.921.883 4.015 1.943 1.114 1.08 1.852 2.511 2.089 4.045 1.24.538 2.297 1.41 3.067 2.529.823 1.198 1.256 2.601 1.254 4.058l-.102 66.165c-.003 1.913-.75 3.712-2.102 5.064-1.345 1.352-3.135 2.096-5.038 2.096l-87.662-.147c-1.74-.004-3.411-.648-4.708-1.815-1.238-1.113-2.052-2.623-2.305-4.267-1.24-.537-2.297-1.409-3.067-2.529-.823-1.198-1.256-2.602-1.254-4.06l.102-66.163c.003-1.912.748-3.71 2.099-5.063 1.35-1.352 3.139-2.097 5.038-2.097l3.319.008.018-10.41c.015-10 3.931-19.422 11.025-26.528 7.075-7.09 16.44-10.994 26.372-10.994zm31.67 12.175l-.032-.032c-6.788-6.846-15.79-10.626-25.347-10.644l-6.228-.01c-9.57 0-18.584 3.75-25.382 10.56-6.814 6.828-10.574 15.874-10.587 25.475l-.018 10.409 2.724.004.007-4.927c.017-10.002 3.933-19.424 11.028-26.53 7.078-7.09 16.444-10.996 26.373-10.996l6.292.013c4.346.007 8.6.759 12.645 2.235 3.022 1.103 5.879 2.592 8.525 4.443zm5.01 6.383c-.114-.124-.225-.251-.332-.375-.17-.194-.329-.377-.504-.552-6.79-6.848-15.79-10.627-25.345-10.642l-6.232-.01c-9.57 0-18.583 3.749-25.378 10.557-6.815 6.825-10.575 15.871-10.588 25.474l-.009 4.93 73.84.125.016-10.408c.01-6.747-1.88-13.35-5.468-19.099zm9.668 29.513l.007-4.928c.012-6.457-1.69-12.702-4.95-18.24 1.49 4.105 2.24 8.382 2.234 12.754l-.015 10.41 2.724.004zm-79.55 1.357l-7.521-.012c-1.505 0-2.923.589-3.992 1.658-1.07 1.069-1.661 2.494-1.664 4.012l-.102 66.162c-.005 1.992 1.025 3.804 2.717 4.836l.101-65.513c.003-1.916.749-3.714 2.099-5.064 1.349-1.351 3.138-2.096 5.038-2.096l3.319.007.006-3.99zm79.546.134l-78.053-.13-.007 3.988 78.053.13.007-3.988zm6.003 4.118c-.597-2.098-2.342-3.655-4.51-4.012l-.008 3.885 3.307.005c.388.002.787.042 1.211.122zm.221 1.587c-.514-.144-.985-.216-1.434-.218l-87.65-.146c-1.507 0-2.926.59-3.994 1.66-1.07 1.072-1.662 2.496-1.665 4.01l-.101 66.15c.526.146.986.215 1.433.217l87.65.147c1.507 0 2.924-.589 3.993-1.658 1.072-1.074 1.664-2.5 1.666-4.012l.102-66.15zm-1.555 77.304c1.508 0 2.927-.588 3.995-1.655 1.07-1.073 1.66-2.498 1.663-4.012l.103-66.165c.004-1.99-1.025-3.801-2.718-4.836l-.1 65.515c-.004 1.912-.749 3.71-2.1 5.064-1.348 1.352-3.138 2.096-5.038 2.096l-87.662-.147c-.388-.001-.787-.042-1.211-.122.684 2.408 2.893 4.113 5.417 4.118l87.651.144z" class="cls-3"/>
            </g>
        </g>
    </g>
</svg>
