<svg xmlns="http://www.w3.org/2000/svg" xmlns:xlink="http://www.w3.org/1999/xlink" width="78" height="94" viewBox="0 0 78 94">
    <defs>
        <path id="pswbfupw4a" d="M0 0.369L77.014 0.369 77.014 93.999 0 93.999z"/>
    </defs>
    <g fill="none" fill-rule="evenodd">
        <path fill="#E7EBF2" d="M40.355 70.93c-.011.013-.024.026-.038.026-.192.092-.374.183-.567.261-.012 0-.026.012-.039.012-.391.127-.8.193-1.211.197-.42-.001-.838-.073-1.237-.209-.161-.068-.32-.142-.477-.22-.039-.014-.065-.028-.104-.04-.013 0-.026-.013-.037-.027C21.56 63.48 11.996 47.981 12 31v7.575c0 17.042 9.614 32.51 24.645 39.93.01.012.024.025.037.025.04.012.065.027.104.04.155.078.322.155.476.223.386.128.8.207 1.237.207.411-.004.82-.07 1.212-.197.012 0 .027-.01.039-.01.193-.08.375-.172.567-.264.014 0 .025-.012.038-.025C55.44 71.054 65.005 55.557 65 38.575V31c0 17.043-9.615 32.51-24.645 39.93"/>
        <path fill="#E7EBF2" d="M40.377 83.826c-.012.013-.025.026-.039.026-.194.092-.376.18-.571.259-.39.13-.82.206-1.26.206-.424-.001-.844-.07-1.247-.206-.197-.08-.393-.167-.585-.26-.013 0-.026-.012-.038-.025C14.941 73.657 1 51.938 1 28v7.682C1 59.62 14.94 81.34 36.637 91.509c.01.012.025.025.038.025.195.09.39.18.584.258.39.13.808.208 1.247.208.443 0 .871-.079 1.26-.208.196-.077.378-.167.572-.258.014 0 .026-.012.04-.025C62.073 81.34 76 59.622 76 35.682V28c0 23.938-13.928 45.657-35.623 55.826"/>
        <mask id="2tasjr3b6b" fill="#fff">
            <use xlink:href="#pswbfupw4a"/>
        </mask>
        <path fill="#3A4E6F" d="M63.918 39.225c0 16.385-9.444 31.613-24.06 38.794-.034.016-.065.033-.095.051l-.078.038c-.108.053-.214.104-.324.15-.273.086-.555.132-.839.137h-.021c-.272-.001-.541-.047-.814-.135-.125-.053-.245-.11-.364-.17-.038-.02-.077-.038-.119-.052l-.035-.019C22.553 70.84 13.11 55.61 13.11 39.225V22.559c0-.018.002-.033.008-.049l.026-.04c.012-.012.026-.02.04-.025l24.9-7.835c.276-.086.568-.086.839-.002l24.908 7.838.022.01c.02.033.04.064.063.092v16.677h.001zm6.701-23.376l-5.732 4.464c-.113-.054-.231-.101-.353-.14l-24.838-7.816v-6.78c0-.658-.529-1.19-1.182-1.19-.653 0-1.182.532-1.182 1.19v6.777l-24.848 7.818c-.124.04-.244.087-.359.143l-5.738-4.464c-.515-.401-1.258-.306-1.658.214-.4.52-.305 1.267.213 1.668l5.82 4.532c-.01.097-.015.195-.015.294v16.666c-.004 8.546 2.383 16.922 6.886 24.166 4.477 7.208 10.87 13.009 18.455 16.745.062.036.13.065.197.092l.018.008v.002l.022.01c.163.08.336.158.494.226.17.06.34.112.514.155v5.383c0 .658.53 1.19 1.182 1.19.654 0 1.182-.532 1.182-1.19V80.63c.129-.032.259-.068.384-.107l.047-.017c.029-.008.053-.016.08-.027.168-.07.33-.143.493-.224l.137-.063v-.004c7.63-3.733 14.06-9.555 18.559-16.798 4.502-7.244 6.89-15.62 6.886-24.166V22.559c0-.105-.006-.208-.019-.31l5.804-4.516c.515-.4.61-1.15.21-1.67-.4-.518-1.142-.613-1.659-.212v-.002zm4.032 20.146c0 23.524-13.652 45.207-34.78 55.246-.037.017-.074.037-.108.06l-.076.035c-.108.051-.214.103-.323.148-.557.178-1.118.183-1.686 0-.138-.059-.276-.12-.413-.185-.035-.022-.071-.042-.11-.06C16.022 81.198 2.364 59.515 2.364 35.996V14.982c0-.614.406-1.168.982-1.352L37.311 2.931c.78-.242 1.612-.242 2.39 0l33.968 10.7c.578.183.981.737.981 1.352v21.013h.001zm-.275-24.635L40.401.657C39.166.273 37.845.273 36.61.658L2.639 11.36c-1.565.506-2.63 1.966-2.64 3.622v21.013C0 60.392 14.146 82.89 36.046 93.342c.072.047.14.081.21.107.192.09.386.18.58.259l.063.023c.532.179 1.075.268 1.616.268.575-.001 1.147-.1 1.691-.291.169-.07.33-.144.495-.223l.137-.064v-.005l.094-.047c21.922-10.44 36.083-32.953 36.083-57.374V14.982c0-1.642-1.085-3.133-2.638-3.622z" mask="url(#2tasjr3b6b)"/>
        <path fill="#009CDE" d="M36.045 54c-.67 0-1.307-.297-1.75-.816l-7.71-9.018c-.854-.999-.762-2.522.206-3.403.967-.881 2.443-.786 3.297.213l5.944 6.954 11.87-14.1c.846-1.005 2.321-1.113 3.294-.239.974.873 1.078 2.395.231 3.4L37.81 53.17c-.442.525-1.081.827-1.754.83h-.01V54z"/>
    </g>
</svg>
