<svg id="Group_2253" data-name="Group 2253" xmlns="http://www.w3.org/2000/svg" width="24.185" height="24.184" viewBox="0 0 24.185 24.184">
  <path id="Path_1896" data-name="Path 1896" d="M278.991,27.031a.991.991,0,0,0,0,1.982h19.03a.991.991,0,0,0,0-1.982h-.595V17.813h.595a.991.991,0,0,0,.991-.991V15.335a.991.991,0,0,0-.441-.825l-9.515-6.344a.991.991,0,0,0-1.1,0l-9.515,6.343a.991.991,0,0,0-.441.825v1.487a.991.991,0,0,0,.991.991h.595v9.218Zm5.749-9.119h7.533v9.119H284.74Zm9.515,9.119V17.912h1.189v9.119Zm-5.749-16.848,8.472,5.648H280.035Zm-6.938,7.729h1.189v9.119h-1.189Z" transform="translate(-276.414 -8.001)" fill="#009bdd"/>
  <path id="Path_1897" data-name="Path 1897" d="M285.193,232h-22.2a.991.991,0,0,0,0,1.982h22.2a.991.991,0,1,0,0-1.982Z" transform="translate(-262 -209.798)" fill="#009bdd"/>
</svg>
