<svg xmlns="http://www.w3.org/2000/svg" width="125.246" height="37.564" viewBox="0 0 125.246 37.564">
    <path fill="#fff" d="M19.035.277a18.782 18.782 0 1 0 18.783 18.782A18.782 18.782 0 0 0 19.035.277zm8.613 27.089a1.17 1.17 0 0 1-1.61.388c-4.41-2.694-9.961-3.3-16.5-1.81a1.171 1.171 0 0 1-.521-2.283c7.155-1.635 13.292-.931 18.243 2.095a1.171 1.171 0 0 1 .389 1.61zm2.3-5.114a1.464 1.464 0 0 1-2.014.483c-5.049-3.1-12.744-4-18.716-2.189a1.464 1.464 0 1 1-.851-2.8c6.821-2.07 15.3-1.067 21.1 2.5a1.464 1.464 0 0 1 .482 2.013zm.2-5.325C24.091 13.331 14.1 13 8.325 14.754A1.757 1.757 0 1 1 7.3 11.392c6.639-2.014 17.668-1.624 24.638 2.508a1.756 1.756 0 1 1-1.792 3.022zm21.208.689c-3.243-.773-3.82-1.316-3.82-2.457 0-1.077 1.014-1.8 2.523-1.8a7.371 7.371 0 0 1 4.432 1.684.214.214 0 0 0 .3-.048l1.583-2.232a.213.213 0 0 0-.04-.289 9.581 9.581 0 0 0-6.234-2.16c-3.5 0-5.948 2.1-5.948 5.108 0 3.224 2.111 4.366 5.757 5.247 3.1.715 3.627 1.314 3.627 2.384 0 1.186-1.059 1.924-2.763 1.924a7.459 7.459 0 0 1-5.165-2.133.22.22 0 0 0-.155-.052.21.21 0 0 0-.146.074l-1.773 2.114a.214.214 0 0 0 .02.3 10.584 10.584 0 0 0 7.15 2.741c3.772 0 6.21-2.061 6.21-5.253.007-2.693-1.606-4.184-5.555-5.145h-.007zm14.1-3.2a5.093 5.093 0 0 0-4.084 1.964V14.9a.212.212 0 0 0-.211-.213h-2.9a.212.212 0 0 0-.211.213v16.5a.213.213 0 0 0 .211.213h2.9a.213.213 0 0 0 .211-.213v-5.21a5.225 5.225 0 0 0 4.084 1.848c3.039 0 6.116-2.339 6.116-6.811s-3.073-6.813-6.114-6.813zm2.734 6.814c0 2.276-1.4 3.866-3.411 3.866A3.609 3.609 0 0 1 61.3 21.23a3.608 3.608 0 0 1 3.483-3.866c1.976 0 3.411 1.625 3.411 3.866zm11.261-6.813a6.826 6.826 0 1 0 6.955 6.813 6.847 6.847 0 0 0-6.955-6.813zm0 10.7a3.694 3.694 0 0 1-3.651-3.89 3.607 3.607 0 0 1 3.6-3.843 3.7 3.7 0 0 1 3.674 3.892 3.615 3.615 0 0 1-3.627 3.841zm15.312-10.434h-3.2v-3.267a.212.212 0 0 0-.211-.213h-2.9a.214.214 0 0 0-.213.213v3.267h-1.4a.212.212 0 0 0-.211.213v2.5a.212.212 0 0 0 .211.213h1.4v6.458c0 2.608 1.3 3.932 3.862 3.932a5.29 5.29 0 0 0 2.718-.677.208.208 0 0 0 .108-.184v-2.383a.212.212 0 0 0-.1-.179.206.206 0 0 0-.206-.009 3.666 3.666 0 0 1-1.7.41c-.931 0-1.348-.424-1.348-1.37v-6h3.2a.212.212 0 0 0 .211-.213V14.9a.206.206 0 0 0-.209-.213zm11.137.017v-.4c0-1.18.453-1.707 1.467-1.707a4.907 4.907 0 0 1 1.637.3.212.212 0 0 0 .278-.2V10.24a.21.21 0 0 0-.15-.2 7.955 7.955 0 0 0-2.413-.347c-2.68 0-4.1 1.51-4.1 4.366v.615h-1.4a.214.214 0 0 0-.213.213v2.508a.214.214 0 0 0 .213.213h1.4v9.959a.213.213 0 0 0 .213.213h2.9a.212.212 0 0 0 .213-.213V17.6h2.712l4.154 9.959c-.471 1.045-.935 1.254-1.568 1.254a3.334 3.334 0 0 1-1.6-.455.231.231 0 0 0-.168-.016.211.211 0 0 0-.126.114l-.985 2.16a.212.212 0 0 0 .092.276 6.111 6.111 0 0 0 3.1.794c2.144 0 3.331-1 4.374-3.687l5.037-13.017a.212.212 0 0 0-.2-.29h-3.023a.213.213 0 0 0-.2.143l-3.1 8.844-3.391-8.85a.212.212 0 0 0-.2-.137H105.9zm-6.455-.013h-2.9a.214.214 0 0 0-.213.213v12.663a.213.213 0 0 0 .213.213h2.9a.213.213 0 0 0 .213-.213V14.9a.212.212 0 0 0-.213-.213zm-1.439-5.773A2.082 2.082 0 1 0 100.087 11a2.082 2.082 0 0 0-2.081-2.086zm25.438 9.842A2.049 2.049 0 1 1 125.5 16.7a2.036 2.036 0 0 1-2.054 2.055zm.011-3.895a1.845 1.845 0 1 0 1.828 1.839 1.827 1.827 0 0 0-1.828-1.839zm.453 2.049l.579.809H124l-.52-.742h-.446v.742h-.408v-2.144h.955c.5 0 .828.255.828.684a.637.637 0 0 1-.5.652zm-.345-.968h-.532v.678h.532c.265 0 .424-.13.424-.34s-.159-.337-.424-.337z" transform="translate(-.253 -.277)"/>
</svg>
