<svg xmlns="http://www.w3.org/2000/svg" width="60" height="60.001" viewBox="0 0 60 60.001">
    <path fill="#fff" d="M-8601 60a29.807 29.807 0 0 1-21.214-8.787A29.8 29.8 0 0 1-8631 30a29.8 29.8 0 0 1 8.786-21.213A29.807 29.807 0 0 1-8601 0a29.805 29.805 0 0 1 21.214 8.787A29.8 29.8 0 0 1-8571 30a29.8 29.8 0 0 1-8.786 21.213A29.805 29.805 0 0 1-8601 60zm8.063-40a6.663 6.663 0 0 0-6.656 6.655 6.6 6.6 0 0 0 6.032 6.593 10.882 10.882 0 0 1-4.063 3.875 1.9 1.9 0 0 0-.967 1.627 1.875 1.875 0 0 0 1.861 1.885 1.827 1.827 0 0 0 .761-.165c3.595-1.627 9.626-5.584 9.626-13.814a6.554 6.554 0 0 0-1.906-4.7 6.555 6.555 0 0 0-4.688-1.956zm-16.438 0a6.649 6.649 0 0 0-6.625 6.656 6.6 6.6 0 0 0 6.032 6.593 10.9 10.9 0 0 1-4.063 3.875 1.9 1.9 0 0 0-.97 1.627 1.876 1.876 0 0 0 1.863 1.885 1.856 1.856 0 0 0 .763-.165c3.605-1.618 9.655-5.565 9.655-13.814a6.663 6.663 0 0 0-6.656-6.657z" transform="translate(8631)"/>
</svg>
