<svg xmlns="http://www.w3.org/2000/svg" width="30" height="30" viewBox="0 0 30 30">
    <path fill="#009CDE" fill-rule="nonzero" d="M15 5c5.523 0 10 4.477 10 10s-4.477 10-10 10S5 20.523 5 15 9.477 5 15 5zm0 18c1.849 0 3.55-.627 4.906-1.68l-2.149-2.148A4.977 4.977 0 0 1 15 20a4.977 4.977 0 0 1-2.757-.828l-2.148 2.149A7.965 7.965 0 0 0 15 23zm6.32-12.906l-2.148 2.149c.523.79.828 1.738.828 2.757 0 1.02-.305 1.967-.828 2.757l2.148 2.149A7.965 7.965 0 0 0 23 15c0-1.849-.627-3.55-1.68-4.906zm-12.64 0A7.965 7.965 0 0 0 7 15c0 1.848.627 3.55 1.68 4.905l2.148-2.148A4.977 4.977 0 0 1 10 15c0-1.02.305-1.967.828-2.757L8.68 10.094zM15 12a3 3 0 1 0 0 6 3 3 0 0 0 0-6zm0-5c-1.849 0-3.55.627-4.906 1.68l2.149 2.148A4.977 4.977 0 0 1 15 10c1.02 0 1.967.305 2.757.828l2.149-2.148A7.965 7.965 0 0 0 15 7z"/>
</svg>
