<svg id="tether-seeklogo.com" xmlns="http://www.w3.org/2000/svg" width="82" height="82" viewBox="0 0 82 82">
  <path id="Path_1" data-name="Path 1" d="M41,0A41,41,0,1,1,0,41,41,41,0,0,1,41,0" fill="#ccd4e1"/>
  <path id="Path_2" data-name="Path 2" d="M423.043,506.732v-6.1H436.99V491.34H399.011v9.293H412.96v6.094c-11.337.521-19.86,2.766-19.86,5.455s8.528,4.935,19.86,5.459v19.536h10.086V517.64c11.316-.522,19.823-2.766,19.823-5.453s-8.507-4.931-19.823-5.453m0,9.251v0c-.285.018-1.747.106-5,.106-2.6,0-4.434-.074-5.079-.107v.008c-10.016-.444-17.491-2.188-17.491-4.275s7.477-3.829,17.491-4.273v6.81c.656.045,2.532.156,5.122.156,3.11,0,4.674-.13,4.961-.156v-6.81c10,.445,17.454,2.191,17.454,4.271s-7.462,3.826-17.454,4.271" transform="translate(-376.983 -471.195)" fill="#fff"/>
</svg>
