<?xml version="1.0" encoding="UTF-8"?>
<svg width="512px" height="512px" viewBox="0 0 512 512" version="1.1" xmlns="http://www.w3.org/2000/svg" xmlns:xlink="http://www.w3.org/1999/xlink">
    <!-- Generator: Sketch 64 (93537) - https://sketch.com -->
    <title>tick</title>
    <desc>Created with Sketch.</desc>
    <g id="Page-1" stroke="none" stroke-width="1" fill="none" fill-rule="evenodd">
        <g id="tick" fill="#32CD32" fill-rule="nonzero">
            <path d="M383.841,171.838 C375.96,163.528 362.821,163.162 354.498,171.063 L221.987,296.732 L158.783,231.839 C150.778,223.626 137.653,223.446 129.433,231.452 C121.22,239.45 121.047,252.589 129.045,260.802 L206.537,340.363 C210.598,344.535 215.995,346.638 221.406,346.638 C226.54,346.638 231.674,344.742 235.694,340.944 L383.067,201.182 C391.383,193.294 391.735,180.155 383.841,171.838 Z" id="Path"></path>
            <path d="M256,0 C114.84,0 0,114.84 0,256 C0,397.16 114.84,512 256,512 C397.16,512 512,397.16 512,256 C512,114.84 397.16,0 256,0 Z M256,470.487 C137.735,470.487 41.513,374.273 41.513,256 C41.513,137.735 137.734,41.513 256,41.513 C374.272,41.513 470.487,137.734 470.487,256 C470.487,374.272 374.272,470.487 256,470.487 Z" id="Shape"></path>
        </g>
    </g>
</svg>