<svg xmlns="http://www.w3.org/2000/svg" xmlns:xlink="http://www.w3.org/1999/xlink" width="92" height="89" viewBox="0 0 92 89">
    <defs>
        <path id="ciw11zbg0a" d="M0.001 0L92 0 92 89 0.001 89z"/>
        <path id="mgjzqi1zbc" d="M0 89L92 89 92 0 0 0z"/>
    </defs>
    <g fill="none" fill-rule="evenodd">
        <path fill="#3A4E6F" d="M67 48.383C67 55.09 63.956 61.076 59.196 65l-1.858-2.335-3.147-3.204 2.709-2.743 2.528 2.573c1.974-2.52 3.29-5.606 3.65-8.966h-3.714v-3.898h3.702c-.361-3.375-1.664-6.445-3.638-8.965L56.9 40.035 54.19 37.29l2.528-2.573c-2.463-2.021-5.494-3.348-8.81-3.728v3.78h-3.818v-3.78c-3.315.38-6.347 1.707-8.81 3.728l2.528 2.573-2.708 2.744-2.528-2.573c-1.975 2.52-3.276 5.59-3.639 8.965h3.702v3.898h-3.715c.362 3.36 1.677 6.446 3.652 8.966l2.528-2.573 2.708 2.743-3.147 3.204L32.804 65C28.044 61.076 25 55.09 25 48.383 25 36.57 34.404 27 46 27s21 9.57 21 21.383"/>
        <path stroke="#FFF" stroke-width=".75" d="M67 48.383C67 55.09 63.956 61.076 59.196 65l-1.858-2.335-3.147-3.204 2.709-2.743 2.528 2.573c1.974-2.52 3.29-5.606 3.65-8.966h-3.714v-3.898h3.702c-.361-3.375-1.664-6.445-3.638-8.965L56.9 40.035 54.19 37.29l2.528-2.573c-2.463-2.021-5.494-3.348-8.81-3.728v3.78h-3.818v-3.78c-3.315.38-6.347 1.707-8.81 3.728l2.528 2.573-2.708 2.744-2.528-2.573c-1.975 2.52-3.276 5.59-3.639 8.965h3.702v3.898h-3.715c.362 3.36 1.677 6.446 3.652 8.966l2.528-2.573 2.708 2.743-3.147 3.204L32.804 65C28.044 61.076 25 55.09 25 48.383 25 36.57 34.404 27 46 27s21 9.57 21 21.383z"/>
        <path fill="#3A4E6F" d="M45.5 56.203c-1.015 0-1.833-.86-1.833-1.899 0-1.053.818-1.898 1.832-1.898 1.016 0 1.834.845 1.834 1.898 0 1.04-.818 1.899-1.834 1.899m1.834-7.261V41h-3.666v7.942C41.537 49.71 40 51.816 40 54.304 40 57.447 42.465 60 45.5 60s5.5-2.553 5.5-5.696c0-2.488-1.536-4.594-3.667-5.362"/>
        <path stroke="#FFF" stroke-width=".75" d="M45.5 56.203c-1.015 0-1.833-.86-1.833-1.899 0-1.053.818-1.898 1.832-1.898 1.016 0 1.834.845 1.834 1.898 0 1.04-.818 1.899-1.834 1.899zm1.833-7.261V41h-3.666v7.942C41.537 49.71 40 51.816 40 54.304 40 57.447 42.465 60 45.5 60s5.5-2.553 5.5-5.696c0-2.488-1.536-4.594-3.667-5.362z"/>
        <path fill="#E7EBF2" d="M85.018 78.268H5.979c-2.75 0-4.978-2.234-4.978-4.989v9.732C1 85.766 3.228 87.999 5.977 88h79.042C87.77 88 90 85.766 90 83.01v-9.73c0 2.754-2.23 4.988-4.98 4.988h-.002zM1 15.551h88.999V10H1v5.55z"/>
        <mask id="zdsnt51kdb" fill="#fff">
            <use xlink:href="#ciw11zbg0a"/>
        </mask>
        <path fill="#3A4E6F" d="M7.775 2.58c-2.863 0-5.183 2.31-5.183 5.16V81.26c0 2.85 2.32 5.16 5.183 5.16h76.45c2.863 0 5.184-2.31 5.184-5.16V7.74c0-2.849-2.32-5.159-5.183-5.159H7.776zm0-2.58h76.45c4.294 0 7.776 3.466 7.776 7.74V81.26c0 4.273-3.482 7.74-7.775 7.74H7.776C3.48 89 0 85.533 0 81.26V7.74C0 3.466 3.48 0 7.775 0z" mask="url(#zdsnt51kdb)"/>
        <mask id="8ot5b9m6md" fill="#fff">
            <use xlink:href="#mgjzqi1zbc"/>
        </mask>
        <path fill="#3A4E6F" d="M1 18L90 18 90 15 1 15zM11.9 10.333c-.719 0-1.3-.597-1.3-1.333 0-.737.581-1.333 1.3-1.333.718 0 1.3.596 1.3 1.333 0 .736-.582 1.333-1.3 1.333m0 2.667c2.153 0 3.9-1.792 3.9-4 0-2.21-1.747-4-3.9-4C9.746 5 8 6.79 8 9c0 2.208 1.746 4 3.9 4m59.8-2.667c-.719 0-1.3-.597-1.3-1.333 0-.737.581-1.333 1.3-1.333.718 0 1.3.596 1.3 1.333 0 .736-.582 1.333-1.3 1.333m0 2.667c2.153 0 3.9-1.792 3.9-4 0-2.21-1.747-4-3.9-4-2.154 0-3.9 1.79-3.9 4 0 2.208 1.746 4 3.9 4m10.4-2.667c-.719 0-1.3-.597-1.3-1.333 0-.737.581-1.333 1.3-1.333.718 0 1.3.596 1.3 1.333 0 .736-.582 1.333-1.3 1.333m0 2.667c2.153 0 3.9-1.792 3.9-4 0-2.21-1.747-4-3.9-4-2.154 0-3.9 1.79-3.9 4 0 2.208 1.746 4 3.9 4" mask="url(#8ot5b9m6md)"/>
        <path fill="#009CDE" d="M77.624 76.969L66.718 66.06l6.542-4.387c.925-.621.668-2.049-.417-2.308l-22.265-5.33c-.687-.165-1.379.259-1.544.946-.045.196-.045.399 0 .596l5.331 22.266c.26 1.085 1.687 1.34 2.308.415l4.387-6.541 10.908 10.907c.5.5 1.31.5 1.81 0l3.846-3.846c.501-.5.501-1.31 0-1.81" mask="url(#8ot5b9m6md)"/>
    </g>
</svg>
