<svg xmlns="http://www.w3.org/2000/svg" xmlns:xlink="http://www.w3.org/1999/xlink" width="78" height="87" viewBox="0 0 78 87">
    <defs>
        <path id="qqv0qajuqa" d="M0 0L78 0 78 16 0 16z"/>
        <path id="gmoecuj3ec" d="M0 0L78 0 78 73 0 73z"/>
        <path id="u2aoud74ae" d="M0.013 0L78 0 78 42 0.013 42z"/>
        <path id="r2086jxszg" d="M0 0L28 0 28 24 0 24z"/>
    </defs>
    <g fill="none" fill-rule="evenodd">
        <g transform="translate(0 71)">
            <mask id="jklrtv6whb" fill="#fff">
                <use xlink:href="#qqv0qajuqa"/>
            </mask>
            <path fill="#E7EBF2" d="M0 0c0 5.05 4.365 9.143 9.75 9.143h58.5C73.635 9.143 78 5.05 78 0v6.857C78 11.907 73.635 16 68.25 16H9.75C4.365 16 0 11.907 0 6.857V0z" mask="url(#jklrtv6whb)"/>
        </g>
        <g transform="translate(0 14)">
            <mask id="qc4fcpk82d" fill="#fff">
                <use xlink:href="#gmoecuj3ec"/>
            </mask>
            <path fill="#3A4E6F" d="M9.75 1.973c-4.308 0-7.8 3.533-7.8 7.892v53.27c0 4.36 3.492 7.892 7.8 7.892h58.5c4.308 0 7.8-3.533 7.8-7.892V9.865c0-4.36-3.492-7.892-7.8-7.892H9.75zM9.75 0h58.5C73.635 0 78 4.416 78 9.865v53.27C78 68.584 73.635 73 68.25 73H9.75C4.365 73 0 68.584 0 63.135V9.865C0 4.416 4.365 0 9.75 0z" mask="url(#qc4fcpk82d)"/>
        </g>
        <path fill="#3A4E6F" d="M78 23h-1.955H78zM1.955 23c.25 3.846 3.203 6.882 6.81 6.882h33.649V32H8.764C4.08 32 .254 28.017 0 23h1.955z"/>
        <g transform="translate(0 31)">
            <mask id="5zpkrh9v3f" fill="#fff">
                <use xlink:href="#u2aoud74ae"/>
            </mask>
            <path fill="#3A4E6F" d="M76.05 18H51.675c-5.923 0-10.725 4.925-10.725 11s4.802 11 10.725 11H76.05V18zm-24.375-2H78v26H51.675C44.675 42 39 36.18 39 29s5.675-13 12.675-13zM.013 8.5h1.954H.013zm76.02 0c-.25-3.633-3.202-6.5-6.808-6.5H35.588V0h33.637c4.683 0 8.509 3.762 8.762 8.5h-1.954z" mask="url(#5zpkrh9v3f)"/>
        </g>
        <path fill="#3A4E6F" d="M52 61c-2.109 0-3.818-1.567-3.818-3.5 0-1.932 1.71-3.5 3.818-3.5s3.818 1.568 3.818 3.5c0 1.933-1.71 3.5-3.818 3.5m0 2c3.313 0 6-2.462 6-5.5 0-3.037-2.687-5.5-6-5.5-3.314 0-6 2.463-6 5.5 0 3.038 2.686 5.5 6 5.5M9.983 23h57.034c.542 0 .983.448.983 1s-.44 1-.983 1H9.983C9.44 25 9 24.552 9 24s.44-1 .983-1"/>
        <g transform="translate(24)">
            <mask id="8dii3fc4qh" fill="#fff">
                <use xlink:href="#r2086jxszg"/>
            </mask>
            <path fill="#009CDE" d="M14 0c7.732 0 14 6.017 14 13.44 0 4.284-2.088 8.1-5.34 10.56H5.34C2.087 21.54 0 17.724 0 13.44 0 6.017 6.268 0 14 0" mask="url(#8dii3fc4qh)"/>
        </g>
        <path fill="#FFF" d="M40.35 10.735c.396 1.462-2.152 1.873-2.944 2.053l-.708-2.592c.793-.193 3.227-1.001 3.652.539zm1.74 3.875c.439 1.617-2.618 2.118-3.566 2.336l-.779-2.861c.962-.206 3.892-1.143 4.345.525zm-3.297-6.48L38.213 6l-1.416.321.566 2.079c-.367.09-.75.18-1.118.27l-.566-2.092-1.415.32.58 2.13c-.297.077-.608.154-.89.219v-.013L32 9.683l.382 1.386s1.033-.257 1.02-.231c.565-.128.834.128.961.385l.665 2.438c.038-.009.038-.005 0 .013l.92 3.413c.01.111-.127.295-.41.552.019.008-.325.085-1.033.23l.141 1.617 1.84-.423c.34-.077.68-.155 1.005-.218L38.07 21l1.415-.32-.58-2.143c.396-.078.764-.167 1.132-.244l.58 2.13 1.415-.321-.58-2.155c2.335-.667 3.85-1.604 3.496-3.709-.284-1.693-1.33-2.232-2.76-2.22.722-.577 1.048-1.373.623-2.476-.58-1.502-2.166-1.681-4.02-1.411V8.13z"/>
    </g>
</svg>
