<svg xmlns="http://www.w3.org/2000/svg" width="117.668" height="47" viewBox="0 0 117.668 47">
    <defs>
        <style>
            .cls-1{fill:#fff}
        </style>
    </defs>
    <g id="Group_3691" transform="translate(-37.368 4.438)">
        <g id="Group_3267" transform="translate(37.368 10.682)">
            <path id="Path_12057" d="M81.106 55.633a8.5 8.5 0 0 0 2.257-3.9A21.069 21.069 0 0 0 80.453 47a21.014 21.014 0 0 0 2.91-4.738 8.519 8.519 0 0 0-2.258-3.9c-1.774 1.969-3.251 3.617-6.274 6.71v3.847c3.025 3.098 4.503 4.748 6.275 6.714z" class="cls-1" transform="translate(-58.098 -34.367)"/>
            <path id="Path_12058" d="M46.323 31.671a8.514 8.514 0 0 1 3.9-2.258 21.027 21.027 0 0 1 4.738 2.912 20.967 20.967 0 0 1 4.737-2.912 8.527 8.527 0 0 1 3.895 2.257c-1.969 1.774-3.613 3.255-6.708 6.279h-3.85c-3.096-3.024-4.744-4.504-6.712-6.278z" class="cls-1" transform="translate(-42.323 -29.413)"/>
            <path id="Path_12059" d="M63.588 73.143a8.569 8.569 0 0 1-3.9 2.259 21.125 21.125 0 0 1-4.737-2.913 21.147 21.147 0 0 1-4.734 2.911 8.558 8.558 0 0 1-3.9-2.26c1.967-1.772 3.616-3.253 6.713-6.279h3.846c3.099 3.029 4.745 4.51 6.712 6.282z" class="cls-1" transform="translate(-42.322 -50.137)"/>
            <path id="Path_12060" d="M39.626 38.369a8.526 8.526 0 0 0-2.258 3.9A20.723 20.723 0 0 0 40.278 47a20.829 20.829 0 0 0-2.91 4.738 8.5 8.5 0 0 0 2.258 3.894c1.771-1.967 3.251-3.616 6.276-6.709v-3.846c-3.025-3.093-4.502-4.739-6.276-6.708z" class="cls-1" transform="translate(-37.368 -34.369)"/>
        </g>
        <text id="xcoins" fill="#fff" font-family="Saira-Medium, Saira" font-size="30px" font-weight="500" letter-spacing="-0.02em" transform="translate(70.036 29.562)">
            <tspan x="0" y="0">xcoins</tspan>
        </text>
    </g>
</svg>
