<svg xmlns="http://www.w3.org/2000/svg" id="layer1" width="123" height="34" viewBox="0 0 123 34">
    <defs>
        <style>
            .cls-1{fill:#282828}
        </style>
    </defs>
    <path id="path1139" d="M-260.955-23.352h7.4l4.312 11.031 4.368-11.031h7.21l-10.852 26.114h-7.255l2.972-6.92z" class="cls-1" transform="translate(260.955 31.238)"/>
    <path id="path1141" d="M-205.694-24.285c-5.564 0-9.081 4.99-9.081 9.958 0 5.591 3.856 10.024 8.975 10.024 3.819 0 5.258-2.327 5.258-2.327v1.812h6.458v-19.028h-6.458v1.73a6.491 6.491 0 0 0-5.153-2.169zm1.374 6.115a3.8 3.8 0 0 1 3.892 3.864 3.811 3.811 0 0 1-3.892 3.91 3.907 3.907 0 0 1-3.9-3.826 3.769 3.769 0 0 1 3.9-3.948z" class="cls-1" transform="translate(236.192 31.966)"/>
    <path id="path1145" d="M-166.06-13.782v-27.432h6.755v10.2a6.255 6.255 0 0 1 4.965-2.233c4.11 0 6.519 3.063 6.519 7.439v12.027h-6.706v-10.38c0-1.481-.705-2.912-2.3-2.912a2.637 2.637 0 0 0-2.474 2.912v10.38z" class="cls-1" transform="translate(210.085 41.214)"/>
    <path id="path1147" d="M-114.249-24.28a9.844 9.844 0 0 0-10.165 10.035A9.831 9.831 0 0 0-114.225-4.3c5.424 0 10.17-3.855 10.17-9.846 0-6.555-4.969-10.135-10.194-10.135zm.061 6.169a3.834 3.834 0 0 1 3.808 3.873 3.894 3.894 0 0 1-3.808 3.808 3.77 3.77 0 0 1-3.78-3.826 3.673 3.673 0 0 1 3.78-3.855z" class="cls-1" transform="translate(187.742 31.963)"/>
    <path id="path1153" d="M-68.657-24.28a9.844 9.844 0 0 0-10.165 10.035A9.831 9.831 0 0 0-68.633-4.3c5.424 0 10.17-3.855 10.17-9.846 0-6.555-4.969-10.135-10.194-10.135zm.061 6.169a3.834 3.834 0 0 1 3.808 3.873A3.894 3.894 0 0 1-68.6-10.43a3.77 3.77 0 0 1-3.78-3.826 3.673 3.673 0 0 1 3.78-3.855z" class="cls-1" transform="translate(163.037 31.963)"/>
    <circle id="path1155" cx="4.486" cy="4.486" r="4.486" class="cls-1" transform="translate(105.418 18.483)"/>
    <path id="path1157" d="M-20.635-24h-8.075l7.167-17.217h8.043z" class="cls-1" transform="translate(136.498 41.214)"/>
</svg>
