<?xml version="1.0" encoding="UTF-8"?>
<svg width="83px" height="83px" viewBox="0 0 83 83" version="1.1" xmlns="http://www.w3.org/2000/svg" xmlns:xlink="http://www.w3.org/1999/xlink">
    <!-- Generator: sketchtool 58 (101010) - https://sketch.com -->
    <title>2F8BA86F-E33A-436D-AB96-863702EB4391</title>
    <desc>Created with sketchtool.</desc>
    <g id="Landing-Page" stroke="none" stroke-width="1" fill="none" fill-rule="evenodd">
        <g id="-g-Xcoins_Elements" transform="translate(-948.000000, -150.000000)" fill-rule="nonzero">
            <g id="zcash" transform="translate(948.000000, 150.000000)">
                <path d="M83,41.4997479 C83,64.4196826 64.4200739,83 41.5002521,83 C18.5801782,83 0,64.4196826 0,41.4997479 C0,18.5800654 18.5801782,0 41.5002521,0 C64.4198218,0 83,18.5800654 83,41.4997479" id="Path" fill="#CCD4E1"></path>
                <path d="M41.983731,66.983731 C38.6106291,66.983731 35.340564,66.3221258 32.2603037,65.0206074 C29.2830803,63.7624729 26.6149675,61.962039 24.3210412,59.6681128 C22.027115,57.3741866 20.2266811,54.7006508 18.9685466,51.7288503 C17.6616052,48.643167 17,45.373102 17,42 C17,38.626898 17.6616052,35.356833 18.9631236,32.2765727 C20.2212581,29.2993492 22.021692,26.6312364 24.3156182,24.3373102 C26.6095445,22.0433839 29.2830803,20.2429501 32.2548807,18.9848156 C35.335141,17.6832972 38.6106291,17.021692 41.978308,17.021692 C45.345987,17.021692 48.626898,17.6778742 51.7071584,18.9793926 C54.6843818,20.2375271 57.3524946,22.037961 59.6464208,24.3318872 C61.9403471,26.6258134 63.7407809,29.2993492 64.9989154,32.2711497 C66.3004338,35.35141 66.962039,38.626898 66.962039,41.994577 C66.962039,45.367679 66.3004338,48.637744 64.9989154,51.7180043 C63.7407809,54.6952278 61.9403471,57.3633406 59.6464208,59.6572668 C57.3524946,61.9511931 54.6789588,63.7516269 51.7071584,65.0097614 C48.626898,66.3221258 45.356833,66.983731 41.983731,66.983731 Z M41.983731,22.5694143 C36.7939262,22.5694143 31.9132321,24.5921909 28.2418655,28.2581345 C24.5704989,31.9295011 22.5531453,36.8101952 22.5531453,42 C22.5531453,47.1898048 24.5759219,52.0704989 28.2418655,55.7418655 C31.9132321,59.4078091 36.7939262,61.4305857 41.983731,61.4305857 C47.1735358,61.4305857 52.0542299,59.4078091 55.7255965,55.7418655 C59.3915401,52.0704989 61.4143167,47.1898048 61.4143167,42 C61.4143167,36.8101952 59.3915401,31.9295011 55.7255965,28.2581345 C52.0542299,24.5921909 47.1735358,22.5694143 41.983731,22.5694143 Z" id="Shape" fill="#FFFFFF"></path>
                <path d="M40.4815618,48.2201735 L51.3058568,48.2201735 L51.3058568,53.659436 L44.6409978,53.659436 C44.7494577,55.2158351 44.8091106,56.6583514 44.9175705,58.2093275 L39.3101952,58.2093275 L39.3101952,53.7136659 L32.6453362,53.7136659 C32.6453362,51.9349241 32.4229935,50.1616052 32.7537961,48.4967462 C32.9219089,47.6073753 33.9197397,46.8318872 34.532538,46.0563991 C36.6420824,43.5563991 38.7516269,41.1160521 40.9154013,38.6160521 C41.7505423,37.6724512 42.5802603,36.7830803 43.5238612,35.7310195 L33.1442516,35.7310195 L33.1442516,30.291757 L39.3047722,30.291757 L39.3047722,25.7418655 L44.6898048,25.7418655 L44.6898048,30.1832972 L51.4088937,30.1832972 C51.4088937,32.016269 51.6312364,33.7895879 51.3004338,35.4598698 C51.132321,36.3492408 50.1344902,37.1247289 49.467462,37.9002169 C47.3579176,40.4002169 45.2483731,42.840564 43.0845987,45.340564 C42.2603037,46.3329718 41.4305857,47.2169197 40.4815618,48.2201735 L40.4815618,48.2201735 Z" id="Path" fill="#FFFFFF"></path>
            </g>
        </g>
    </g>
</svg>